<svg class="img-fluid" id="outputsvg" xmlns="http://www.w3.org/2000/svg"
     style="transform: none; transform-origin: 50% 50%; cursor: move;" width="1024" height="1024"
     viewBox="0 0 10240 10240">
    <g id="l3tbnR3kehO9DJoHFPIZ6Jp" fill="rgb(0,0,0)" style="transform: none;">
        <g>
            <path id="p5CCPEmrN"
                  d="M4625 9763 c-441 -26 -858 -109 -1252 -249 -672 -238 -1247 -602 -1763 -1114 -377 -374 -654 -751 -880 -1195 -252 -498 -400 -987 -476 -1575 -21 -158 -30 -670 -15 -841 97 -1112 565 -2121 1351 -2910 398 -400 845 -716 1349 -954 458 -216 912 -346 1421 -407 143 -18 233 -21 495 -22 343 0 459 9 760 60 1583 272 2947 1385 3553 2899 159 399 253 785 304 1250 20 187 17 734 -5 915 -103 829 -372 1526 -847 2190 -263 368 -633 745 -1015 1032 -714 537 -1573 859 -2450 918 -137 9 -408 11 -530 3z m715 -212 c80 -6 159 -15 175 -20 17 -5 80 -19 140 -31 201 -41 574 -145 645 -180 19 -9 85 -36 145 -60 150 -58 462 -212 620 -306 1042 -622 1797 -1623 2094 -2774 49 -190 85 -381 108 -577 25 -210 25 -719 0 -923 -51 -418 -138 -763 -284 -1130 -569 -1434 -1865 -2512 -3353 -2789 -303 -57 -406 -66 -765 -66 -421 0 -631 24 -1005 116 -280 69 -762 243 -852 309 -15 11 -32 20 -39 20 -30 0 -315 164 -509 293 -268 178 -468 343 -720 596 -720 721 -1160 1628 -1286 2651 -25 203 -26 694 -1 900 97 804 390 1539 867 2170 155 205 237 299 429 491 392 390 743 642 1236 884 244 120 377 173 617 248 317 100 655 165 983 191 90 7 607 -2 755 -13z"></path>
            <path id="pl9H12MzV"
                  d="M4594 8939 c-448 -28 -934 -156 -1350 -354 -747 -354 -1374 -960 -1751 -1690 -216 -420 -343 -836 -400 -1312 -24 -204 -24 -700 0 -893 61 -484 188 -895 408 -1319 320 -616 782 -1117 1374 -1490 165 -104 509 -275 687 -341 224 -83 489 -150 753 -191 117 -18 197 -22 479 -26 363 -5 466 1 715 43 1174 197 2203 967 2746 2054 262 525 382 1003 401 1605 40 1245 -504 2387 -1506 3156 -313 241 -710 451 -1095 580 -90 30 -342 99 -363 99 -10 0 -22 4 -27 9 -6 5 -48 15 -95 21 -47 6 -128 17 -180 25 -206 32 -529 41 -796 24z m1066 -2173 c0 -751 2 -834 16 -840 9 -3 384 -6 835 -6 l819 0 0 -800 0 -800 -835 0 -835 0 0 -840 0 -840 -800 0 -800 0 0 818 c0 449 -3 827 -6 839 l-6 23 -822 2 -821 3 -3 797 -2 798 827 2 828 3 3 838 2 837 800 0 800 0 0 -834z"></path>
        </g>
    </g>
    <g id="l7UwqcKO7bTYjMvvTJ9HRpH" fill="rgb(24,155,78)" style="transform: none;">
        <g>
            <path id="phPdyfLPR"
                  d="M4555 9594 c-326 -25 -666 -91 -983 -191 -240 -75 -373 -128 -617 -248 -493 -242 -844 -494 -1236 -884 -192 -192 -274 -286 -429 -491 -477 -631 -770 -1365 -867 -2170 -25 -208 -25 -755 1 -960 64 -521 193 -962 415 -1425 221 -458 506 -861 871 -1226 252 -253 452 -418 720 -596 194 -129 479 -293 509 -293 7 0 24 -9 39 -20 90 -66 572 -240 852 -309 382 -94 582 -116 1035 -116 392 0 486 8 795 66 960 178 1862 697 2530 1454 498 565 843 1223 1015 1940 39 161 67 319 92 525 25 206 25 771 0 983 -166 1383 -980 2621 -2202 3351 -158 94 -470 248 -620 306 -60 24 -126 51 -145 60 -71 35 -444 139 -645 180 -60 12 -123 26 -140 31 -78 23 -808 47 -990 33z m551 -684 c87 -6 202 -17 254 -25 52 -8 133 -19 180 -25 47 -6 89 -16 95 -21 5 -5 17 -9 27 -9 21 0 273 -69 363 -99 1028 -344 1877 -1127 2305 -2126 394 -917 396 -1994 8 -2915 -512 -1212 -1596 -2082 -2859 -2294 -247 -42 -355 -48 -686 -43 -249 4 -335 9 -448 26 -263 41 -528 108 -753 191 -178 66 -522 237 -687 341 -851 537 -1445 1355 -1695 2334 -78 304 -103 525 -104 885 0 372 28 614 111 935 230 901 797 1697 1583 2222 679 453 1498 675 2306 623z"></path>
            <path id="p131636Slb"
                  d="M4030 7623 c0 -5 -1 -381 -3 -838 l-2 -830 -827 -3 -827 -2 -3 -153 c-2 -83 -1 -456 2 -827 l5 -675 821 -3 822 -2 6 -23 c3 -12 6 -390 6 -839 l0 -818 830 0 830 0 0 840 0 840 835 0 835 0 0 830 0 830 -819 0 c-451 0 -826 3 -835 6 -14 6 -16 89 -16 840 l0 834 -830 0 c-456 0 -830 -3 -830 -7z"></path>
        </g>
    </g>
</svg>
