<svg class="img-fluid" id="outputsvg" xmlns="http://www.w3.org/2000/svg" style="transform: none; transform-origin: 50% 50%; cursor: move;" width="859" height="856" viewBox="0 0 8590 8560"><g id="l4cSj8jQXuHSmukgHifPdte" fill="rgb(0,0,0)" style="transform: none;"><g><path id="plexQd5vQ" d="M3740 8149 c-347 -41 -545 -84 -845 -184 -564 -187 -1086 -506 -1504 -918 -238 -235 -365 -386 -526 -622 -244 -359 -417 -729 -529 -1130 -110 -398 -163 -862 -136 -1210 48 -637 224 -1201 540 -1730 261 -435 551 -765 950 -1081 158 -126 247 -187 443 -304 483 -290 960 -454 1542 -531 137 -19 671 -18 780 0 44 7 98 15 120 17 219 23 571 111 796 198 35 13 96 36 134 51 192 74 541 264 739 403 157 109 325 243 426 341 19 18 51 44 71 56 39 25 200 195 263 280 23 29 81 104 130 166 162 205 363 528 452 726 140 313 224 557 288 838 93 414 109 878 45 1310 -97 650 -389 1320 -798 1829 -262 327 -532 580 -866 812 -507 352 -1080 577 -1695 666 -116 16 -206 21 -445 23 -165 2 -334 -1 -375 -6z m755 -178 c103 -15 183 -29 245 -41 30 -6 71 -13 90 -16 19 -3 44 -9 55 -14 21 -9 58 -18 113 -27 18 -3 35 -9 38 -14 3 -5 18 -9 33 -9 15 0 31 -4 36 -9 13 -11 134 -51 157 -51 10 0 18 -4 18 -10 0 -5 9 -10 20 -10 11 0 29 -4 40 -10 11 -5 29 -14 40 -20 11 -5 29 -10 40 -10 11 0 20 -4 20 -10 0 -5 9 -10 19 -10 11 0 21 -3 23 -8 4 -9 189 -92 206 -92 6 0 12 -3 12 -7 0 -5 40 -28 87 -53 48 -25 93 -49 99 -55 6 -5 28 -19 50 -30 21 -11 45 -26 52 -32 7 -7 20 -13 28 -13 8 0 14 -4 14 -10 0 -5 11 -12 25 -16 14 -3 25 -10 25 -14 0 -7 104 -80 114 -80 3 0 17 -11 32 -25 15 -14 31 -25 36 -25 5 0 25 -16 45 -35 20 -19 40 -35 45 -35 4 0 31 -21 59 -47 27 -27 55 -50 62 -53 18 -8 397 -395 397 -406 0 -5 23 -32 50 -59 28 -27 50 -54 50 -60 0 -6 14 -24 30 -40 17 -16 30 -34 30 -40 0 -6 14 -24 30 -40 17 -16 30 -34 30 -40 0 -7 9 -20 20 -30 11 -10 20 -23 20 -30 0 -6 12 -22 26 -36 14 -13 34 -42 44 -65 11 -22 26 -47 35 -54 8 -7 15 -18 15 -25 0 -7 6 -18 14 -24 8 -7 56 -94 106 -194 49 -100 98 -195 107 -212 27 -50 33 -64 33 -78 0 -7 9 -31 19 -53 10 -21 25 -59 32 -84 7 -25 21 -60 31 -78 10 -18 18 -39 18 -47 0 -9 4 -23 9 -33 5 -9 15 -43 22 -75 7 -32 16 -60 21 -63 4 -3 8 -20 8 -39 0 -19 5 -37 10 -40 6 -3 10 -21 10 -40 0 -19 4 -36 9 -39 9 -6 16 -44 27 -136 3 -25 9 -54 14 -65 5 -11 11 -42 14 -70 3 -27 11 -97 18 -155 7 -58 12 -211 12 -340 0 -251 -10 -364 -53 -610 -5 -30 -13 -76 -17 -103 -4 -26 -11 -50 -15 -53 -5 -3 -9 -20 -9 -39 0 -19 -4 -37 -10 -40 -5 -3 -10 -21 -10 -40 0 -19 -4 -37 -10 -40 -6 -3 -10 -19 -10 -35 0 -15 -3 -30 -8 -32 -4 -1 -22 -50 -41 -108 -18 -58 -42 -122 -52 -143 -11 -22 -19 -43 -19 -48 0 -5 -9 -28 -19 -52 -11 -23 -25 -60 -33 -82 -7 -22 -15 -42 -18 -45 -11 -10 -110 -215 -110 -227 0 -7 -4 -13 -10 -13 -5 0 -10 -9 -10 -20 0 -11 -4 -20 -10 -20 -5 0 -10 -6 -10 -13 0 -8 -9 -22 -20 -32 -11 -10 -20 -26 -20 -35 0 -10 -6 -20 -14 -23 -14 -6 -46 -61 -46 -81 0 -6 -9 -17 -20 -24 -11 -7 -20 -20 -20 -30 0 -9 -9 -23 -20 -30 -11 -7 -20 -20 -20 -30 0 -10 -14 -28 -30 -40 -17 -13 -30 -28 -30 -35 0 -7 -13 -26 -30 -42 -16 -16 -30 -34 -30 -40 0 -6 -18 -29 -40 -50 -22 -21 -40 -45 -40 -51 0 -7 -25 -37 -56 -66 -31 -29 -59 -60 -63 -70 -9 -24 -280 -298 -294 -298 -7 0 -35 -22 -62 -50 -27 -27 -54 -50 -60 -50 -6 0 -29 -18 -50 -40 -21 -22 -44 -40 -50 -40 -6 0 -24 -14 -40 -30 -16 -17 -34 -30 -41 -30 -7 0 -24 -14 -37 -30 -14 -17 -33 -30 -41 -30 -9 0 -21 -9 -28 -20 -7 -11 -21 -20 -30 -20 -10 0 -23 -9 -30 -20 -7 -11 -21 -20 -30 -20 -10 0 -23 -9 -30 -20 -7 -11 -18 -20 -23 -20 -20 0 -117 -53 -122 -66 -3 -8 -10 -14 -17 -14 -11 0 -296 -139 -306 -150 -3 -3 -23 -11 -45 -18 -22 -8 -59 -22 -82 -33 -24 -10 -47 -19 -52 -19 -5 0 -26 -9 -48 -19 -21 -11 -59 -25 -85 -32 -27 -8 -48 -17 -48 -21 0 -4 -13 -8 -29 -8 -17 0 -33 -4 -36 -10 -3 -5 -18 -10 -33 -10 -28 0 -96 -21 -108 -33 -4 -4 -21 -7 -39 -7 -17 0 -35 -4 -40 -9 -6 -5 -30 -11 -55 -14 -25 -3 -70 -11 -100 -17 -30 -6 -82 -15 -115 -20 -33 -6 -85 -15 -115 -20 -80 -15 -676 -25 -703 -12 -12 6 -60 13 -107 16 -81 5 -138 13 -260 37 -30 5 -72 13 -93 16 -20 3 -40 9 -43 14 -3 5 -20 9 -39 9 -19 0 -37 4 -40 10 -3 5 -19 10 -36 10 -16 0 -37 4 -47 10 -9 5 -73 28 -142 51 -69 23 -129 44 -135 48 -5 4 -30 13 -55 20 -25 7 -53 17 -62 22 -10 5 -24 9 -32 9 -8 0 -16 3 -18 8 -1 4 -34 22 -73 40 -38 19 -81 40 -95 47 -101 53 -207 105 -217 105 -6 0 -13 6 -16 14 -6 14 -61 46 -81 46 -6 0 -17 9 -24 20 -7 11 -18 20 -26 20 -7 0 -21 9 -31 20 -10 11 -23 20 -30 20 -7 0 -20 9 -30 20 -10 11 -23 20 -30 20 -7 0 -20 9 -30 20 -10 11 -23 20 -30 20 -6 0 -24 14 -40 30 -16 17 -34 30 -40 30 -6 0 -29 18 -50 40 -21 22 -44 40 -50 40 -6 0 -29 18 -50 40 -21 22 -44 40 -50 40 -14 0 -387 375 -396 398 -4 9 -28 37 -53 62 -25 24 -46 49 -46 56 0 6 -18 28 -40 48 -22 20 -40 42 -40 49 0 8 -9 22 -20 32 -11 10 -20 24 -20 31 0 7 -14 24 -30 37 -17 14 -30 33 -30 41 0 9 -9 21 -20 28 -11 7 -20 18 -20 24 0 17 -29 70 -45 84 -8 7 -15 19 -15 26 0 8 -9 19 -20 26 -11 7 -20 18 -20 24 0 14 -44 101 -62 122 -8 9 -21 32 -29 50 -8 17 -17 32 -21 32 -5 0 -8 9 -8 20 0 11 -4 20 -10 20 -5 0 -10 6 -10 13 0 7 -9 32 -20 55 -11 22 -20 45 -20 49 0 5 -13 35 -30 68 -16 33 -30 67 -30 75 0 9 -4 20 -9 25 -5 6 -32 80 -61 165 -28 85 -55 164 -60 175 -5 11 -11 36 -15 55 -3 19 -8 50 -12 68 -3 17 -9 32 -14 32 -5 0 -9 18 -9 39 0 22 -4 43 -10 46 -5 3 -10 26 -10 50 0 24 -4 47 -10 50 -5 3 -10 30 -10 59 0 28 -4 56 -9 62 -16 17 -24 156 -25 474 0 305 7 428 34 530 7 25 14 74 17 110 3 36 9 69 14 74 5 6 9 27 9 48 0 21 5 38 10 38 6 0 10 18 10 40 0 22 5 40 10 40 6 0 10 14 10 30 0 17 4 38 10 48 5 9 33 87 61 172 28 85 55 159 60 165 5 5 9 15 9 22 0 8 8 31 19 52 10 22 24 60 32 85 7 25 17 46 21 46 4 0 8 9 8 19 0 11 3 21 8 23 10 4 92 170 92 186 0 6 5 12 10 12 6 0 10 9 10 19 0 10 6 21 14 24 14 6 46 61 46 81 0 6 9 17 20 24 11 7 20 18 20 26 0 7 9 21 20 31 11 10 20 23 20 30 0 7 9 20 20 30 11 10 20 23 20 30 0 7 9 20 20 30 11 10 20 23 20 30 0 7 9 20 20 30 11 10 20 24 20 32 0 7 18 29 40 49 22 20 40 42 40 48 0 7 16 28 36 47 20 18 39 42 43 51 9 24 461 478 476 478 6 0 35 25 62 55 28 30 58 55 67 55 8 0 20 9 26 20 6 11 26 27 45 35 19 7 35 19 35 24 0 6 9 11 19 11 11 0 28 11 39 25 11 14 27 25 36 25 9 0 21 9 28 20 7 11 20 20 29 20 9 0 22 7 29 15 7 8 18 15 25 15 7 0 18 7 25 15 7 9 33 25 57 36 23 11 43 24 43 29 0 6 9 10 20 10 11 0 23 7 26 15 4 8 15 15 25 15 10 0 19 5 19 10 0 6 9 10 20 10 11 0 20 5 20 10 0 6 9 10 20 10 11 0 20 5 20 10 0 6 9 10 20 10 11 0 20 5 20 10 0 6 9 10 20 10 11 0 20 4 20 8 0 4 20 14 45 21 25 7 71 26 103 42 31 16 64 29 72 29 9 0 20 4 25 9 6 5 80 32 165 60 85 28 163 56 172 61 10 6 31 10 48 10 16 0 30 5 30 10 0 6 18 10 40 10 22 0 40 4 40 9 0 5 19 11 43 14 23 3 67 11 97 17 85 17 168 29 252 38 42 4 80 11 84 15 12 11 655 1 739 -12z"></path><path id="pI6IS0IgX" d="M3730 7480 c-8 -5 -41 -10 -72 -10 -32 0 -58 -4 -58 -9 0 -5 -24 -11 -52 -14 -29 -3 -78 -11 -108 -17 -30 -6 -74 -14 -97 -17 -24 -3 -43 -9 -43 -14 0 -5 -15 -9 -32 -9 -33 0 -101 -20 -114 -33 -4 -4 -19 -7 -33 -7 -27 0 -121 -30 -188 -61 -24 -10 -46 -19 -51 -19 -14 0 -62 -25 -62 -32 0 -5 -9 -8 -20 -8 -11 0 -20 -4 -20 -8 0 -4 -21 -14 -47 -21 -62 -19 -103 -40 -110 -57 -3 -8 -14 -14 -24 -14 -10 0 -19 -4 -19 -10 0 -5 -9 -10 -20 -10 -11 0 -20 -4 -20 -10 0 -5 -6 -10 -13 -10 -19 0 -113 -48 -127 -65 -7 -8 -18 -15 -25 -15 -6 0 -20 -9 -30 -20 -10 -11 -23 -20 -30 -20 -7 0 -20 -9 -30 -20 -10 -11 -24 -20 -31 -20 -7 0 -24 -13 -37 -30 -14 -16 -32 -30 -40 -30 -9 0 -27 -13 -40 -30 -14 -16 -32 -30 -40 -30 -8 0 -31 -18 -51 -40 -20 -22 -42 -40 -49 -40 -15 0 -347 -331 -347 -346 0 -5 -18 -28 -40 -49 -22 -21 -40 -44 -40 -50 0 -6 -14 -24 -30 -40 -16 -16 -30 -34 -30 -40 0 -6 -13 -24 -30 -40 -16 -16 -30 -34 -30 -41 0 -6 -7 -17 -15 -24 -17 -14 -45 -67 -45 -85 0 -7 -6 -15 -14 -18 -8 -3 -22 -23 -32 -44 -10 -21 -24 -46 -32 -55 -20 -23 -62 -108 -62 -125 0 -7 -4 -13 -10 -13 -5 0 -10 -9 -10 -19 0 -11 -3 -21 -8 -23 -8 -3 -92 -168 -92 -181 0 -4 -9 -26 -19 -50 -20 -43 -70 -195 -91 -277 -7 -25 -16 -53 -21 -62 -5 -10 -9 -30 -9 -46 0 -15 -4 -32 -9 -37 -5 -6 -11 -28 -14 -50 -4 -22 -11 -65 -17 -95 -6 -30 -14 -80 -17 -110 -2 -30 -9 -59 -14 -64 -5 -6 -9 -51 -9 -101 0 -50 -5 -96 -10 -101 -7 -7 -9 -106 -6 -290 4 -284 10 -373 26 -409 5 -11 11 -40 14 -65 3 -25 10 -70 16 -100 6 -30 13 -73 17 -95 3 -22 9 -44 14 -50 5 -5 9 -24 9 -42 0 -29 60 -223 90 -290 18 -41 28 -68 41 -113 13 -45 43 -106 60 -125 5 -5 9 -17 9 -27 0 -10 5 -18 10 -18 6 0 10 -9 10 -20 0 -11 5 -20 10 -20 6 0 10 -9 10 -20 0 -11 5 -20 10 -20 6 0 10 -9 10 -20 0 -11 5 -20 10 -20 6 0 10 -6 10 -13 0 -22 52 -118 66 -124 8 -3 14 -11 14 -18 0 -20 31 -76 46 -82 8 -3 14 -13 14 -23 0 -9 9 -25 20 -35 11 -10 20 -23 20 -30 0 -7 9 -20 20 -30 11 -10 20 -23 20 -30 0 -6 14 -24 30 -40 17 -16 30 -34 30 -40 0 -6 18 -29 40 -50 22 -21 40 -44 40 -50 0 -13 369 -377 406 -402 13 -8 41 -31 61 -49 20 -19 43 -34 50 -34 7 0 13 -4 13 -8 0 -11 125 -102 139 -102 6 0 11 -4 11 -8 0 -5 12 -15 28 -23 15 -8 35 -21 45 -30 10 -9 35 -25 55 -35 20 -11 39 -22 42 -25 11 -14 342 -169 451 -212 234 -93 511 -162 759 -192 257 -30 709 -23 905 15 120 23 163 30 203 36 23 4 45 11 48 15 3 5 20 9 39 9 19 0 37 5 40 10 3 6 18 10 32 10 30 0 192 53 246 80 22 11 47 20 56 20 9 0 21 4 27 8 5 5 25 15 44 22 62 22 338 161 351 176 6 8 18 14 25 14 8 0 19 9 26 20 7 11 21 20 31 20 10 0 20 7 23 15 4 8 15 15 25 15 10 0 24 9 31 20 7 11 20 20 30 20 9 0 25 11 36 25 11 14 27 25 35 25 9 0 24 11 35 25 11 14 27 25 35 25 8 0 31 18 51 40 20 22 41 40 47 40 13 0 439 423 439 437 0 5 14 22 30 38 17 16 30 34 30 40 0 6 14 24 30 40 17 16 30 34 30 40 0 7 9 20 20 30 11 10 20 25 20 34 0 9 9 22 20 29 11 7 20 20 20 30 0 9 9 23 20 30 11 7 20 18 20 26 0 7 7 19 15 26 16 13 85 149 85 168 0 6 5 12 10 12 6 0 10 9 10 20 0 11 5 20 10 20 6 0 10 9 10 20 0 11 5 20 10 20 6 0 10 9 10 20 0 11 5 20 10 20 6 0 10 9 10 20 0 11 5 20 10 20 6 0 10 9 10 20 0 11 3 20 8 20 7 0 32 48 32 63 0 4 13 36 29 70 45 98 51 116 51 147 0 16 5 32 10 35 6 3 10 19 10 36 0 16 5 29 10 29 6 0 10 13 10 30 0 16 8 44 19 63 18 33 27 72 37 172 3 28 9 59 14 70 32 73 42 219 42 585 1 336 -4 424 -22 465 -5 11 -11 40 -14 65 -3 25 -9 69 -12 98 -4 29 -10 55 -15 58 -5 3 -9 20 -9 39 0 19 -4 37 -10 40 -5 3 -10 21 -10 40 0 19 -4 37 -10 40 -5 3 -10 18 -10 32 0 27 -70 242 -101 310 -10 24 -19 47 -19 52 0 13 -44 95 -52 99 -5 2 -8 12 -8 23 0 10 -4 19 -10 19 -5 0 -10 9 -10 20 0 11 -4 20 -10 20 -5 0 -10 9 -10 20 0 11 -4 20 -10 20 -5 0 -10 9 -10 20 0 11 -4 20 -10 20 -5 0 -10 6 -10 13 0 22 -52 118 -66 124 -8 3 -14 11 -14 18 0 18 -28 71 -45 85 -8 7 -15 18 -15 25 0 6 -9 20 -20 30 -11 10 -20 24 -20 31 0 7 -13 24 -30 37 -16 14 -30 32 -30 40 0 8 -9 22 -20 32 -11 10 -20 23 -20 30 0 6 -18 29 -40 50 -22 21 -40 44 -40 50 0 14 -352 365 -367 365 -7 0 -33 23 -59 50 -26 28 -52 50 -59 50 -6 0 -20 9 -30 20 -10 11 -24 20 -32 20 -8 0 -26 14 -40 30 -13 17 -30 30 -37 30 -7 0 -21 9 -31 20 -10 11 -24 20 -30 20 -7 0 -18 7 -25 15 -14 17 -67 45 -85 45 -7 0 -15 6 -18 14 -6 15 -62 46 -84 46 -7 0 -13 5 -13 10 0 6 -9 10 -20 10 -11 0 -20 5 -20 10 0 6 -9 10 -19 10 -10 0 -21 6 -24 14 -6 15 -62 46 -82 46 -7 0 -24 9 -38 20 -14 11 -30 20 -36 20 -6 0 -30 9 -54 19 -64 29 -161 61 -185 61 -12 0 -22 5 -22 10 0 6 -13 10 -30 10 -16 0 -30 5 -30 10 0 6 -13 10 -30 10 -16 0 -30 5 -30 10 0 6 -15 10 -34 10 -19 0 -38 5 -41 10 -3 6 -21 10 -40 10 -19 0 -37 5 -40 10 -3 6 -21 10 -40 10 -19 0 -37 5 -40 10 -3 6 -26 10 -50 10 -24 0 -47 5 -50 10 -3 6 -28 10 -56 10 -27 0 -49 4 -49 9 0 16 -121 22 -475 27 -213 2 -346 0 -355 -6z m-1177 -1416 c71 -36 107 -94 107 -174 l0 -50 233 -235 c218 -221 234 -235 268 -235 44 0 91 19 164 65 30 20 62 38 70 42 9 3 66 39 128 79 61 41 117 74 123 74 7 0 35 -23 62 -52 l50 -52 -52 -26 c-196 -99 -280 -150 -320 -194 -16 -19 -18 -34 -13 -142 2 -67 10 -131 17 -143 23 -44 10 -51 -55 -29 -62 21 -197 29 -245 16 -32 -9 -87 -93 -165 -251 -32 -65 -62 -120 -67 -123 -9 -6 -97 84 -98 99 0 5 50 92 110 193 61 101 117 199 125 218 16 37 19 99 7 127 -4 9 -105 118 -225 241 l-218 224 -67 12 c-37 6 -68 16 -70 22 -2 5 -10 10 -17 10 -8 0 -27 17 -42 37 -23 30 -28 47 -28 92 0 69 27 111 93 146 56 29 82 31 125 9z m1059 -871 c10 -9 18 -21 18 -27 0 -29 173 -208 989 -1031 758 -764 995 -1008 1008 -1035 6 -14 18 -41 26 -60 15 -35 90 -269 129 -405 11 -38 24 -79 29 -90 27 -67 34 -67 -158 -3 -98 32 -187 62 -198 67 -11 5 -67 26 -125 47 l-105 37 -140 141 c-77 78 -266 271 -420 430 -154 158 -326 336 -383 395 -57 58 -179 185 -270 281 -92 96 -238 247 -324 335 -86 88 -207 212 -270 276 -103 107 -199 192 -244 217 -15 9 -16 13 -4 42 13 31 15 32 57 26 54 -7 150 -38 217 -70 55 -26 28 0 821 -811 807 -825 843 -860 888 -883 27 -13 63 -22 91 -22 l46 0 0 35 c0 76 -19 99 -414 506 -89 91 -212 219 -275 285 -63 65 -209 216 -325 334 -631 645 -663 679 -673 720 -3 14 -9 30 -13 35 -10 12 -48 150 -52 187 -2 18 4 32 17 42 26 20 34 20 57 -1z"></path></g></g><g id="lY7F4XrLy83cHspU6vtasd" fill="rgb(135,9,8)" style="transform: none;"><g><path id="pgqgcOsyQ" d="M3885 8018 c-180 -7 -328 -25 -495 -58 -30 -6 -74 -14 -97 -17 -24 -3 -43 -9 -43 -14 0 -5 -18 -9 -40 -9 -22 0 -40 -4 -40 -10 0 -5 -15 -10 -33 -10 -18 0 -37 -4 -42 -9 -6 -5 -21 -11 -35 -13 -14 -1 -28 -6 -31 -10 -3 -5 -17 -9 -32 -10 -15 -1 -27 -5 -27 -8 0 -7 -103 -37 -109 -32 -2 2 -7 -1 -10 -7 -4 -6 -19 -12 -34 -13 -15 -1 -27 -5 -27 -8 0 -7 -49 -28 -75 -32 -11 -2 -22 -5 -25 -8 -13 -13 -90 -48 -132 -60 -27 -8 -48 -18 -48 -22 0 -4 -9 -8 -20 -8 -11 0 -20 -4 -20 -10 0 -5 -9 -10 -20 -10 -11 0 -20 -4 -20 -10 0 -5 -9 -10 -20 -10 -11 0 -20 -4 -20 -10 0 -5 -9 -10 -20 -10 -11 0 -20 -4 -20 -10 0 -5 -9 -10 -19 -10 -10 0 -21 -7 -25 -15 -3 -8 -15 -15 -26 -15 -11 0 -20 -4 -20 -10 0 -5 -20 -18 -43 -29 -24 -11 -50 -27 -57 -36 -7 -8 -18 -15 -25 -15 -7 0 -18 -7 -25 -15 -7 -8 -20 -15 -29 -15 -9 0 -22 -9 -29 -20 -7 -11 -19 -20 -28 -20 -9 0 -25 -12 -36 -26 -11 -14 -27 -23 -34 -20 -8 3 -18 -3 -24 -13 -5 -11 -23 -24 -39 -29 -16 -6 -34 -20 -41 -31 -6 -12 -18 -21 -26 -21 -9 0 -39 -25 -67 -55 -27 -30 -55 -54 -61 -53 -13 2 -482 -469 -478 -481 1 -4 -17 -26 -41 -48 -24 -22 -42 -44 -40 -50 2 -5 -16 -27 -39 -49 -24 -21 -42 -44 -40 -50 1 -7 -8 -21 -21 -31 -13 -10 -22 -23 -20 -30 2 -6 -7 -19 -20 -30 -13 -10 -22 -23 -20 -30 2 -6 -7 -19 -20 -30 -13 -10 -22 -23 -20 -30 2 -6 -7 -19 -20 -30 -13 -10 -22 -24 -20 -30 3 -7 -5 -18 -16 -25 -12 -7 -21 -21 -21 -31 0 -10 -6 -20 -14 -23 -8 -3 -12 -12 -10 -19 3 -8 -4 -20 -15 -27 -12 -7 -21 -21 -21 -30 0 -10 -4 -18 -10 -18 -5 0 -10 -6 -10 -12 0 -16 -82 -182 -92 -186 -5 -2 -8 -12 -8 -23 0 -10 -4 -19 -10 -19 -5 0 -10 -9 -10 -20 0 -11 -4 -20 -8 -20 -4 0 -8 -9 -9 -21 -2 -23 -25 -79 -33 -79 -3 0 -6 -9 -7 -21 -2 -23 -25 -79 -33 -79 -3 0 -7 -12 -8 -27 -1 -15 -7 -30 -13 -34 -6 -3 -10 -10 -9 -15 3 -14 -23 -104 -30 -104 -3 0 -7 -12 -8 -27 -1 -15 -5 -29 -10 -32 -4 -3 -9 -17 -10 -31 -2 -14 -8 -29 -13 -34 -5 -6 -9 -25 -9 -43 0 -18 -4 -33 -10 -33 -5 0 -10 -18 -10 -40 0 -22 -4 -40 -10 -40 -5 0 -10 -17 -10 -38 0 -21 -4 -42 -9 -48 -5 -5 -11 -38 -14 -74 -3 -36 -10 -85 -17 -110 -27 -105 -34 -225 -34 -560 1 -345 8 -487 25 -504 5 -6 9 -34 9 -62 0 -29 4 -56 10 -59 5 -3 10 -26 10 -50 0 -24 5 -47 10 -50 6 -3 10 -24 10 -45 0 -21 4 -40 10 -42 5 -1 10 -20 12 -40 1 -21 6 -38 10 -38 4 0 8 -15 8 -33 0 -18 4 -37 9 -42 5 -6 11 -21 13 -35 1 -14 6 -27 9 -30 4 -3 9 -16 10 -30 2 -14 7 -27 10 -30 4 -3 9 -16 10 -30 2 -14 7 -28 11 -31 5 -3 9 -17 10 -32 1 -15 6 -27 10 -27 4 0 8 -7 8 -15 0 -9 9 -35 20 -57 11 -23 20 -47 20 -52 0 -6 14 -38 30 -71 17 -33 30 -63 30 -68 0 -4 9 -27 20 -49 11 -23 20 -48 20 -55 0 -7 5 -13 10 -13 6 0 10 -9 10 -20 0 -11 3 -20 8 -20 4 0 13 -15 21 -33 8 -17 23 -42 33 -54 11 -12 17 -26 13 -32 -3 -6 -2 -11 4 -11 10 0 41 -55 41 -74 0 -6 9 -17 21 -24 11 -7 18 -19 16 -26 -3 -7 3 -17 13 -24 18 -11 50 -66 50 -86 0 -6 9 -17 20 -24 11 -7 20 -19 20 -28 0 -8 13 -27 30 -41 16 -13 30 -30 30 -37 0 -7 9 -21 20 -31 11 -10 19 -23 18 -29 -2 -7 16 -29 40 -50 23 -22 41 -43 39 -49 -1 -5 21 -32 50 -60 30 -28 52 -54 51 -59 -4 -11 383 -398 398 -398 6 0 29 -19 51 -43 22 -24 44 -42 50 -40 5 2 28 -16 50 -40 22 -24 44 -42 50 -40 6 2 24 -11 40 -30 16 -18 34 -32 39 -30 6 2 19 -6 29 -17 10 -11 23 -20 30 -20 7 0 20 -9 30 -20 10 -11 24 -20 31 -20 7 0 21 -10 31 -23 10 -13 24 -22 30 -20 7 3 18 -5 25 -16 7 -12 18 -21 24 -21 20 0 75 -32 81 -46 3 -8 10 -14 17 -14 17 0 189 -88 201 -102 6 -7 19 -14 30 -16 24 -4 149 -64 153 -74 2 -5 10 -8 18 -8 8 0 22 -4 32 -9 9 -5 35 -14 57 -21 54 -16 95 -34 95 -40 0 -3 12 -7 27 -8 15 -1 29 -5 32 -10 3 -4 17 -9 31 -11 14 -1 28 -7 31 -13 3 -5 10 -9 15 -8 14 3 105 -23 110 -32 3 -4 20 -8 39 -8 19 0 37 -4 40 -10 3 -5 21 -10 40 -10 19 0 36 -4 39 -9 3 -5 23 -11 43 -14 21 -3 63 -11 93 -16 122 -24 179 -32 260 -37 47 -3 95 -10 106 -16 28 -13 686 -3 764 12 30 5 82 14 115 20 33 5 85 14 115 20 30 6 75 14 100 17 25 3 49 9 55 14 5 5 23 9 40 9 17 0 35 4 41 10 5 5 22 11 37 12 15 1 27 6 27 10 0 4 15 8 34 8 19 0 38 5 41 10 3 6 19 10 35 10 15 0 30 4 32 10 2 5 15 11 31 12 15 1 27 6 27 10 0 4 9 8 20 8 11 0 36 9 55 20 20 11 47 21 61 22 13 1 24 5 24 8 0 6 37 22 95 42 22 7 42 15 45 18 10 11 295 150 306 150 7 0 14 6 17 14 5 13 102 66 122 66 5 0 16 9 23 21 7 11 19 18 27 15 7 -2 21 6 30 20 9 14 23 23 30 20 7 -2 21 6 30 20 9 14 22 23 29 22 7 -2 25 12 41 30 15 18 32 31 38 29 6 -2 24 12 40 30 16 19 34 32 40 30 6 -2 28 16 50 40 22 24 45 42 50 40 5 -1 32 21 60 50 27 29 56 53 63 53 15 0 286 274 295 298 4 10 33 42 65 72 32 30 58 60 56 66 -1 6 17 29 41 51 24 22 42 44 40 50 -2 6 11 24 30 40 18 16 32 34 30 40 -2 6 12 23 31 38 20 15 33 32 30 40 -3 7 6 21 20 30 14 9 22 23 20 30 -3 8 4 20 15 27 12 7 21 21 21 31 0 10 6 20 14 23 8 3 12 12 10 19 -3 8 4 20 15 27 12 7 21 20 21 29 0 9 9 24 20 34 11 10 20 24 20 32 0 7 5 13 10 13 6 0 10 9 10 20 0 11 5 20 10 20 6 0 10 6 10 13 0 12 99 217 110 227 3 3 11 23 18 45 20 58 36 95 42 95 3 0 7 11 8 24 1 14 11 41 22 61 11 19 20 44 20 55 0 11 4 20 8 20 4 0 9 12 10 27 1 15 5 29 10 32 4 3 9 17 11 31 1 14 6 27 10 30 3 3 8 16 9 30 2 14 8 27 13 28 5 2 9 17 9 32 0 16 5 32 10 35 6 3 10 21 10 40 0 19 5 37 10 40 6 3 10 21 10 40 0 19 4 36 9 39 4 3 11 27 15 53 4 27 12 73 17 103 44 252 53 359 53 640 0 151 -5 310 -12 370 -7 58 -15 128 -18 155 -3 28 -9 59 -14 70 -5 11 -11 40 -14 65 -11 92 -18 130 -27 136 -5 3 -9 20 -9 39 0 19 -4 37 -10 40 -5 3 -10 21 -10 39 0 17 -4 36 -9 42 -6 5 -11 21 -13 36 -2 15 -7 30 -11 34 -4 4 -7 20 -7 35 0 15 -4 31 -10 34 -5 3 -10 15 -10 25 0 11 -9 35 -20 54 -10 19 -21 46 -24 58 -2 13 -7 32 -10 43 -4 11 -6 24 -6 29 1 5 -2 12 -7 15 -13 10 -33 49 -33 66 0 16 -5 29 -33 80 -9 17 -58 112 -107 212 -50 100 -98 187 -106 194 -8 6 -14 17 -14 24 0 6 -9 20 -20 30 -12 10 -19 24 -16 31 3 7 -2 15 -10 18 -8 3 -14 11 -14 19 0 7 -13 26 -30 42 -16 16 -30 34 -30 40 0 7 -9 20 -20 30 -11 10 -19 23 -17 29 2 5 -12 23 -30 39 -18 16 -33 35 -33 41 0 7 -14 25 -30 41 -17 16 -29 33 -27 38 2 6 -21 32 -50 60 -30 28 -52 54 -51 59 3 8 -390 408 -401 408 -3 0 -29 23 -58 50 -29 28 -56 50 -61 50 -5 0 -25 16 -45 35 -20 19 -40 35 -45 35 -5 0 -21 11 -36 25 -15 14 -29 25 -32 25 -10 0 -114 73 -114 80 0 4 -11 11 -25 14 -14 4 -25 11 -25 16 0 6 -6 10 -14 10 -8 0 -21 6 -28 13 -7 6 -31 21 -52 32 -22 11 -44 25 -50 30 -6 6 -51 30 -99 55 -47 25 -87 48 -87 53 0 4 -6 7 -12 7 -17 0 -202 83 -206 92 -2 5 -12 8 -23 8 -10 0 -19 5 -19 10 0 6 -9 10 -20 10 -11 0 -29 5 -40 10 -11 6 -29 15 -40 20 -11 6 -29 10 -40 10 -11 0 -20 5 -20 10 0 6 -11 10 -23 10 -13 0 -27 3 -31 7 -3 4 -14 8 -22 9 -9 1 -23 6 -32 10 -9 4 -26 9 -37 11 -11 2 -24 8 -29 13 -6 6 -22 10 -37 10 -15 0 -30 4 -33 9 -3 5 -20 11 -38 14 -55 9 -92 18 -113 27 -11 5 -36 11 -55 14 -19 3 -60 10 -90 16 -286 56 -535 73 -885 58z m578 -573 c37 -4 67 -11 67 -16 0 -5 22 -9 49 -9 28 0 53 -4 56 -10 3 -5 26 -10 50 -10 24 0 47 -4 50 -10 3 -5 21 -10 40 -10 19 0 37 -4 40 -10 3 -5 21 -10 40 -10 19 0 37 -4 40 -10 3 -5 22 -10 41 -10 19 0 34 -4 34 -10 0 -5 14 -10 30 -10 17 0 30 -4 30 -10 0 -5 14 -10 30 -10 17 0 30 -4 30 -10 0 -5 14 -10 30 -10 17 0 30 -4 30 -8 0 -4 12 -9 27 -10 15 -1 29 -5 32 -10 3 -4 15 -8 26 -10 11 -2 39 -12 62 -23 24 -10 48 -19 54 -19 6 0 22 -9 36 -20 14 -11 31 -20 38 -20 20 0 76 -31 82 -46 3 -8 14 -14 24 -14 10 0 19 -4 19 -10 0 -5 9 -10 20 -10 11 0 20 -4 20 -10 0 -5 9 -10 20 -10 11 0 23 -6 26 -14 3 -8 12 -12 19 -10 8 3 20 -4 27 -15 7 -12 21 -21 31 -21 10 0 20 -6 23 -14 3 -8 11 -12 19 -10 7 3 21 -6 31 -19 11 -13 24 -22 31 -20 6 2 19 -7 30 -20 10 -13 23 -22 29 -20 6 2 24 -11 39 -29 16 -18 33 -32 40 -30 6 1 20 -7 30 -18 10 -11 24 -20 30 -20 7 0 34 -24 61 -52 27 -29 53 -51 58 -50 12 4 366 -348 366 -363 0 -6 18 -29 40 -50 22 -21 40 -44 40 -50 0 -7 9 -20 20 -30 11 -10 20 -24 20 -32 0 -8 14 -26 30 -40 17 -14 29 -31 27 -37 -2 -6 7 -19 20 -29 13 -11 22 -24 20 -30 -2 -7 7 -20 20 -31 13 -10 22 -24 19 -31 -2 -8 2 -16 10 -19 8 -3 14 -14 14 -25 0 -10 6 -21 14 -24 14 -6 66 -102 66 -124 0 -7 5 -13 10 -13 6 0 10 -9 10 -20 0 -11 5 -20 10 -20 6 0 10 -9 10 -20 0 -11 5 -20 10 -20 6 0 10 -9 10 -20 0 -11 5 -20 10 -20 6 0 10 -9 10 -19 0 -11 3 -21 8 -23 12 -5 53 -92 55 -116 1 -12 4 -22 7 -22 7 0 28 -49 32 -75 2 -11 6 -22 9 -25 4 -3 9 -16 10 -30 2 -14 7 -27 10 -30 4 -3 9 -16 10 -30 2 -14 7 -28 11 -31 5 -3 9 -17 10 -32 1 -15 6 -27 10 -27 4 0 8 -15 8 -34 0 -19 5 -38 10 -41 6 -3 10 -21 10 -40 0 -19 5 -37 10 -40 6 -3 10 -21 10 -40 0 -19 4 -36 9 -39 5 -3 11 -29 15 -58 3 -29 9 -73 12 -98 3 -25 9 -54 14 -65 17 -39 22 -124 22 -435 0 -331 -16 -539 -43 -556 -5 -3 -9 -30 -9 -60 0 -30 -4 -54 -8 -54 -5 0 -9 -21 -11 -46 -1 -25 -11 -61 -21 -80 -11 -19 -20 -48 -20 -64 0 -17 -4 -30 -10 -30 -5 0 -10 -13 -10 -29 0 -17 -4 -33 -10 -36 -5 -3 -10 -19 -10 -35 0 -16 -5 -42 -11 -57 -17 -42 -53 -117 -59 -123 -3 -3 -6 -14 -8 -25 -5 -29 -26 -75 -34 -75 -5 0 -8 -9 -8 -20 0 -11 -4 -20 -10 -20 -5 0 -10 -9 -10 -20 0 -11 -4 -20 -10 -20 -5 0 -10 -9 -10 -20 0 -11 -4 -20 -10 -20 -5 0 -10 -9 -10 -20 0 -11 -4 -20 -10 -20 -5 0 -10 -9 -10 -20 0 -11 -4 -20 -10 -20 -5 0 -10 -6 -10 -12 0 -23 -72 -159 -90 -170 -10 -7 -16 -17 -13 -24 2 -7 -5 -19 -16 -26 -12 -7 -21 -21 -21 -30 0 -10 -9 -23 -20 -30 -11 -7 -20 -20 -20 -30 0 -9 -10 -25 -23 -35 -13 -10 -22 -23 -20 -29 2 -6 -11 -25 -30 -41 -18 -16 -32 -34 -30 -39 2 -5 -10 -23 -27 -39 -16 -16 -30 -33 -30 -38 0 -14 -426 -437 -439 -437 -6 0 -27 -18 -47 -40 -20 -22 -43 -40 -51 -40 -8 0 -24 -11 -35 -25 -11 -14 -26 -25 -35 -25 -8 0 -24 -11 -35 -25 -11 -14 -27 -25 -36 -25 -10 0 -23 -9 -30 -20 -7 -11 -21 -20 -31 -20 -10 0 -21 -7 -25 -15 -3 -8 -13 -15 -23 -15 -10 0 -24 -9 -31 -21 -7 -11 -19 -18 -26 -16 -7 3 -17 -3 -23 -13 -12 -18 -303 -167 -338 -172 -11 -2 -22 -5 -25 -8 -12 -12 -51 -30 -65 -30 -8 0 -30 -9 -49 -19 -18 -11 -44 -21 -57 -23 -13 -2 -27 -6 -30 -10 -3 -5 -17 -9 -32 -10 -15 -1 -27 -5 -27 -8 0 -8 -76 -30 -104 -30 -14 0 -28 -4 -31 -10 -3 -5 -21 -10 -40 -10 -19 0 -36 -4 -39 -9 -3 -4 -25 -11 -48 -15 -24 -3 -67 -10 -95 -16 -29 -5 -77 -14 -105 -20 -201 -38 -593 -44 -848 -15 -247 29 -525 99 -759 192 -109 43 -440 198 -451 212 -3 3 -22 14 -42 25 -20 10 -45 26 -55 35 -10 9 -30 22 -45 30 -16 8 -28 18 -28 23 0 4 -5 8 -11 8 -14 0 -139 91 -139 102 0 4 -6 8 -13 8 -7 0 -30 15 -50 34 -20 18 -48 41 -61 49 -40 27 -407 390 -403 401 2 5 -16 27 -40 49 -24 22 -42 45 -40 50 2 6 -12 24 -30 40 -19 16 -32 35 -30 41 2 6 -7 19 -20 29 -13 11 -22 24 -20 30 2 7 -7 20 -20 30 -13 10 -23 26 -23 35 0 10 -9 23 -21 30 -11 7 -18 19 -15 27 2 7 -2 16 -10 19 -8 3 -14 13 -14 23 0 10 -9 24 -21 31 -12 8 -18 19 -15 28 3 8 1 14 -4 14 -10 0 -40 57 -40 77 0 7 -4 13 -10 13 -5 0 -10 9 -10 20 0 11 -4 20 -10 20 -5 0 -10 9 -10 20 0 11 -4 20 -10 20 -5 0 -10 9 -10 20 0 11 -4 20 -10 20 -5 0 -10 8 -10 18 0 10 -4 22 -9 27 -17 19 -47 80 -60 125 -14 48 -24 75 -42 113 -5 13 -11 29 -13 37 -2 8 -6 23 -10 32 -4 9 -9 22 -10 30 -2 7 -6 21 -10 30 -4 9 -9 22 -10 30 -1 7 -10 30 -19 52 -9 21 -17 55 -17 75 0 20 -4 41 -9 46 -5 6 -11 28 -14 50 -4 22 -11 65 -17 95 -6 30 -13 75 -16 100 -3 25 -9 54 -14 65 -15 33 -21 117 -26 379 -4 170 -2 252 5 259 6 6 11 51 11 102 0 50 4 95 9 101 5 5 12 34 14 64 3 30 11 80 17 110 6 30 13 73 17 95 3 22 9 44 14 50 5 5 9 22 9 37 0 16 4 36 9 46 15 29 31 87 31 110 0 12 4 22 8 22 4 0 9 12 10 27 1 15 5 29 10 32 4 3 9 17 11 31 1 14 6 27 10 30 3 3 7 14 9 25 4 26 25 75 32 75 3 0 6 10 7 22 2 24 83 191 95 196 5 2 8 12 8 23 0 10 5 19 10 19 6 0 10 6 10 13 0 20 30 77 40 77 5 0 7 6 4 13 -3 8 2 20 11 27 9 7 25 33 36 57 11 24 26 47 34 50 8 3 15 14 15 24 0 11 6 22 14 25 8 3 13 11 10 18 -3 7 4 21 16 31 11 10 20 24 20 31 0 6 15 25 33 41 18 16 32 34 30 40 -2 6 11 24 30 40 18 16 32 34 30 39 -2 5 15 27 37 49 22 21 40 44 40 50 0 15 334 347 346 343 5 -2 27 16 48 40 21 23 44 41 51 40 6 -2 24 12 40 30 15 18 33 31 40 30 6 -2 24 12 40 30 15 18 33 31 39 29 6 -2 19 7 29 20 11 13 24 22 30 20 7 -2 20 7 30 20 11 13 24 22 30 20 7 -2 20 7 31 20 10 13 25 22 32 19 8 -3 14 -1 14 4 0 10 57 40 77 40 7 0 13 5 13 10 0 6 9 10 20 10 11 0 20 5 20 10 0 6 9 10 19 10 10 0 21 6 24 14 7 17 65 46 96 49 11 1 21 5 21 9 0 4 9 8 20 8 11 0 20 5 20 10 0 6 9 10 20 10 11 0 20 3 20 8 0 9 53 33 79 35 12 1 21 4 21 8 0 4 8 9 18 12 9 4 49 18 87 31 39 14 81 26 96 26 14 0 29 4 35 10 5 5 22 11 37 12 15 1 27 6 27 10 0 4 18 8 40 8 22 0 40 4 40 9 0 5 19 11 43 14 23 3 67 11 97 17 30 6 79 14 108 17 28 3 52 9 52 14 0 5 26 9 58 9 31 0 64 5 72 10 16 11 584 7 703 -5z"></path><path id="pfUrYO4hY" d="M2398 6085 c-75 -39 -93 -74 -93 -176 0 -78 2 -89 28 -122 15 -20 34 -37 42 -37 7 0 15 -5 17 -10 2 -6 33 -16 70 -22 l67 -12 218 -224 c120 -123 221 -233 225 -244 13 -33 -1 -63 -133 -285 -71 -118 -129 -220 -129 -226 0 -17 139 -157 155 -157 7 0 43 62 80 138 88 176 142 261 175 270 45 12 114 5 204 -22 119 -35 129 -35 121 7 -4 17 -14 50 -21 72 -8 22 -17 81 -20 130 -6 79 -4 92 12 111 41 44 101 80 328 198 37 19 61 38 61 48 0 20 -132 158 -151 158 -15 0 -80 -39 -195 -116 -41 -28 -83 -53 -92 -57 -9 -3 -42 -22 -72 -42 -30 -19 -71 -41 -91 -50 -33 -14 -38 -13 -63 4 -14 10 -122 116 -238 236 l-213 216 0 50 c0 112 -79 190 -192 189 -36 -1 -68 -9 -100 -25z"></path><path id="p48u1Ymiq" d="M3550 5236 l-45 -23 2 -56 c2 -54 37 -201 53 -222 4 -5 10 -21 13 -35 10 -41 42 -75 673 -720 116 -118 262 -269 325 -334 63 -66 186 -194 275 -285 315 -324 366 -380 390 -425 13 -25 24 -48 24 -51 0 -11 -35 -4 -77 17 -45 23 -81 58 -888 883 -793 811 -766 785 -821 811 -102 48 -260 88 -304 77 -20 -5 -50 -63 -50 -97 0 -16 16 -33 58 -62 68 -47 343 -321 804 -804 91 -96 213 -223 270 -281 57 -59 229 -237 383 -395 154 -159 343 -352 420 -430 l140 -141 105 -37 c58 -21 114 -42 125 -47 44 -19 414 -139 429 -139 9 0 16 8 16 18 0 19 -17 87 -29 117 -5 11 -18 52 -29 90 -39 136 -114 370 -129 405 -8 19 -20 46 -26 60 -13 27 -250 271 -1008 1035 -806 812 -988 1002 -989 1030 -1 13 -47 65 -57 65 -4 0 -28 -11 -53 -24z"></path></g></g></svg>
