<svg xmlns="http://www.w3.org/2000/svg" width="1024" height="1024" class="img-fluid" style="transform:none;transform-origin:50% 50%;cursor:move" viewBox="0 0 10240 10240"><g fill="#be1b1d" style="transform:none"><path d="M4612 9620c-917-50-1807-393-2537-981-886-714-1467-1696-1644-2784-41-252-46-330-46-730 1-344 4-409 23-555 30-221 45-304 97-510 164-657 469-1254 913-1790 124-150 435-460 587-586 126-104 289-225 390-289 33-21 92-60 130-85 144-97 512-285 715-365 352-139 742-238 1105-280 178-20 859-21 1030-1 526 63 996 205 1470 446 579 294 1048 669 1476 1180 348 417 640 945 809 1465 127 390 192 751 210 1175 16 375-11 759-76 1080-213 1065-835 2047-1713 2709-458 345-965 598-1502 751-463 132-908 178-1437 150m634-745c858-106 1633-485 2250-1100 525-523 889-1203 1033-1930 54-274 65-384 65-690 1-361-27-594-111-920-270-1058-1014-1984-1979-2468-538-270-1160-412-1724-394-631 21-1230 197-1784 527-873 518-1502 1366-1756 2365-85 333-115 602-107 955 8 323 33 518 107 805 260 1021 930 1885 1863 2405 481 267 1020 423 1607 464 99 7 419-4 536-19"/><path d="M6719 7842c-122-32-212-104-321-257-80-113-152-301-184-480-30-171-24-455 16-755 50-376 36-549-60-772-100-231-263-383-453-422-93-19-107-33-107-113 0-44 6-76 20-104 25-48 30-39-109-190-95-103-101-112-101-152 0-41 4-46 114-149 151-143 143-143 274 5 115 129 189 202 215 210 10 4 50-11 102-38 73-39 93-45 144-45 52 0 62 3 80 26 17 22 21 41 21 109v83l90 184c151 310 193 487 194 823 0 237-8 302-79 605-59 252-75 348-75 462 0 217 86 437 231 593 92 98 183 151 316 185 60 15 73 32 73 95 0 45-4 57-25 74-55 43-252 55-376 23M5075 7175c-621-157-1217-306-1322-332l-193-47v-36c0-28 8-44 33-68 29-28 39-32 89-32 41 0 380 81 1215 291 637 160 1198 301 1247 313l88 22 19 50c11 27 19 66 19 87 0 35-2 37-32 36-18 0-541-128-1163-284"/><path d="M3175 6978c-2-7-6-89-10-183-3-93-10-174-14-178s-79-13-167-18c-215-14-204-11-204-61 0-42 1-44 271-308 149-146 283-272 298-280 19-11 64-16 175-17l149-3 91-86c160-153 2376-2339 2376-2344 0-3-35-23-78-45l-77-40-3-47c-3-40 0-49 20-61 18-12 482-222 735-333 17-8 52-14 77-14h46v36c0 36-84 236-260 619-116 253-112 247-158 243-36-3-39-6-83-92l-47-90-253 245c-140 134-519 507-844 829-324 322-765 758-980 969l-390 385-6 140c-4 78-12 155-18 171-7 17-134 153-284 303-271 272-272 272-315 272-25 0-44-5-47-12M2870 4770V3230h41c24 0 55 8 74 20 27 16 33 28 39 66 3 26 6 688 6 1471v1424l-46 49c-38 41-53 50-80 50h-34z"/><path d="m5121 4306-63-64-34 14c-18 8-60 14-92 14-78 0-88-12-96-120-4-47-14-110-22-139-62-220-282-428-557-526-144-51-235-65-507-75-331-12-449-35-634-120-97-44-176-96-276-180-177-148-237-277-227-485 6-114 26-180 66-219 25-24 35-27 82-24 52 3 53 4 60 38 24 121 34 153 67 220 27 56 58 97 122 161 153 155 320 238 541 269 71 10 119 9 285-5 263-23 473-23 583 0 188 38 423 138 588 248 37 25 111 80 163 122 106 85 120 93 205 107 116 19 135 36 135 123 0 33-8 54-35 91-88 123-105 150-105 170 0 23 48 100 80 129 14 13 20 31 20 61 0 41-4 46-111 148-140 133-147 134-238 42"/></g><g style="transform:none"><path d="M4520 9759c-471-37-962-155-1390-334-137-57-482-231-595-300-615-372-1140-869-1526-1448-186-280-287-465-413-760-174-408-281-807-342-1287-21-161-30-673-15-841 77-859 377-1664 876-2349 54-74 141-187 193-250 114-137 427-453 567-571 662-560 1418-919 2243-1063 269-47 417-60 727-60 325-1 450 9 750 59 776 130 1485 449 2120 954 611 485 1103 1126 1402 1826 186 434 288 818 350 1315 25 208 25 774 0 980-44 354-105 626-211 944-172 516-439 1003-781 1429-812 1008-1974 1639-3225 1752-176 16-552 18-730 4m857-188c752-91 1505-401 2144-882 409-308 755-676 1044-1109 388-582 630-1219 715-1883 21-168 41-515 35-607-2-30-7-123-10-206-11-335-86-734-205-1099-296-908-899-1723-1695-2290-196-140-358-238-590-355-474-241-944-383-1470-446-170-20-793-19-970 1-363 42-753 141-1105 280-203 80-571 268-715 365-38 25-97 64-130 85-101 64-264 185-390 289-152 126-463 436-587 586-444 536-749 1133-913 1790-52 207-67 289-97 510-19 143-22 212-22 525-1 368 4 451 45 700 177 1088 758 2070 1644 2784 730 588 1619 931 2537 981 240 12 536 5 735-19"/><path d="M4680 8924c-589-41-1126-197-1607-464-933-520-1603-1384-1863-2405-76-299-100-481-107-835-4-228-2-316 11-439 23-211 51-369 96-546 254-999 883-1847 1756-2365 565-336 1162-509 1814-527 1353-36 2615 676 3323 1874 225 381 392 825 466 1238 47 265 56 377 55 700 0 338-9 439-65 720-144 727-508 1407-1033 1930-618 616-1390 993-2254 1101-115 14-485 25-592 18m2355-1120c47-23 60-43 52-76-7-27-17-32-134-68-178-54-338-222-424-444-44-113-59-202-59-344 0-144 13-229 75-492 68-292 79-371 78-575 0-306-46-494-195-795l-91-185 1-82c1-68-2-85-19-107-30-38-65-33-166 20-146 77-156 72-375-173l-100-113-114 108c-62 59-114 113-114 120 0 8 28 44 63 80 122 129 177 196 177 214 0 10-11 41-25 68-30 60-32 110-5 135 10 9 50 24 87 31 190 39 353 191 453 422 62 145 81 235 87 422 5 147 2 191-27 410-39 296-45 530-16 695 31 179 104 367 184 480 148 207 275 280 478 272 64-3 103-10 129-23m-814-438-19-50-88-22c-49-12-610-153-1247-313s-1171-291-1186-291c-18 0-39 12-61 35-18 19-32 36-29 38 2 2 362 93 799 202s1031 258 1320 331 526 130 527 126c2-4-5-29-16-56m-2714-678c150-150 277-286 284-303 6-16 14-93 18-171l6-140 390-385c215-211 656-647 980-969 678-673 1120-1100 1138-1100 7 0 27 33 45 73 18 39 41 87 53 106 17 29 22 32 34 20 21-21 375-799 375-823 0-10-31-6-63 8-319 140-735 331-746 341-24 24-4 44 94 92 52 26 95 50 95 53 0 5-2231 2206-2420 2388l-95 91-120-6c-189-9-164-24-481 285-150 146-276 273-279 280-3 8-3 17 0 21 3 3 85 11 182 18 97 6 179 16 184 20 4 4 11 85 14 178 7 186 8 195 27 195 7 0 136-123 285-272m-507-1900c0-766-3-1414-6-1440-6-40-12-51-39-68-18-11-37-20-44-20-8 0-11 393-11 1513v1512l50-52 50-51zm2358-583c45-44 82-83 82-87 0-5-20-33-44-62-84-103-82-154 7-271 71-93 80-110 72-146-8-37-32-49-120-65-97-17-107-22-215-109-189-151-356-246-551-313-230-79-342-88-734-56-187 15-234 16-319 5-229-29-398-111-556-270-64-64-95-105-122-161-33-67-43-98-67-220-9-47-42-52-82-14-82 78-89 297-15 442 67 130 263 295 452 382 185 85 303 108 634 120 272 10 363 24 507 75 275 98 495 306 557 526 8 29 18 92 22 139 4 54 12 91 22 103 20 22 66 21 121-3 24-11 51-18 60-15s45 34 81 70l64 65 31-27c16-15 67-64 113-108"/></g></svg>