<svg class="img-fluid" id="outputsvg" xmlns="http://www.w3.org/2000/svg" style="transform: none; transform-origin: 50% 50%; cursor: move;" width="1024" height="1024" viewBox="0 0 10240 10240"><g id="l3xHv2mJWmcZ9NqpFQFl0Md" fill="rgb(0,0,0)" style="transform: none;"><g><path id="p8UEAgIwz" d="M4615 9763 c-708 -36 -1436 -260 -2075 -638 -601 -356 -1151 -877 -1535 -1455 -348 -523 -588 -1108 -695 -1694 -62 -342 -80 -526 -80 -838 0 -239 11 -401 41 -613 123 -858 453 -1611 1010 -2300 605 -748 1507 -1335 2419 -1575 445 -116 783 -156 1258 -147 294 5 401 15 682 63 611 103 1231 354 1770 717 730 492 1328 1201 1681 1995 255 570 381 1131 396 1757 19 786 -161 1545 -530 2235 -220 411 -457 734 -785 1071 -400 411 -842 731 -1347 975 -212 102 -295 137 -515 212 -548 187 -1111 265 -1695 235z m460 -203 c799 -47 1534 -299 2213 -757 563 -381 1039 -882 1372 -1448 346 -587 544 -1187 605 -1829 35 -376 10 -856 -64 -1217 -299 -1450 -1317 -2691 -2681 -3268 -374 -158 -791 -267 -1205 -316 -153 -18 -654 -20 -840 -5 -846 73 -1704 438 -2420 1031 -152 126 -498 477 -618 628 -464 582 -758 1193 -911 1891 -154 702 -108 1484 129 2196 124 372 325 784 535 1094 68 102 241 327 326 426 135 157 434 445 599 578 159 128 454 330 613 420 602 342 1253 537 1917 576 195 11 244 11 430 0z"></path><path id="p1ELGhKk7P" d="M4495 8945 c-743 -74 -1421 -354 -2020 -833 -156 -125 -444 -414 -571 -572 -597 -748 -889 -1647 -844 -2596 34 -711 241 -1338 647 -1952 531 -804 1396 -1399 2338 -1606 281 -62 511 -86 821 -86 806 0 1545 237 2205 707 168 120 304 236 475 409 539 543 906 1216 1048 1924 58 288 70 420 71 765 0 337 -8 450 -50 701 -106 632 -403 1271 -828 1784 -98 118 -321 344 -446 453 -459 396 -1010 680 -1591 818 -159 38 -389 75 -553 88 -169 14 -539 12 -702 -4z m536 -1243 c438 -350 653 -586 914 -1002 337 -537 473 -833 629 -1375 85 -296 135 -556 173 -905 21 -198 23 -645 4 -856 l-14 -152 -116 -17 c-374 -55 -1107 -304 -1638 -555 l-133 -63 -72 33 c-380 173 -591 256 -1003 397 -104 36 -203 71 -220 77 -50 21 -474 122 -589 141 l-39 6 6 332 c5 339 13 433 63 777 52 360 191 915 302 1212 155 411 422 912 621 1163 195 246 575 627 766 769 66 49 134 99 150 112 17 13 35 23 40 23 6 1 76 -52 156 -117z"></path><path id="p10UrJDHNr" d="M4794 7304 c-69 -46 -145 -114 -297 -263 -438 -430 -717 -889 -920 -1516 -106 -325 -175 -672 -212 -1061 -15 -159 -26 -636 -14 -648 3 -3 37 -13 75 -22 506 -117 784 -212 1183 -405 265 -129 244 -128 485 -10 362 177 713 300 1129 396 65 15 124 34 132 42 18 18 20 206 5 483 -39 701 -187 1293 -456 1829 -196 390 -465 743 -784 1026 -211 188 -245 203 -326 149z m256 -401 c472 -456 773 -981 954 -1665 90 -338 140 -687 153 -1063 l6 -190 -120 -28 c-344 -79 -790 -240 -1105 -398 l-78 -39 -121 60 c-280 141 -682 287 -1016 371 l-173 43 0 61 c0 107 20 356 41 525 125 1005 517 1810 1162 2391 89 80 113 97 127 89 10 -5 86 -76 170 -157z"></path></g></g><g id="l5JGzmQB4scFNeKPb4TDDJj" fill="rgb(69,142,199)" style="transform: none;"><g><path id="plJ5EA6Ij" d="M4615 9590 c-664 -39 -1315 -234 -1917 -576 -159 -90 -454 -292 -613 -420 -165 -133 -464 -421 -599 -578 -248 -288 -456 -605 -626 -951 -176 -359 -296 -709 -374 -1095 -110 -542 -106 -1200 10 -1730 153 -698 447 -1309 911 -1891 120 -151 466 -502 618 -628 716 -593 1574 -958 2420 -1031 188 -16 746 -13 900 5 1295 152 2457 866 3204 1970 370 546 623 1185 716 1807 47 308 59 773 30 1084 -61 642 -259 1242 -605 1829 -487 826 -1269 1503 -2176 1884 -589 247 -1248 358 -1899 321z m552 -671 c367 -30 729 -116 1072 -253 883 -354 1614 -1039 2026 -1900 196 -408 306 -797 357 -1251 8 -73 13 -233 13 -410 -1 -312 -15 -456 -71 -735 -117 -582 -382 -1133 -788 -1638 -120 -150 -382 -417 -526 -535 -363 -298 -771 -526 -1207 -673 -929 -313 -1925 -247 -2801 186 -192 94 -333 176 -482 278 -1090 747 -1734 2021 -1669 3307 36 716 249 1355 653 1955 254 378 609 738 991 1005 522 366 1148 596 1790 660 164 16 475 18 642 4z"></path><path id="pOCAettVB" d="M4815 7833 c-240 -177 -299 -227 -474 -398 -251 -245 -440 -460 -548 -620 -181 -271 -399 -699 -525 -1033 -111 -297 -250 -852 -302 -1212 -52 -355 -58 -435 -63 -807 l-6 -362 39 -6 c115 -19 539 -120 589 -141 17 -6 116 -41 220 -77 407 -139 686 -250 989 -391 54 -25 106 -46 116 -46 9 0 82 31 161 69 522 249 1264 500 1640 556 l116 17 14 157 c20 221 17 712 -4 911 -56 511 -165 960 -344 1420 -138 351 -473 926 -727 1245 -98 123 -342 367 -496 496 -156 131 -322 259 -335 259 -5 0 -32 -17 -60 -37z m114 -572 c93 -70 268 -231 369 -340 259 -280 418 -507 576 -822 269 -536 417 -1128 456 -1829 15 -271 13 -405 -5 -423 -8 -8 -67 -27 -132 -42 -416 -96 -767 -219 -1129 -396 -100 -49 -190 -89 -201 -89 -11 0 -112 44 -224 99 -399 193 -677 288 -1183 405 -38 9 -72 19 -75 22 -3 3 -5 101 -3 217 10 819 224 1633 592 2250 77 130 209 313 321 447 166 200 531 540 579 540 3 0 30 -18 59 -39z"></path><path id="pHcnIShnY" d="M4798 7068 c-108 -88 -369 -358 -462 -478 -420 -541 -677 -1198 -775 -1980 -23 -186 -41 -421 -41 -555 l0 -91 171 -43 c348 -87 678 -207 991 -358 l178 -86 137 66 c354 169 735 305 1076 384 l120 28 -6 220 c-14 493 -87 922 -233 1363 -164 496 -427 938 -769 1291 -112 116 -302 291 -316 291 -5 0 -36 -23 -71 -52z"></path></g></g></svg>
