<svg class="img-fluid" id="outputsvg" xmlns="http://www.w3.org/2000/svg"
     style="transform: none; transform-origin: 50% 50%; cursor: move; max-height: none;" width="1120" height="960"
     viewBox="0 0 11200 9600">

    <g id="l7mnto4Hh10ITkz1xE6nUyS" fill="#FFFFFF" style="transform: none;">
        <g style="transform: none;">
            <path id="p1BfgPe3ww"
                  d="M2700 8316 c0 -41 7 -47 1356 -1152 269 -220 568 -466 664 -545 539 -442 547 -449 596 -449 44 0 44 0 44 36 0 19 -27 149 -61 287 -33 139 -76 320 -95 402 -19 83 -37 158 -40 168 -5 17 40 18 1013 15 l1018 -3 79 -23 c291 -82 519 -316 624 -642 153 -471 30 -821 -324 -926 -53 -16 -121 -18 -676 -21 l-618 -4 0 -34 c0 -32 8 -41 106 -117 59 -46 154 -117 213 -160 58 -42 134 -100 169 -130 35 -29 78 -61 97 -70 18 -10 60 -42 92 -71 71 -64 138 -117 150 -117 4 0 36 -25 71 -55 34 -30 93 -74 130 -98 37 -24 76 -54 86 -65 11 -12 23 -22 28 -22 4 0 41 -27 81 -61 39 -33 97 -77 127 -98 83 -55 163 -116 184 -139 10 -12 55 -39 100 -61 248 -120 431 -400 482 -733 47 -308 -76 -531 -341 -619 l-70 -24 -925 -3 c-709 -2 -930 0 -948 9 -13 7 -26 28 -31 48 -5 20 -37 151 -71 291 -34 140 -66 272 -71 293 -9 32 -13 37 -40 37 -30 0 -116 -73 -964 -820 -126 -111 -275 -242 -330 -290 -163 -142 -527 -462 -739 -649 l-197 -174 3 -41 3 -41 2255 -3 c1492 -2 2324 1 2460 8 757 39 1194 242 1448 675 77 131 131 291 164 485 19 115 16 479 -6 620 -58 379 -199 724 -410 1005 -185 248 -402 428 -692 575 l-72 36 62 33 c96 53 186 123 275 216 192 200 293 435 332 775 15 131 6 467 -15 605 -76 479 -266 868 -589 1202 -117 121 -255 240 -328 283 -23 14 -58 36 -78 49 -58 39 -303 159 -389 190 -93 35 -263 84 -346 101 -224 46 -79 43 -2638 47 l-2408 3 0 -34z"></path>
        </g>
    </g>

    <g id="l582nNuCIgUaleoK8e96zh1" fill="rgb(10,41,89)" style="transform: none;">
        <g style="transform: none;">
            <path id="pylRMwrxN"
                  d="M1120 8882 c0 -38 5 -43 233 -244 127 -113 356 -317 507 -455 151 -137 412 -372 580 -522 l305 -273 212 -841 c117 -463 213 -847 213 -854 0 -6 -10 -15 -22 -18 -30 -9 -147 -54 -563 -216 -187 -72 -455 -177 -595 -231 -140 -55 -328 -127 -418 -161 l-163 -62 3 -38 3 -38 320 -143 c176 -79 473 -213 660 -298 187 -85 534 -241 770 -347 l431 -193 173 -696 c113 -451 171 -699 165 -708 -5 -7 -106 -97 -224 -200 -118 -104 -296 -260 -396 -349 -99 -88 -229 -203 -290 -256 -60 -53 -172 -152 -249 -220 -78 -68 -241 -212 -363 -319 -212 -185 -222 -196 -222 -230 0 -20 5 -41 12 -48 9 -9 737 -12 3213 -12 3482 0 3285 -3 3586 56 281 54 606 190 818 342 247 176 453 423 582 700 286 607 243 1466 -108 2166 -123 245 -242 412 -436 610 -106 109 -116 123 -105 141 6 11 30 49 52 85 122 199 209 448 253 725 22 138 25 565 5 725 -74 597 -314 1147 -673 1544 -111 122 -281 278 -399 364 -380 281 -775 442 -1285 524 l-140 23 -3222 2 -3223 3 0 -38z m6451 -584 c200 -37 343 -74 491 -129 86 -31 331 -151 389 -190 20 -13 55 -35 78 -49 176 -103 469 -412 618 -651 277 -443 391 -1081 282 -1574 -54 -242 -145 -418 -300 -580 -97 -101 -181 -165 -302 -230 -85 -46 -87 -48 -71 -66 9 -11 24 -19 34 -19 9 0 45 -15 80 -33 293 -152 502 -326 686 -572 211 -281 352 -627 410 -1005 22 -139 25 -448 6 -560 -32 -192 -87 -354 -164 -485 -254 -433 -691 -636 -1448 -675 -289 -15 -4652 -9 -4657 6 -2 6 85 89 194 185 352 311 726 639 838 736 61 53 218 191 350 308 693 613 810 713 817 696 4 -9 37 -140 74 -291 36 -151 70 -291 75 -311 5 -20 18 -41 31 -48 18 -9 246 -11 978 -9 l955 3 70 24 c268 89 387 314 345 647 -17 134 -51 250 -110 369 -93 188 -218 319 -377 396 -45 22 -87 46 -93 54 -11 13 -160 15 -1101 15 l-1089 0 0 -32 c0 -18 16 -94 35 -168 32 -127 33 -136 17 -152 -18 -18 -21 -20 -642 -563 -228 -200 -451 -394 -495 -433 -44 -39 -83 -67 -86 -64 -7 7 -371 1473 -385 1545 -6 34 -12 41 -53 59 -25 11 -59 25 -76 33 -35 15 -179 76 -315 133 -52 22 -213 90 -358 151 -144 62 -272 116 -284 120 -18 7 -9 12 53 34 68 23 689 247 787 283 34 13 42 20 42 41 0 13 -66 286 -146 606 -296 1176 -313 1248 -290 1229 12 -9 188 -151 391 -314 204 -163 523 -420 710 -570 187 -150 487 -391 667 -536 l326 -262 387 0 c337 0 386 2 375 15 -10 12 68 14 607 18 556 3 624 5 677 21 199 59 324 191 372 392 22 93 22 290 0 409 -80 427 -326 730 -672 827 l-79 23 -1052 3 c-655 2 -1053 -1 -1053 -7 0 -9 54 -242 154 -658 31 -128 56 -234 56 -237 0 -29 -72 26 -580 443 -96 79 -395 325 -664 545 -693 568 -748 613 -1069 879 -158 131 -287 241 -287 243 0 2 1070 3 2378 1 2104 -3 2387 -5 2463 -19z"></path>
        </g>
    </g>
    <g id="l1J4pfmXQNBr2JWYkaodFwl" fill="rgb(34,211,238)" style="transform: none;">
        <g style="transform: none;">
            <path id="pCnaXMbPe"
                  d="M500 9253 c-105 -4 -133 -18 -145 -74 -15 -69 -9 -76 318 -367 171 -152 377 -335 457 -406 339 -302 542 -487 654 -596 398 -387 642 -792 806 -1335 47 -155 129 -476 145 -566 l7 -36 -199 -78 c-109 -43 -567 -225 -1018 -405 -451 -180 -852 -340 -892 -355 -40 -15 -70 -32 -66 -38 3 -5 42 -27 87 -47 1240 -576 1433 -671 2231 -1098 329 -176 356 -192 353 -214 -3 -15 -229 -217 -761 -678 -100 -86 -166 -151 -165 -160 3 -13 78 -16 587 -20 l584 -5 23 -85 c12 -47 20 -88 18 -92 -3 -4 -150 -135 -327 -290 -177 -155 -450 -395 -607 -532 -442 -388 -560 -491 -925 -810 -137 -120 -260 -229 -273 -243 -29 -32 -30 -91 -1 -127 l20 -26 3523 0 c2277 0 3569 4 3652 10 530 42 1015 197 1364 438 533 367 861 911 956 1587 23 163 23 486 0 659 -83 633 -308 1155 -690 1601 -83 97 -83 96 -40 170 37 64 109 253 142 371 121 432 129 865 26 1374 -98 478 -317 951 -611 1319 -81 102 -354 377 -444 449 -30 24 -86 70 -125 102 -40 33 -79 60 -87 60 -9 0 -35 15 -59 33 -81 62 -143 102 -208 135 -36 18 -81 42 -100 52 -19 10 -64 27 -99 39 -36 12 -72 27 -80 35 -9 8 -42 23 -74 34 -32 11 -63 24 -70 31 -6 6 -17 11 -24 11 -7 0 -39 8 -70 19 -160 52 -199 63 -333 89 -234 47 -265 52 -373 62 -93 8 -6851 11 -7087 3z m7175 -391 c509 -82 905 -243 1285 -524 118 -86 288 -242 399 -364 308 -341 533 -801 631 -1294 45 -223 55 -334 55 -580 -1 -225 -12 -341 -50 -510 -44 -194 -150 -445 -257 -608 l-55 -83 131 -132 c260 -263 431 -531 565 -890 268 -715 231 -1475 -99 -2012 -119 -195 -305 -395 -491 -527 -212 -152 -537 -288 -818 -342 -301 -59 -106 -56 -3557 -56 -2918 0 -3173 1 -3185 16 -12 14 -9 20 17 43 17 14 156 136 310 271 153 135 319 281 369 325 131 115 212 186 465 411 124 109 309 273 411 362 l186 163 -181 723 -180 724 -431 193 c-236 106 -583 262 -770 347 -187 85 -484 219 -660 298 -176 79 -321 147 -322 151 -2 4 70 36 160 70 89 34 277 106 417 161 140 54 408 159 595 231 187 73 387 150 445 172 150 57 150 57 150 76 0 10 -98 406 -218 880 l-217 861 -305 273 c-168 150 -429 385 -580 522 -151 138 -380 342 -507 455 -128 113 -233 209 -233 214 0 5 1421 7 3193 5 l3192 -2 140 -23z"></path>
            <path id="p3pUyV2Cv"
                  d="M3384 7183 c3 -10 111 -441 240 -958 129 -517 238 -948 241 -957 5 -12 -4 -20 -37 -32 -133 -49 -728 -263 -816 -293 -57 -19 -101 -40 -100 -45 2 -6 26 -19 53 -30 28 -11 167 -69 310 -130 143 -61 303 -128 355 -150 140 -58 281 -118 316 -134 18 -7 51 -22 74 -32 l43 -18 136 -554 c76 -305 166 -673 202 -817 35 -145 67 -263 70 -263 4 0 83 67 175 148 93 82 331 290 529 463 637 556 596 517 589 548 -11 49 -65 266 -70 284 -5 16 51 17 1082 17 l1087 0 -19 21 c-21 24 -100 84 -184 140 -30 21 -88 65 -127 98 -40 34 -77 61 -81 61 -5 0 -17 10 -28 22 -10 11 -49 41 -86 65 -37 24 -96 68 -130 98 -35 30 -67 55 -71 55 -12 0 -79 53 -150 117 -32 29 -75 62 -95 73 -20 10 -65 43 -98 72 -34 29 -111 88 -170 131 -60 42 -158 115 -217 162 l-108 85 -355 0 -356 0 -326 262 c-180 145 -480 386 -667 536 -187 150 -495 398 -685 550 -190 152 -385 309 -433 349 -48 40 -90 73 -93 73 -3 0 -3 -8 0 -17z"></path>
        </g>
    </g>
</svg>
