<svg class="img-fluid" id="outputsvg" xmlns="http://www.w3.org/2000/svg"
     style="transform: none; transform-origin: 50% 50%; cursor: move; max-height: none;" width="1120" height="960"
     viewBox="0 0 11200 9600">
    <g id="lwu7wxH7TTxVEWiuW7q9xP" fill="rgb(12,29,62)" style="transform: none;">
        <g>
            <path id="pkZB6Ealr"
                  d="M0 4800 l0 -4800 5600 0 5600 0 0 4800 0 4800 -5600 0 -5600 0 0 -4800z m7550 4375 c783 -73 1476 -406 1987 -955 337 -362 577 -810 701 -1305 130 -518 145 -972 47 -1385 -37 -154 -90 -311 -146 -429 -69 -146 -68 -159 23 -261 411 -459 689 -1240 689 -1934 0 -811 -373 -1507 -1014 -1894 -325 -196 -753 -330 -1157 -363 -82 -6 -1347 -9 -3695 -7 l-3571 3 151 137 c179 163 451 405 1285 1146 726 645 730 649 730 679 0 26 -38 169 -52 196 -8 16 -45 17 -556 17 l-547 0 55 53 c31 28 195 182 365 342 520 486 506 472 503 518 l-3 40 -170 77 c-460 209 -624 283 -910 415 -468 215 -649 298 -765 350 -58 26 -116 53 -130 60 -14 7 -162 75 -330 151 -168 75 -325 147 -349 159 l-43 22 78 28 c44 15 324 120 624 233 300 112 718 269 930 348 212 80 415 156 453 170 l67 26 0 45 c0 25 -18 111 -40 192 -80 298 -148 603 -220 996 -22 121 -43 227 -46 235 -3 8 -190 184 -416 390 -784 716 -1306 1196 -1633 1502 -19 17 77 18 3465 18 2971 0 3508 -2 3640 -15z"></path>
            <path id="pltVr5hmQ"
                  d="M1188 8933 l-58 -4 0 -34 c0 -30 18 -50 232 -247 448 -412 756 -694 1064 -975 l312 -283 37 -158 c80 -339 338 -1362 380 -1503 l13 -47 -116 -42 c-65 -24 -272 -102 -462 -173 -336 -126 -578 -216 -945 -351 -99 -37 -199 -74 -222 -83 -40 -15 -43 -18 -43 -53 0 -21 6 -42 13 -48 10 -8 688 -319 1117 -513 58 -26 249 -113 425 -194 176 -81 392 -178 480 -217 88 -38 165 -75 171 -82 6 -6 48 -164 92 -351 44 -187 115 -482 158 -655 42 -173 79 -324 81 -336 4 -17 -45 -64 -254 -250 -839 -747 -1262 -1122 -1375 -1222 -116 -102 -128 -116 -128 -146 0 -19 6 -39 14 -45 10 -8 877 -11 3352 -9 l3339 3 140 32 c447 100 768 261 1034 518 158 153 259 295 360 505 138 288 191 551 191 943 0 295 -20 457 -90 732 -94 373 -264 730 -460 970 -32 39 -109 120 -172 180 l-114 110 38 60 c152 241 256 560 289 890 14 146 6 479 -16 645 -132 986 -668 1746 -1520 2156 -282 136 -547 209 -920 256 -169 21 -179 21 -3275 23 -1708 1 -3131 0 -3162 -2z m6213 -654 c600 -47 1147 -314 1507 -734 279 -327 447 -703 518 -1165 25 -156 24 -410 0 -545 -58 -323 -200 -573 -437 -770 -84 -70 -258 -185 -279 -185 -7 0 -10 -17 -8 -42 3 -47 -7 -39 148 -112 196 -92 328 -185 493 -345 222 -217 388 -487 491 -801 188 -573 146 -1110 -114 -1478 -176 -249 -449 -419 -815 -505 -273 -65 -99 -61 -2725 -64 -1320 -2 -2380 0 -2375 5 6 5 100 87 210 183 205 179 277 242 1025 894 239 208 527 460 640 558 112 99 205 176 207 171 1 -5 34 -144 73 -308 39 -165 75 -305 82 -313 9 -12 170 -13 992 -11 977 3 981 3 1059 25 243 69 366 229 383 501 27 403 -180 819 -476 958 -105 50 -109 52 -191 115 -41 31 -157 116 -259 189 -171 124 -628 460 -985 725 -82 61 -168 124 -191 141 l-41 29 586 0 c533 0 593 2 666 18 176 41 310 140 378 281 53 109 62 159 62 356 0 146 -4 192 -23 279 -59 265 -179 476 -359 632 -81 70 -173 120 -288 156 l-90 28 -1090 0 -1090 0 -3 -26 c-2 -21 172 -773 194 -839 3 -9 -3 -7 -18 6 -25 22 -403 338 -528 440 -41 34 -250 207 -465 386 -425 353 -714 593 -1130 938 -148 123 -274 227 -279 232 -15 12 4382 10 4545 -3z m-3170 -1811 c178 -141 365 -288 414 -327 50 -39 178 -140 285 -224 592 -465 1402 -1076 1984 -1494 l198 -143 -747 0 -747 0 4 -57 c2 -32 21 -116 43 -187 l38 -129 -29 -25 c-77 -64 -302 -259 -424 -367 -112 -98 -559 -490 -712 -623 -21 -19 -38 -32 -38 -30 -1 2 -90 356 -198 786 l-197 784 -245 102 c-729 305 -859 361 -852 367 7 6 34 16 532 184 151 52 296 101 323 110 45 16 47 18 47 55 0 22 -29 151 -64 287 -36 136 -110 426 -166 643 -56 217 -130 508 -166 646 -35 138 -64 254 -64 257 0 3 103 -77 228 -176 126 -100 375 -298 553 -439z"></path>
            <path id="p1FPPw1wz3"
                  d="M3148 3344 c-174 -160 -214 -201 -216 -226 -6 -58 -6 -58 299 -58 l279 0 0 48 c0 26 -16 130 -35 232 -19 102 -35 188 -35 193 0 4 -18 7 -40 7 -38 0 -50 -9 -252 -196z"></path>
        </g>
    </g>
    <g id="l6he6imseLkCKoYUbi8aYdP" fill="rgb(254,254,254)" style="transform: none;">
        <g>
            <path id="piXmGC1Lt"
                  d="M2760 8306 c8 -7 150 -125 315 -262 434 -359 720 -596 1155 -959 212 -176 432 -358 489 -405 57 -47 210 -174 340 -282 207 -173 272 -219 271 -190 -1 4 -49 207 -109 452 -60 245 -105 449 -101 453 4 4 481 6 1061 5 l1054 -3 90 -28 c115 -36 207 -86 288 -156 180 -156 300 -368 358 -632 28 -124 33 -357 10 -449 -51 -210 -204 -356 -426 -407 -73 -16 -135 -18 -703 -18 -342 0 -622 -1 -622 -2 0 -2 33 -27 73 -56 39 -30 142 -105 227 -169 401 -297 822 -606 990 -728 102 -73 218 -158 259 -189 82 -63 86 -65 191 -115 240 -113 430 -416 470 -751 14 -120 6 -224 -25 -322 -54 -170 -164 -273 -352 -326 -78 -21 -83 -22 -1029 -25 -802 -2 -953 -1 -962 11 -7 8 -46 160 -88 338 -42 178 -78 326 -80 328 -2 3 -17 -7 -32 -21 -28 -26 -314 -276 -942 -823 -650 -567 -743 -648 -977 -853 -128 -112 -233 -208 -233 -213 0 -6 937 -8 2438 -6 2684 3 2504 -1 2777 64 548 129 878 435 1004 928 77 303 47 742 -75 1115 -103 314 -269 584 -491 801 -165 160 -297 253 -493 345 -52 25 -106 50 -119 57 -26 13 -40 37 -22 37 22 0 196 115 280 185 237 197 378 446 437 770 25 138 26 445 1 605 -73 463 -240 838 -519 1165 -360 420 -907 687 -1507 734 -90 7 -895 11 -2410 11 -1912 0 -2273 -2 -2261 -14z"></path>
        </g>
    </g>
    <g id="l6rHYNjaIswYX4pVDRurk7l" fill="rgb(46,192,248)" style="transform: none;">
        <g>
            <path id="pJtvONVgY"
                  d="M340 9216 c0 -4 703 -657 1045 -970 143 -131 443 -405 667 -610 333 -304 408 -377 416 -406 6 -19 29 -138 52 -265 51 -279 115 -574 182 -835 71 -274 72 -279 66 -286 -4 -3 -208 -81 -455 -174 -1331 -499 -1547 -580 -1645 -616 -60 -21 -108 -42 -108 -46 0 -8 39 -27 455 -214 165 -75 311 -142 325 -149 14 -7 72 -34 130 -60 116 -52 301 -137 765 -350 291 -134 554 -254 915 -417 85 -39 160 -74 165 -80 12 -11 -61 -83 -505 -498 -168 -157 -343 -322 -390 -367 l-85 -83 550 -1 c601 -2 601 -2 611 -11 3 -4 16 -43 29 -87 l22 -79 -51 -50 c-28 -27 -332 -299 -676 -604 -1289 -1145 -1481 -1319 -1477 -1333 5 -14 7194 -20 7367 -6 404 33 832 167 1157 363 905 546 1242 1673 864 2888 -115 371 -304 730 -508 964 -37 43 -77 89 -87 102 l-19 23 50 108 c84 178 154 415 188 638 22 144 30 471 16 640 -16 186 -54 404 -103 600 -315 1258 -1359 2136 -2688 2260 -132 13 -676 15 -3697 15 -1949 0 -3543 -2 -3543 -4z m7255 -335 c264 -32 406 -62 615 -132 631 -208 1185 -667 1491 -1234 222 -410 339 -850 356 -1340 15 -443 -95 -870 -310 -1204 -47 -72 -55 -91 -38 -91 16 0 239 -219 301 -295 274 -336 480 -870 540 -1400 15 -136 12 -437 -5 -572 -33 -247 -80 -413 -176 -613 -101 -210 -202 -352 -360 -505 -266 -257 -587 -418 -1034 -518 l-140 -32 -3311 -3 c-2850 -2 -3313 0 -3323 12 -10 12 11 35 117 128 70 62 249 221 398 353 148 132 472 419 719 639 248 220 468 415 489 434 46 41 54 -16 -58 442 -43 173 -114 468 -158 655 -44 187 -86 345 -92 351 -6 7 -83 44 -171 82 -88 39 -304 136 -480 217 -176 81 -367 168 -425 194 -429 194 -1107 505 -1117 513 -21 17 -15 24 29 41 467 173 579 215 668 247 58 21 184 69 280 105 96 37 315 118 485 181 171 64 313 118 317 123 5 4 -1 38 -11 76 -66 239 -306 1188 -386 1527 l-37 158 -312 283 c-303 277 -588 538 -1066 977 l-234 215 60 6 c32 3 1443 5 3134 3 3034 -2 3077 -3 3245 -23z m-4185 -5378 c0 -5 16 -91 35 -193 19 -102 35 -193 35 -202 0 -17 -19 -18 -249 -18 -187 0 -251 3 -259 13 -8 9 43 61 204 210 196 181 234 211 234 190z"></path>
            <path id="pqkQKesuu"
                  d="M3390 7179 c0 -14 187 -749 417 -1637 41 -161 73 -296 70 -299 -3 -3 -142 -52 -309 -108 -474 -161 -662 -225 -665 -229 -2 -2 2 -8 9 -13 11 -8 464 -200 1048 -443 l115 -48 200 -801 c110 -440 205 -801 210 -801 14 1 177 141 795 685 164 144 324 283 403 349 31 27 57 55 57 64 0 8 -19 79 -41 156 -23 78 -44 153 -47 168 l-4 28 786 2 787 3 -98 69 c-541 383 -1527 1123 -2160 1620 -105 83 -237 187 -293 231 -127 99 -1103 874 -1222 970 -32 26 -58 41 -58 34z"></path>
        </g>
    </g>
</svg>
