<svg width="100" height="100" xmlns="http://www.w3.org/2000/svg">
 <g id="Layer_1">
  <title>Ranged DPS</title>
  <ellipse stroke-width="0" ry="50" rx="50" id="svg_2" cy="50" cx="50" opacity="undefined" stroke="#000" fill="#6d0a0b"/>
  <g transform="rotate(89.7403564453125 47.723846435546875,52.12146759033203) " stroke="null" id="svg_30">
   <g stroke="null" transform="matrix(1.2074286385318656,0,0,1.2074286385318656,110.95118792940193,-23.037588269046907) " id="svg_13">
    <path fill="#ffffff" stroke="null" id="svg_14" d="m-34.24354,50.7091c1.744,-0.355 3.394,-1.203 4.709,-2.519c0.781,-0.781 0.779,-2.045 -0.001,-2.827c-0.781,-0.782 -2.05,-0.78 -2.83,0.002c-1.662,1.661 -4.256,2.021 -6.312,0.875c-8.037,-4.481 -18.079,-3.362 -24.951,2.617l-4.97,-4.97l4.749,-0.839c0.305,-0.054 0.531,-0.312 0.543,-0.622c0.013,-0.309 -0.192,-0.585 -0.491,-0.664l-11.157,-2.913c-0.226,-0.06 -0.467,0.006 -0.632,0.171c-0.167,0.165 -0.232,0.407 -0.173,0.633l2.915,11.156c0.078,0.3 0.354,0.504 0.664,0.492c0.31,-0.013 0.568,-0.239 0.622,-0.543l0.839,-4.748l4.97,4.97c-5.98,6.872 -7.103,16.915 -2.624,24.95c1.147,2.06 0.787,4.658 -0.877,6.322l-0.003,0.003c-0.781,0.781 -0.78,2.046 0.001,2.827c0.39,0.39 0.901,0.585 1.414,0.585c0.513,0 1.025,-0.195 1.416,-0.586c1.318,-1.318 2.166,-2.971 2.52,-4.719c0.016,-0.016 0.033,-0.024 0.048,-0.039l13.724,-13.725l4.95,4.95l-1.64,4.917c-0.079,0.237 -0.018,0.498 0.159,0.674l1.788,1.787c0.162,0.162 0.396,0.229 0.617,0.175c0.222,-0.052 0.401,-0.216 0.474,-0.433l1.432,-4.293l1.415,1.415l-1.64,4.917c-0.079,0.237 -0.018,0.498 0.159,0.674l1.788,1.788c0.162,0.162 0.395,0.228 0.617,0.175c0.222,-0.052 0.4,-0.216 0.474,-0.433l1.431,-4.293l1.769,1.768c0.293,0.293 0.677,0.439 1.061,0.439c0.385,0 0.769,-0.146 1.062,-0.439c0.586,-0.585 0.586,-1.536 0,-2.121l-1.763,-1.763l4.277,-1.426c0.217,-0.072 0.381,-0.251 0.434,-0.474s-0.015,-0.456 -0.176,-0.616l-1.788,-1.788c-0.176,-0.177 -0.437,-0.237 -0.673,-0.159l-4.902,1.635l-1.415,-1.414l4.277,-1.426c0.218,-0.072 0.382,-0.251 0.434,-0.473c0.053,-0.224 -0.015,-0.456 -0.175,-0.617l-1.788,-1.787c-0.177,-0.176 -0.438,-0.238 -0.673,-0.159l-4.903,1.634l-4.956,-4.954l13.761,-13.769zm-6.383,-0.975c0.377,0.21 0.768,0.385 1.163,0.539l-11.376,11.375l-9.96,-9.96c5.607,-4.727 13.691,-5.568 20.173,-1.954zm-23.714,25.415c-0.153,-0.396 -0.329,-0.788 -0.54,-1.167c-3.612,-6.48 -2.768,-14.566 1.959,-20.172l9.96,9.959l-11.379,11.38z"/>
   </g>
  </g>
 </g>
</svg>