<svg width="100" height="100" xmlns="http://www.w3.org/2000/svg">
 <g id="Layer_1">
  <title>Tank</title>
  <ellipse stroke-width="0" ry="50" rx="50" id="svg_2" cy="50" cx="50" opacity="undefined" stroke="#000" fill="#001c52"/>
  <g stroke="null" id="svg_53">
   <g stroke="null" transform="matrix(0.11811130425904752,0,0,0.11811130425904752,-49.310960929656844,-46.73969801096757) " id="svg_35">
    <g stroke="null" id="svg_36">
     <path stroke="null" fill="#ffffff" id="svg_37" d="m1045.96823,626.35737l-200.83,-60.25c-2.812,-0.844 -5.809,-0.844 -8.622,0l-200.834,60.25c-6.344,1.903 -10.689,7.743 -10.689,14.367l0,220.916c0,28.734 11.633,58.148 34.574,87.425c17.521,22.36 41.762,44.813 72.047,66.736c50.877,36.828 100.976,59.42 103.084,60.363c1.949,0.873 4.039,1.31 6.129,1.31s4.18,-0.436 6.129,-1.31c2.107,-0.943 52.205,-23.535 103.082,-60.363c30.285,-21.923 54.525,-44.376 72.047,-66.736c22.941,-29.276 34.572,-58.69 34.572,-87.425l0,-220.916c0,-6.624 -4.343,-12.464 -10.689,-14.367z"/>
    </g>
   </g>
  </g>
 </g>
</svg>