<svg class="img-fluid" id="outputsvg" xmlns="http://www.w3.org/2000/svg" style="transform: matrix(0.769231, 0, 0, 0.769231, 0, 0); transform-origin: 50% 50%; cursor: move; max-height: none; transition: transform 200ms ease-in-out;" width="1024" height="1024" viewBox="0 0 10240 10240"><g id="l1WgvYM9XRnv8qb77MrXLcEj" fill="rgb(254,254,254)" stroke="rgb(254,254,254)" stroke-width="1" fill-rule="evenodd" style="transform: none;"><g><path id="pDzwBS4Av" d="M5549 5410 C5471 5335 5366 5333 5219 5404 C5136 5445 5086 5449 5025 5421 C4968 5395 4868 5330 4873 5322 C4875 5318 4893 5286 4914 5252 C4951 5192 4952 5189 4936 5165 C4926 5151 4914 5140 4908 5140 C4902 5140 4875 5158 4848 5181 C4821 5204 4793 5219 4785 5216 C4763 5207 4684 5103 4654 5042 C4611 4954 4616 4911 4683 4773 C4762 4612 4760 4573 4671 4493 L4625 4452 4663 4378 C4685 4338 4731 4263 4766 4213 C4801 4163 4845 4087 4864 4046 C4910 3944 4948 3899 5044 3834 C5088 3804 5147 3764 5174 3745 C5235 3702 5292 3689 5427 3690 C5559 3690 5600 3699 5716 3754 C5888 3835 6032 3954 6128 4093 C6189 4182 6206 4215 6263 4361 C6323 4511 6333 4562 6327 4679 C6322 4793 6287 4888 6210 4996 C6138 5098 6070 5157 5910 5252 C5830 5300 5734 5364 5697 5394 C5660 5425 5621 5450 5610 5450 C5599 5450 5571 5432 5549 5410 M5572 5081 C5528 5058 5510 5023 5480 4896 C5443 4739 5442 4730 5474 4730 C5504 4730 5860 4834 5900 4855 C5956 4884 5941 4902 5785 4994 C5635 5082 5602 5096 5572 5081 M5055 5009 C4969 4927 4961 4907 4995 4873 C5032 4836 5082 4820 5154 4820 C5206 4820 5224 4824 5239 4839 C5286 4886 5272 4967 5204 5035 C5180 5059 5153 5080 5145 5080 C5136 5080 5096 5048 5055 5009 M5197 4565 C5190 4563 5152 4556 5112 4550 C4989 4530 4963 4489 5000 4378 C5034 4278 5142 4130 5181 4130 C5186 4130 5202 4155 5215 4185 C5243 4247 5317 4485 5325 4537 L5330 4570 5270 4570 C5237 4570 5204 4568 5197 4565 "></path></g></g><g id="l5iijvbEqi7ekLGd17beq4j" fill="rgb(215,217,219)" stroke="rgb(215,217,219)" stroke-width="1" fill-rule="evenodd" style="transform: none;"><g><path id="p4eZzMLUv" d="M3924 7605 C3926 7597 3968 7526 4017 7448 C4066 7369 4155 7221 4214 7120 C4451 6713 4605 6474 4757 6275 C4823 6189 4864 6143 4880 6139 C4904 6134 5251 6205 5535 6275 C5788 6337 6115 6434 6319 6508 C6426 6548 6518 6580 6522 6580 C6548 6580 6469 6319 6360 6047 C6338 5991 6332 5964 6338 5952 C6367 5898 6681 5633 6727 5624 C6756 5618 6931 5646 7195 5700 C7377 5737 7372 5736 7363 5702 C7342 5616 7277 5441 7188 5232 C7044 4895 7049 4913 7050 4685 C7051 4580 7054 4472 7058 4445 L7065 4395 7165 4345 C7379 4237 7520 4154 7641 4062 C7931 3843 8221 3501 8399 3167 C8428 3113 8457 3070 8464 3070 C8477 3070 8481 3084 8530 3294 C8639 3763 8720 4690 8692 5142 C8685 5243 8677 5334 8674 5343 C8665 5366 8553 5422 8449 5455 C8402 5470 8359 5487 8351 5494 C8340 5505 8342 5530 8364 5646 C8420 5949 8418 6186 8359 6417 C8307 6619 8231 6752 8084 6896 C8033 6946 7963 7004 7928 7025 C7812 7093 7626 7188 7545 7220 C7442 7260 7265 7320 7246 7320 C7238 7320 7229 7306 7226 7288 C7212 7219 7220 7140 7254 7019 C7299 6860 7308 6800 7287 6800 C7260 6800 7172 6877 7126 6942 C7102 6976 7055 7054 7023 7114 C6933 7283 6804 7401 6654 7451 C6582 7476 6406 7487 6384 7469 C6373 7460 6324 7455 6216 7453 C6053 7450 5883 7433 5645 7395 C5562 7382 5445 7365 5385 7358 C5250 7342 4895 7342 4780 7358 C4495 7398 4227 7473 4025 7570 C3959 7601 3921 7614 3924 7605 "></path><path id="p4OPeihbD" d="M4440 3060 L4440 3095L4440 3130L4440 3130 L4440 3180C4440 3207 4431 3255 4420 3285 C4410 3315 4385 3366 4365 3399 C4345 3432 4308 3484 4283 3515 C4258 3546 4215 3589 4187 3611 C4142 3646 4131 3650 4100 3645 C4081 3641 3958 3603 3828 3559 C3698 3515 3588 3480 3584 3480 C3580 3480 3580 3505 3583 3536 C3587 3568 3639 3787 3699 4024 C3760 4262 3829 4552 3853 4670 C3878 4788 3903 4927 3909 4980 C3916 5032 3919 5108 3918 5149 L3915 5223 3524 5484 C3309 5627 3037 5808 2919 5886 C2801 5963 2629 6075 2536 6134 C2443 6193 2366 6239 2364 6238 C2363 6236 2384 6197 2411 6151 C2438 6105 2481 6021 2506 5966 C2531 5910 2569 5813 2590 5750 C2611 5686 2639 5583 2653 5520 C2667 5456 2685 5348 2694 5280 C2703 5211 2715 5085 2720 5001 C2727 4894 2727 4788 2720 4651 C2714 4543 2700 4362 2689 4250 C2679 4137 2665 3957 2659 3850 C2652 3737 2650 3576 2654 3470 C2658 3368 2667 3235 2675 3175 C2683 3114 2697 3029 2706 2985 C2714 2941 2737 2854 2756 2792 C2774 2730 2816 2620 2848 2547 C2880 2473 2934 2364 2969 2304 C3004 2244 3052 2165 3077 2130 C3103 2094 3146 2038 3174 2005 C3201 1972 3260 1905 3303 1857 C3347 1809 3394 1766 3407 1763 C3425 1758 3439 1765 3466 1791 C3487 1811 3527 1876 3567 1957 C3603 2030 3643 2099 3657 2109 C3680 2127 3684 2128 3711 2114 C3727 2105 3758 2081 3779 2060 C3800 2039 3834 1997 3854 1968 C3877 1933 3905 1865 3935 1773 C3959 1695 3998 1594 4021 1548 C4049 1493 4082 1445 4119 1409 C4157 1371 4190 1348 4224 1336 C4251 1327 4296 1320 4324 1320 C4352 1320 4398 1326 4426 1333 C4454 1341 4510 1365 4551 1386 C4591 1408 4673 1456 4732 1492 C4792 1528 4866 1568 4897 1580 C4929 1592 4978 1604 5006 1607 C5034 1610 5074 1609 5095 1605 C5115 1601 5142 1587 5156 1574 C5175 1555 5180 1540 5180 1500 C5180 1472 5173 1433 5165 1414 C5157 1395 5137 1360 5120 1336 C5094 1297 5092 1290 5105 1279 C5117 1269 5173 1268 5352 1273 C5480 1276 5668 1286 5770 1295 C5871 1303 6015 1317 6090 1325 C6164 1334 6303 1354 6398 1370 C6494 1386 6626 1413 6691 1429 C6757 1446 6848 1471 6895 1485 C6941 1500 6980 1515 6980 1519 C6980 1523 6927 1562 6862 1604 C6797 1647 6688 1725 6620 1778 C6551 1830 6454 1907 6405 1948 C6355 1990 6269 2069 6214 2124 C6158 2179 6077 2270 6034 2325 C5990 2380 5931 2461 5903 2505 C5875 2549 5840 2609 5824 2640 C5809 2670 5775 2753 5750 2824 L5704 2954 5654 2966 C5627 2972 5554 2978 5493 2979 C5430 2979 5351 2973 5313 2965 C5275 2957 5197 2934 5140 2914 C5082 2894 4969 2847 4890 2809 C4810 2772 4709 2730 4665 2716 C4621 2702 4547 2681 4501 2669 C4455 2658 4411 2651 4404 2653 C4395 2657 4396 2678 4411 2746 C4421 2795 4432 2885 4434 2947 L4440 3060"></path></g></g><g id="lZsPbpIthFb80WH4HaLz4gj" fill="rgb(245,166,45)" stroke="rgb(245,166,45)" stroke-width="1" fill-rule="evenodd" style="transform: none;"><g><path id="pZcvrb59q" d="M3016 7052 C3014 7048 3017 7024 3024 7000 C3046 6921 3439 5886 3452 5872 C3459 5866 3609 5811 3785 5751 C3961 5691 4152 5626 4209 5606 C4267 5586 4320 5570 4328 5570 C4352 5570 4460 5517 4460 5505 C4460 5499 4434 5458 4404 5414 C4258 5207 4174 4964 4149 4685 C4121 4362 4133 4408 4015 4174 C3957 4058 3895 3939 3877 3909 C3793 3769 3788 3759 3802 3754 C3809 3751 3867 3780 3930 3818 C3993 3856 4092 3912 4151 3943 L4257 4000 4306 3922 C4375 3814 4495 3674 4597 3582 C4777 3420 4770 3429 4758 3379 C4753 3354 4726 3263 4698 3175 C4617 2915 4628 2870 4749 2974 C4924 3126 5133 3206 5465 3249 C5727 3284 5915 3332 6088 3411 C6124 3426 6156 3440 6160 3440 C6173 3440 6738 3165 6830 3114 C6856 3099 6887 3090 6905 3092 C6932 3094 6934 3098 6933 3130 C6932 3151 6896 3237 6839 3355 C6588 3873 6588 3873 6593 3904 C6595 3921 6618 3991 6642 4060 C6712 4254 6749 4469 6749 4695 C6750 4822 6852 5082 6979 5278 C7048 5386 7056 5405 7039 5425 C7018 5450 6969 5441 6785 5380 C6686 5347 6595 5320 6583 5320 C6569 5320 6552 5332 6538 5352 C6499 5409 6409 5513 6351 5568 C6286 5629 6125 5752 6056 5792 C6030 5807 6010 5826 6010 5834 C6010 5847 6123 6061 6197 6187 C6210 6210 6218 6230 6214 6230 C6205 6230 6153 6193 6098 6146 C6062 6117 6035 6104 5984 6093 C5948 6086 5861 6059 5791 6033 C5592 5961 5555 5952 5369 5925 C5057 5880 4794 5792 4613 5673 C4585 5655 4556 5640 4547 5640 C4531 5640 4490 5740 4364 6085 C4170 6616 4156 6650 4128 6650 C4119 6650 3380 6925 3177 7004 C3043 7056 3021 7062 3016 7052 M5262 5684 C5091 5651 4915 5577 4799 5490 C4257 5083 4215 4257 4711 3785 C4905 3600 5126 3505 5392 3493 C5586 3484 5743 3516 5915 3602 C6224 3756 6443 4054 6505 4408 C6522 4506 6524 4700 6509 4785 C6469 5008 6368 5208 6212 5371 C6147 5439 5981 5570 5960 5570 C5956 5570 5923 5585 5888 5604 C5851 5623 5771 5651 5701 5669 C5599 5695 5560 5700 5460 5700 C5394 5700 5305 5693 5262 5684 "></path></g></g><g id="l1YC1EpcOp1U7Gso9t39aijj" fill="rgb(133,136,143)" stroke="rgb(133,136,143)" stroke-width="1" fill-rule="evenodd" style="transform: none;"><g><path id="pfxjeIwIm" d="M2295 8065 C2238 8013 2167 7941 2136 7905 C2067 7824 1890 7566 1890 7547 C1890 7539 2062 7369 2272 7169 C2482 6968 2705 6756 2766 6697 C2828 6638 2885 6590 2893 6590 C2909 6590 2919 6639 2919 6724 C2919 6767 2907 6820 2875 6919 C2822 7083 2804 7170 2814 7232 C2826 7311 2820 7311 3108 7231 C3421 7144 3451 7137 3480 7141 C3499 7144 3444 7201 3144 7484 C2946 7671 2737 7869 2680 7925 C2494 8103 2430 8160 2415 8160 C2406 8160 2353 8117 2295 8065 "></path><path id="pQcfKo9IG" d="M7065 4065 C7036 3971 7034 3674 7063 3575 C7079 3515 7158 3329 7264 3100 C7370 2872 7437 2646 7408 2623 C7380 2600 7322 2598 7273 2618 C7109 2683 6723 2871 6675 2910 C6669 2914 6642 2917 6615 2917 C6580 2917 6536 2928 6470 2954 C6368 2993 6261 3020 6201 3020 C6143 3020 6066 2993 6039 2964 L6015 2938 6048 2909 C6067 2894 6173 2840 6283 2791 C6454 2715 7272 2344 7785 2109 C7963 2028 7973 2025 7978 2061 C7980 2084 7793 2514 7420 3340 C7371 3447 7292 3622 7244 3730 C7151 3939 7083 4080 7075 4080 C7072 4080 7067 4073 7065 4065 "></path><path id="pTOG36Gx" d="M4440 3060 L4445 3060C4447 3060 4450 3075 4450 3095 C4450 3114 4447 3130 4445 3130 L4440 3130L4440 3130 L4440 3095L4440 3060"></path></g></g><g id="l47E7c7IdVMMS1PPMsfVIdWj" fill="rgb(191,32,56)" stroke="rgb(191,32,56)" stroke-width="1" fill-rule="evenodd" style="transform: none;"><g><path id="pmwCG9ldZ" d="M4942 10015 C4910 10012 4817 10005 4735 9999 C4157 9959 3560 9798 3021 9539 C2499 9287 2076 8987 1669 8580 C943 7854 487 6970 305 5937 C73 4621 397 3243 1188 2181 C1334 1983 1467 1830 1659 1639 C1924 1373 2089 1237 2395 1032 C2909 688 3511 435 4100 315 C4474 240 4693 218 5107 216 C5453 214 5567 222 5855 265 C7116 453 8227 1110 9011 2130 C9492 2755 9825 3548 9949 4363 C9984 4591 10000 4819 10000 5090 C10000 5531 9960 5866 9859 6280 C9694 6948 9410 7546 8999 8090 C8760 8405 8423 8745 8095 9000 C8040 9043 7984 9089 7970 9103 C7957 9118 7940 9130 7934 9130 C7919 9130 7749 9242 7693 9288 C7672 9306 7643 9323 7630 9326 C7616 9330 7589 9342 7570 9354 C7550 9366 7481 9405 7415 9439 C7349 9474 7280 9516 7262 9531 C7244 9547 7224 9560 7219 9560 C7213 9560 7187 9569 7161 9580 C7136 9592 7094 9610 7070 9621 C7045 9632 7007 9649 6985 9660 C6963 9670 6931 9681 6915 9685 C6863 9696 6735 9742 6720 9755 C6695 9776 6610 9801 6400 9851 C6347 9863 6296 9878 6285 9885 C6274 9892 6226 9904 6180 9913 C6133 9922 6052 9938 6000 9949 C5947 9960 5860 9974 5805 9980 C5750 9985 5679 9994 5647 10000 C5583 10011 5032 10022 4942 10015 M4787 9294 C4764 9292 4682 9282 4605 9274 C3941 9200 3315 8970 2740 8586 C2152 8195 1638 7615 1315 6980 C1141 6636 1016 6274 939 5890 C874 5562 865 5453 865 5050 C865 4659 875 4552 941 4227 C1126 3311 1621 2471 2335 1858 C2964 1318 3714 983 4545 873 C4809 838 5304 829 5550 854 C6085 909 6555 1043 7015 1272 C7438 1483 7769 1721 8108 2058 C8821 2768 9245 3692 9330 4726 C9346 4915 9337 5413 9315 5580 C9289 5778 9251 5982 9210 6145 C8884 7414 7981 8460 6771 8969 C6421 9117 6044 9219 5662 9269 C5545 9285 5431 9291 5170 9295 C4983 9297 4810 9297 4787 9294 "></path></g></g><g id="l7AlLIfGla68oSunQvgw3YQj" fill="rgb(4,124,147)" stroke="rgb(4,124,147)" stroke-width="1" fill-rule="evenodd" style="transform: none;"><g><path id="p6j2QT79o" d="M5437 8879 C5369 8846 5306 8804 5100 8650 C4857 8471 4719 8379 4566 8298 C4500 8263 4438 8223 4428 8209 C4401 8172 4377 8064 4382 8002 C4388 7933 4419 7899 4525 7849 C4709 7762 4905 7757 5180 7835 C5226 7848 5339 7884 5430 7915 C5850 8057 6056 8096 6322 8087 C6593 8077 6888 7995 7243 7831 C7335 7788 7370 7780 7369 7802 C7369 7823 7284 7961 7233 8024 C7178 8092 7076 8180 6980 8244 C6944 8268 6904 8299 6891 8313 L6867 8339 6935 8410 C6984 8460 7000 8483 6991 8488 C6975 8499 6783 8527 6645 8539 C6258 8574 5876 8572 5562 8533 C5432 8517 5418 8517 5403 8531 C5389 8546 5391 8554 5423 8627 C5485 8769 5517 8900 5490 8900 C5484 8900 5460 8890 5437 8879 "></path><path id="pptHOSc9B" d="M1725 6217 C1713 6157 1689 5973 1680 5875 C1659 5648 1671 5479 1729 5231 C1746 5158 1759 5075 1759 5046 C1759 4969 1717 4826 1640 4640 C1602 4549 1562 4444 1551 4408 C1533 4349 1500 4193 1500 4168 C1500 4156 1550 4157 1627 4171 C1662 4177 1693 4180 1695 4177 C1698 4174 1707 4132 1715 4083 C1747 3901 1827 3715 1951 3535 C2023 3429 2063 3380 2077 3379 C2081 3379 2083 3484 2081 3612 C2076 3930 2093 4039 2213 4500 C2290 4791 2306 4963 2275 5155 C2232 5421 2125 5658 1879 6037 C1822 6123 1770 6205 1763 6217 C1755 6229 1745 6240 1740 6240 C1734 6240 1728 6229 1725 6217 "></path></g></g><g id="lJ47zMyY3Ljc0ixAvwULMYj" fill="rgb(0,0,1)" stroke="rgb(0,0,1)" stroke-width="1" fill-rule="evenodd" style="transform: none;"><g><path id="p17uEZCYNT" d="M4792 10225 C4771 10222 4705 10215 4645 10209 C4478 10193 4224 10152 4040 10113 C3445 9986 2851 9737 2330 9395 C2170 9290 1917 9099 1770 8972 C1634 8855 1353 8573 1244 8445 C524 7599 112 6608 14 5485 C-8 5230 -2 4792 29 4540 C170 3356 671 2318 1499 1489 C1761 1227 2013 1021 2297 836 C3018 365 3835 81 4675 9 C4871 -8 5550 2 5720 24 C6545 130 7302 408 7955 843 C8715 1350 9330 2056 9725 2875 C9808 3045 9934 3355 9983 3505 C10293 4462 10318 5434 10058 6429 C9873 7138 9491 7858 8992 8445 C8873 8584 8548 8905 8405 9025 C7810 9524 7153 9866 6400 10068 C6194 10124 5828 10185 5532 10214 C5386 10229 4878 10236 4792 10225 M4942 10015 C4910 10012 4817 10005 4735 9999 C4157 9959 3560 9798 3021 9539 C2499 9287 2076 8987 1669 8580 C943 7854 487 6970 305 5937 C73 4621 397 3243 1188 2181 C1334 1983 1467 1830 1659 1639 C1924 1373 2089 1237 2395 1032 C2909 688 3511 435 4100 315 C4474 240 4693 218 5107 216 C5453 214 5567 222 5855 265 C7116 453 8227 1110 9011 2130 C9492 2755 9825 3548 9949 4363 C9984 4591 10000 4819 10000 5090 C10000 5531 9960 5866 9859 6280 C9694 6948 9410 7546 8999 8090 C8760 8405 8423 8745 8095 9000 C8040 9043 7984 9089 7970 9103 C7957 9118 7940 9130 7934 9130 C7919 9130 7749 9242 7693 9288 C7672 9306 7643 9323 7630 9326 C7616 9330 7589 9342 7570 9354 C7550 9366 7481 9405 7415 9439 C7349 9474 7280 9516 7262 9531 C7244 9547 7224 9560 7219 9560 C7213 9560 7187 9569 7161 9580 C7136 9592 7094 9610 7070 9621 C7045 9632 7007 9649 6985 9660 C6963 9670 6931 9681 6915 9685 C6863 9696 6735 9742 6720 9755 C6695 9776 6610 9801 6400 9851 C6347 9863 6296 9878 6285 9885 C6274 9892 6226 9904 6180 9913 C6133 9922 6052 9938 6000 9949 C5947 9960 5860 9974 5805 9980 C5750 9985 5679 9994 5647 10000 C5583 10011 5032 10022 4942 10015 M4787 9294 C4764 9292 4682 9282 4605 9274 C3941 9200 3315 8970 2740 8586 C2152 8195 1638 7615 1315 6980 C1141 6636 1016 6274 939 5890 C874 5562 865 5453 865 5050 C865 4659 875 4552 941 4227 C1126 3311 1621 2471 2335 1858 C2964 1318 3714 983 4545 873 C4809 838 5304 829 5550 854 C6085 909 6555 1043 7015 1272 C7438 1483 7769 1721 8108 2058 C8821 2768 9245 3692 9330 4726 C9346 4915 9337 5413 9315 5580 C9289 5778 9251 5982 9210 6145 C8884 7414 7981 8460 6771 8969 C6421 9117 6044 9219 5662 9269 C5545 9285 5431 9291 5170 9295 C4983 9297 4810 9297 4787 9294 M5437 8879 C5369 8846 5306 8804 5100 8650 C4857 8471 4719 8379 4566 8298 C4500 8263 4438 8223 4428 8209 C4401 8172 4377 8064 4382 8002 C4388 7933 4419 7899 4525 7849 C4709 7762 4905 7757 5180 7835 C5226 7848 5339 7884 5430 7915 C5850 8057 6056 8096 6322 8087 C6593 8077 6888 7995 7243 7831 C7335 7788 7370 7780 7369 7802 C7369 7823 7284 7961 7233 8024 C7178 8092 7076 8180 6980 8244 C6944 8268 6904 8299 6891 8313 L6867 8339 6935 8410 C6984 8460 7000 8483 6991 8488 C6975 8499 6783 8527 6645 8539 C6258 8574 5876 8572 5562 8533 C5432 8517 5418 8517 5403 8531 C5389 8546 5391 8554 5423 8627 C5485 8769 5517 8900 5490 8900 C5484 8900 5460 8890 5437 8879 M2295 8065 C2238 8013 2167 7941 2136 7905 C2067 7824 1890 7566 1890 7547 C1890 7539 2062 7369 2272 7169 C2482 6968 2705 6756 2766 6697 C2828 6638 2885 6590 2893 6590 C2909 6590 2919 6639 2919 6724 C2919 6767 2907 6820 2875 6919 C2822 7083 2804 7170 2814 7232 C2826 7311 2820 7311 3108 7231 C3421 7144 3451 7137 3480 7141 C3499 7144 3444 7201 3144 7484 C2946 7671 2737 7869 2680 7925 C2494 8103 2430 8160 2415 8160 C2406 8160 2353 8117 2295 8065 M3924 7605 C3926 7597 3968 7526 4017 7448 C4066 7369 4155 7221 4214 7120 C4451 6713 4605 6474 4757 6275 C4823 6189 4864 6143 4880 6139 C4904 6134 5251 6205 5535 6275 C5788 6337 6115 6434 6319 6508 C6426 6548 6518 6580 6522 6580 C6548 6580 6469 6319 6360 6047 C6338 5991 6332 5964 6338 5952 C6367 5898 6681 5633 6727 5624 C6756 5618 6931 5646 7195 5700 C7377 5737 7372 5736 7363 5702 C7342 5616 7277 5441 7188 5232 C7044 4895 7049 4913 7050 4685 C7051 4580 7054 4472 7058 4445 L7065 4395 7165 4345 C7379 4237 7520 4154 7641 4062 C7931 3843 8221 3501 8399 3167 C8428 3113 8457 3070 8464 3070 C8477 3070 8481 3084 8530 3294 C8639 3763 8720 4690 8692 5142 C8685 5243 8677 5334 8674 5343 C8665 5366 8553 5422 8449 5455 C8402 5470 8359 5487 8351 5494 C8340 5505 8342 5530 8364 5646 C8420 5949 8418 6186 8359 6417 C8307 6619 8231 6752 8084 6896 C8033 6946 7963 7004 7928 7025 C7812 7093 7626 7188 7545 7220 C7442 7260 7265 7320 7246 7320 C7238 7320 7229 7306 7226 7288 C7212 7219 7220 7140 7254 7019 C7299 6860 7308 6800 7287 6800 C7260 6800 7172 6877 7126 6942 C7102 6976 7055 7054 7023 7114 C6933 7283 6804 7401 6654 7451 C6582 7476 6406 7487 6384 7469 C6373 7460 6324 7455 6216 7453 C6053 7450 5883 7433 5645 7395 C5562 7382 5445 7365 5385 7358 C5250 7342 4895 7342 4780 7358 C4495 7398 4227 7473 4025 7570 C3959 7601 3921 7614 3924 7605 M3016 7052 C3014 7048 3017 7024 3024 7000 C3046 6921 3439 5886 3452 5872 C3459 5866 3609 5811 3785 5751 C3961 5691 4152 5626 4209 5606 C4267 5586 4320 5570 4328 5570 C4352 5570 4460 5517 4460 5505 C4460 5499 4434 5458 4404 5414 C4258 5207 4174 4964 4149 4685 C4121 4362 4133 4408 4015 4174 C3957 4058 3895 3939 3877 3909 C3793 3769 3788 3759 3802 3754 C3809 3751 3867 3780 3930 3818 C3993 3856 4092 3912 4151 3943 L4257 4000 4306 3922 C4375 3814 4495 3674 4597 3582 C4777 3420 4770 3429 4758 3379 C4753 3354 4726 3263 4698 3175 C4617 2915 4628 2870 4749 2974 C4924 3126 5133 3206 5465 3249 C5727 3284 5915 3332 6088 3411 C6124 3426 6156 3440 6160 3440 C6173 3440 6738 3165 6830 3114 C6856 3099 6887 3090 6905 3092 C6932 3094 6934 3098 6933 3130 C6932 3151 6896 3237 6839 3355 C6588 3873 6588 3873 6593 3904 C6595 3921 6618 3991 6642 4060 C6712 4254 6749 4469 6749 4695 C6750 4822 6852 5082 6979 5278 C7048 5386 7056 5405 7039 5425 C7018 5450 6969 5441 6785 5380 C6686 5347 6595 5320 6583 5320 C6569 5320 6552 5332 6538 5352 C6499 5409 6409 5513 6351 5568 C6286 5629 6125 5752 6056 5792 C6030 5807 6010 5826 6010 5834 C6010 5847 6123 6061 6197 6187 C6210 6210 6218 6230 6214 6230 C6205 6230 6153 6193 6098 6146 C6062 6117 6035 6104 5984 6093 C5948 6086 5861 6059 5791 6033 C5592 5961 5555 5952 5369 5925 C5057 5880 4794 5792 4613 5673 C4585 5655 4556 5640 4547 5640 C4531 5640 4490 5740 4364 6085 C4170 6616 4156 6650 4128 6650 C4119 6650 3380 6925 3177 7004 C3043 7056 3021 7062 3016 7052 M5262 5684 C5091 5651 4915 5577 4799 5490 C4257 5083 4215 4257 4711 3785 C4905 3600 5126 3505 5392 3493 C5586 3484 5743 3516 5915 3602 C6224 3756 6443 4054 6505 4408 C6522 4506 6524 4700 6509 4785 C6469 5008 6368 5208 6212 5371 C6147 5439 5981 5570 5960 5570 C5956 5570 5923 5585 5888 5604 C5851 5623 5771 5651 5701 5669 C5599 5695 5560 5700 5460 5700 C5394 5700 5305 5693 5262 5684 M5549 5410 C5471 5335 5366 5333 5219 5404 C5136 5445 5086 5449 5025 5421 C4968 5395 4868 5330 4873 5322 C4875 5318 4893 5286 4914 5252 C4951 5192 4952 5189 4936 5165 C4926 5151 4914 5140 4908 5140 C4902 5140 4875 5158 4848 5181 C4821 5204 4793 5219 4785 5216 C4763 5207 4684 5103 4654 5042 C4611 4954 4616 4911 4683 4773 C4762 4612 4760 4573 4671 4493 L4625 4452 4663 4378 C4685 4338 4731 4263 4766 4213 C4801 4163 4845 4087 4864 4046 C4910 3944 4948 3899 5044 3834 C5088 3804 5147 3764 5174 3745 C5235 3702 5292 3689 5427 3690 C5559 3690 5600 3699 5716 3754 C5888 3835 6032 3954 6128 4093 C6189 4182 6206 4215 6263 4361 C6323 4511 6333 4562 6327 4679 C6322 4793 6287 4888 6210 4996 C6138 5098 6070 5157 5910 5252 C5830 5300 5734 5364 5697 5394 C5660 5425 5621 5450 5610 5450 C5599 5450 5571 5432 5549 5410 M5572 5081 C5528 5058 5510 5023 5480 4896 C5443 4739 5442 4730 5474 4730 C5504 4730 5860 4834 5900 4855 C5956 4884 5941 4902 5785 4994 C5635 5082 5602 5096 5572 5081 M5055 5009 C4969 4927 4961 4907 4995 4873 C5032 4836 5082 4820 5154 4820 C5206 4820 5224 4824 5239 4839 C5286 4886 5272 4967 5204 5035 C5180 5059 5153 5080 5145 5080 C5136 5080 5096 5048 5055 5009 M5197 4565 C5190 4563 5152 4556 5112 4550 C4989 4530 4963 4489 5000 4378 C5034 4278 5142 4130 5181 4130 C5186 4130 5202 4155 5215 4185 C5243 4247 5317 4485 5325 4537 L5330 4570 5270 4570 C5237 4570 5204 4568 5197 4565 M1725 6217 C1713 6157 1689 5973 1680 5875 C1659 5648 1671 5479 1729 5231 C1746 5158 1759 5075 1759 5046 C1759 4969 1717 4826 1640 4640 C1602 4549 1562 4444 1551 4408 C1533 4349 1500 4193 1500 4168 C1500 4156 1550 4157 1627 4171 C1662 4177 1693 4180 1695 4177 C1698 4174 1707 4132 1715 4083 C1747 3901 1827 3715 1951 3535 C2023 3429 2063 3380 2077 3379 C2081 3379 2083 3484 2081 3612 C2076 3930 2093 4039 2213 4500 C2290 4791 2306 4963 2275 5155 C2232 5421 2125 5658 1879 6037 C1822 6123 1770 6205 1763 6217 C1755 6229 1745 6240 1740 6240 C1734 6240 1728 6229 1725 6217 M4440 3060 L4445 3060C4447 3060 4450 3075 4450 3095 C4450 3114 4447 3130 4445 3130 L4440 3130L4440 3130 L4440 3180C4440 3207 4431 3255 4420 3285 C4410 3315 4385 3366 4365 3399 C4345 3432 4308 3484 4283 3515 C4258 3546 4215 3589 4187 3611 C4142 3646 4131 3650 4100 3645 C4081 3641 3958 3603 3828 3559 C3698 3515 3588 3480 3584 3480 C3580 3480 3580 3505 3583 3536 C3587 3568 3639 3787 3699 4024 C3760 4262 3829 4552 3853 4670 C3878 4788 3903 4927 3909 4980 C3916 5032 3919 5108 3918 5149 L3915 5223 3524 5484 C3309 5627 3037 5808 2919 5886 C2801 5963 2629 6075 2536 6134 C2443 6193 2366 6239 2364 6238 C2363 6236 2384 6197 2411 6151 C2438 6105 2481 6021 2506 5966 C2531 5910 2569 5813 2590 5750 C2611 5686 2639 5583 2653 5520 C2667 5456 2685 5348 2694 5280 C2703 5211 2715 5085 2720 5001 C2727 4894 2727 4788 2720 4651 C2714 4543 2700 4362 2689 4250 C2679 4137 2665 3957 2659 3850 C2652 3737 2650 3576 2654 3470 C2658 3368 2667 3235 2675 3175 C2683 3114 2697 3029 2706 2985 C2714 2941 2737 2854 2756 2792 C2774 2730 2816 2620 2848 2547 C2880 2473 2934 2364 2969 2304 C3004 2244 3052 2165 3077 2130 C3103 2094 3146 2038 3174 2005 C3201 1972 3260 1905 3303 1857 C3347 1809 3394 1766 3407 1763 C3425 1758 3439 1765 3466 1791 C3487 1811 3527 1876 3567 1957 C3603 2030 3643 2099 3657 2109 C3680 2127 3684 2128 3711 2114 C3727 2105 3758 2081 3779 2060 C3800 2039 3834 1997 3854 1968 C3877 1933 3905 1865 3935 1773 C3959 1695 3998 1594 4021 1548 C4049 1493 4082 1445 4119 1409 C4157 1371 4190 1348 4224 1336 C4251 1327 4296 1320 4324 1320 C4352 1320 4398 1326 4426 1333 C4454 1341 4510 1365 4551 1386 C4591 1408 4673 1456 4732 1492 C4792 1528 4866 1568 4897 1580 C4929 1592 4978 1604 5006 1607 C5034 1610 5074 1609 5095 1605 C5115 1601 5142 1587 5156 1574 C5175 1555 5180 1540 5180 1500 C5180 1472 5173 1433 5165 1414 C5157 1395 5137 1360 5120 1336 C5094 1297 5092 1290 5105 1279 C5117 1269 5173 1268 5352 1273 C5480 1276 5668 1286 5770 1295 C5871 1303 6015 1317 6090 1325 C6164 1334 6303 1354 6398 1370 C6494 1386 6626 1413 6691 1429 C6757 1446 6848 1471 6895 1485 C6941 1500 6980 1515 6980 1519 C6980 1523 6927 1562 6862 1604 C6797 1647 6688 1725 6620 1778 C6551 1830 6454 1907 6405 1948 C6355 1990 6269 2069 6214 2124 C6158 2179 6077 2270 6034 2325 C5990 2380 5931 2461 5903 2505 C5875 2549 5840 2609 5824 2640 C5809 2670 5775 2753 5750 2824 L5704 2954 5654 2966 C5627 2972 5554 2978 5493 2979 C5430 2979 5351 2973 5313 2965 C5275 2957 5197 2934 5140 2914 C5082 2894 4969 2847 4890 2809 C4810 2772 4709 2730 4665 2716 C4621 2702 4547 2681 4501 2669 C4455 2658 4411 2651 4404 2653 C4395 2657 4396 2678 4411 2746 C4421 2795 4432 2885 4434 2947 L4440 3060M7065 4065 C7036 3971 7034 3674 7063 3575 C7079 3515 7158 3329 7264 3100 C7370 2872 7437 2646 7408 2623 C7380 2600 7322 2598 7273 2618 C7109 2683 6723 2871 6675 2910 C6669 2914 6642 2917 6615 2917 C6580 2917 6536 2928 6470 2954 C6368 2993 6261 3020 6201 3020 C6143 3020 6066 2993 6039 2964 L6015 2938 6048 2909 C6067 2894 6173 2840 6283 2791 C6454 2715 7272 2344 7785 2109 C7963 2028 7973 2025 7978 2061 C7980 2084 7793 2514 7420 3340 C7371 3447 7292 3622 7244 3730 C7151 3939 7083 4080 7075 4080 C7072 4080 7067 4073 7065 4065 "></path></g></g></svg>
