<svg class="img-fluid" id="outputsvg" xmlns="http://www.w3.org/2000/svg" style="transform: none; transform-origin: 50% 50%; cursor: move;" width="1024" height="1024" viewBox="0 0 10240 10240"><g id="l4rJTtsrV6GxTku8S01DMoG" fill="rgb(234,233,235)" style="transform: none;"><g><path id="pwMN0ohV" d="M5026 7479 c-61 -9 -149 -46 -224 -92 -37 -24 -42 -32 -42 -65 0 -34 5 -41 64 -84 116 -84 175 -183 196 -326 21 -147 -36 -313 -157 -456 -150 -178 -161 -203 -170 -387 -11 -216 26 -318 163 -449 131 -126 188 -168 300 -221 107 -51 144 -83 164 -144 29 -88 -29 -198 -220 -415 -170 -194 -237 -263 -296 -311 -76 -61 -98 -103 -91 -174 11 -104 84 -198 220 -283 104 -65 175 -90 289 -104 107 -12 252 -3 273 19 19 18 19 73 0 187 -23 139 -4 209 76 280 128 117 285 116 359 -1 29 -46 40 -86 61 -220 19 -126 65 -188 163 -214 29 -8 89 -9 201 -3 221 11 317 8 410 -16 219 -56 410 -205 579 -454 188 -275 295 -701 316 -1251 6 -160 12 -234 25 -272 l17 -53 43 0 c42 0 46 3 144 107 129 139 199 227 268 338 130 207 227 437 268 630 40 191 43 569 5 790 -35 208 -118 442 -243 691 -180 357 -451 689 -805 986 -248 209 -445 338 -525 346 -46 4 -51 3 -94 -39 -25 -24 -89 -102 -143 -174 -97 -129 -124 -155 -157 -155 -31 1 -99 37 -143 76 -52 47 -129 154 -145 202 -12 32 -11 41 7 77 26 51 64 99 157 200 114 124 131 150 131 205 0 41 -7 57 -44 107 -24 33 -59 72 -78 89 -25 21 -37 41 -42 69 -15 85 -95 172 -240 264 -81 51 -108 45 -203 -43 -57 -52 -97 -80 -137 -95 -108 -40 -209 -21 -273 53 -40 45 -49 77 -32 118 22 54 109 180 170 247 54 59 59 68 59 110 0 44 -3 49 -78 121 -90 86 -161 131 -259 165 -79 27 -202 37 -287 24z m2644 -2954 c187 -247 338 -606 381 -904 20 -143 -2 -393 -48 -555 -5 -17 -7 51 -5 161 5 227 -13 392 -63 588 -82 316 -179 547 -325 767 -67 103 -45 81 60 -57z"></path></g></g><g id="l781k9vwuWLYkAly0Kh3ytJ" fill="rgb(191,189,195)" style="transform: none;"><g><path id="p59JLCjhO" d="M4039 7651 c-89 -114 -226 -268 -373 -421 -167 -173 -263 -312 -302 -435 -35 -111 -43 -265 -20 -406 29 -174 130 -458 271 -764 51 -110 121 -267 156 -350 75 -177 169 -325 262 -411 108 -102 166 -117 411 -112 l161 3 71 38 c75 40 218 159 297 246 42 48 47 58 47 100 0 57 -3 59 -152 160 -150 101 -285 231 -331 318 -60 115 -71 174 -71 373 1 292 37 414 209 710 69 118 78 150 73 270 -3 86 -7 103 -37 164 -35 68 -84 125 -157 183 -28 21 -55 59 -84 115 -75 145 -243 288 -337 288 -38 0 -43 -4 -94 -69z m-11 -796 c90 -43 167 -118 208 -200 l29 -60 0 -230 c0 -230 0 -230 -27 -280 -58 -109 -122 -145 -258 -145 -89 0 -93 -1 -122 -30 l-30 -31 7 38 c15 84 51 120 150 153 73 24 119 53 149 93 16 22 21 47 24 121 7 160 -44 325 -122 393 -45 40 -69 46 -150 41 -67 -4 -119 -32 -152 -83 -36 -56 -30 -138 16 -206 55 -82 28 -96 -42 -21 -61 65 -75 122 -54 215 39 165 135 264 261 266 27 1 65 -11 113 -34z"></path></g></g><g id="l6VjykCLO63xuDwTUbaBBSM" fill="rgb(146,208,65)" style="transform: none;"><g><path id="pJWmuP4rJ" d="M5210 8661 c-47 -10 -162 -43 -256 -74 -264 -86 -568 -137 -816 -137 -64 0 -123 -3 -132 -6 -10 -4 -16 -18 -16 -38 0 -27 12 -45 78 -108 86 -84 147 -123 224 -144 84 -24 284 -28 433 -10 350 43 432 44 650 4 80 -14 212 -72 317 -140 68 -43 201 -148 196 -153 -2 -2 -50 5 -108 16 -239 43 -380 59 -540 59 l-160 0 0 -40 c0 -38 7 -47 103 -144 113 -115 184 -166 332 -241 105 -53 312 -124 410 -140 111 -19 296 -57 340 -72 130 -41 237 -119 274 -199 12 -25 37 -92 56 -149 18 -56 45 -126 60 -156 65 -130 176 -251 305 -335 74 -47 347 -194 362 -194 5 0 22 -9 36 -21 15 -11 108 -72 207 -136 218 -138 271 -179 398 -302 215 -209 390 -438 547 -716 40 -71 44 -75 91 -75 47 0 46 -8 59 335 11 282 1 656 -20 750 -21 92 -73 188 -145 264 -88 93 -203 169 -407 270 -169 83 -231 127 -313 221 -128 146 -178 233 -230 407 -20 65 -51 151 -71 192 -148 315 -443 631 -794 849 -257 160 -614 302 -900 356 -171 33 -432 36 -570 7z"></path><path id="poEx5OBPh" d="M2203 5973 c-158 -171 -254 -354 -323 -618 -112 -430 -28 -782 270 -1130 293 -344 380 -476 430 -658 26 -96 50 -231 50 -285 l0 -43 47 3 47 3 22 57 c40 103 56 182 61 303 9 210 -27 311 -205 588 -236 364 -298 521 -309 782 -5 117 -2 150 28 325 32 181 34 210 33 405 0 150 -5 224 -15 260 -13 48 -16 50 -52 53 -35 3 -43 -1 -84 -45z"></path><path id="pnx6ZPlK7" d="M3990 4434 c-74 -59 -231 -142 -305 -159 -135 -33 -252 -16 -610 89 -104 31 -202 56 -217 56 -26 0 -28 -3 -28 -37 0 -50 58 -151 128 -221 105 -106 242 -179 390 -208 53 -11 183 -18 422 -24 377 -9 393 -11 660 -84 156 -43 253 -56 438 -56 l132 0 0 39 c0 36 -7 45 -82 117 -46 42 -112 101 -149 130 -69 56 -407 260 -495 299 -29 13 -80 42 -113 64 -77 53 -101 52 -171 -5z"></path><path id="p1ES4IfSQ0" d="M6288 3829 c-82 -11 -180 -46 -255 -90 -74 -45 -234 -197 -339 -326 -166 -202 -215 -206 -629 -50 -323 121 -464 160 -689 188 -121 15 -372 7 -501 -16 -86 -15 -244 -57 -265 -70 -14 -9 -12 -75 3 -80 6 -2 55 -9 108 -14 218 -24 624 -158 960 -319 220 -105 360 -158 489 -184 104 -21 142 -23 400 -23 256 0 304 3 476 28 105 14 289 47 410 73 260 55 344 60 419 26 70 -32 141 -105 165 -170 25 -66 25 -95 -1 -151 -95 -210 -493 -428 -944 -518 -113 -22 -577 -25 -750 -4 -287 34 -643 130 -876 234 -92 41 -240 127 -299 172 -30 23 -77 54 -105 67 -61 32 -272 98 -308 98 -25 0 -27 -3 -27 -39 0 -100 207 -316 460 -481 223 -144 471 -246 915 -375 187 -54 315 -86 670 -166 109 -25 319 -105 485 -185 165 -79 182 -85 270 -95 52 -6 156 -9 230 -7 128 3 139 5 202 35 92 44 129 73 208 170 117 142 210 304 266 468 54 154 59 194 58 440 l0 230 -36 136 c-74 283 -200 513 -375 685 -135 134 -345 263 -483 298 -75 19 -230 26 -312 15z"></path></g></g><g id="l742MM33nBBXVmDySi2i7Il" fill="rgb(131,131,136)" style="transform: none;"><g><path id="pRMWz8l9d" d="M3235 7939 c-33 -5 -80 -15 -105 -22 -43 -12 -45 -14 -48 -55 -2 -32 8 -69 47 -161 28 -65 51 -126 51 -136 0 -25 -27 -71 -56 -94 -24 -19 -28 -19 -54 -6 -38 20 -89 85 -135 173 -42 81 -55 89 -138 78 -67 -9 -134 -39 -174 -78 -31 -30 -33 -36 -33 -101 0 -58 7 -87 46 -185 44 -114 45 -118 30 -150 -37 -77 -92 -63 -221 60 -79 74 -85 78 -129 78 -39 0 -65 -10 -148 -57 -123 -71 -215 -154 -314 -285 -181 -241 -241 -447 -231 -792 7 -247 47 -447 118 -588 29 -57 30 -58 73 -58 l44 0 32 77 c18 42 52 135 77 207 78 228 179 398 277 466 183 125 353 51 502 -221 20 -37 47 -73 60 -80 19 -10 31 -33 50 -98 53 -176 67 -217 95 -273 53 -106 118 -160 231 -193 l58 -16 -16 -37 c-24 -58 -60 -108 -104 -143 -69 -56 -50 -115 65 -204 85 -66 151 -88 265 -89 68 -1 110 4 148 17 51 18 52 19 52 59 0 23 -9 55 -20 73 -11 17 -42 90 -68 161 -27 71 -88 212 -134 314 -113 245 -133 298 -168 437 -115 455 -93 766 72 1040 82 136 297 346 473 462 89 59 100 69 103 99 3 25 -5 44 -32 80 -51 70 -135 146 -193 176 -115 58 -312 87 -448 65z"></path><path id="p11Viv0F80" d="M3670 247 c0 -8 16 -18 35 -24 33 -11 35 -10 35 13 0 21 -5 24 -35 24 -22 0 -35 -5 -35 -13z"></path></g></g><g id="l1zkVg86v9Iz9iTkedaLZ4y" fill="rgb(151,50,196)" style="transform: none;"><g><path id="phEh4LbA3" d="M4725 9954 c-299 -29 -365 -41 -365 -64 0 -19 -11 -23 -100 -35 -99 -14 -343 -69 -487 -111 -313 -91 -582 -198 -907 -361 -200 -100 -278 -145 -486 -281 -409 -267 -751 -577 -1061 -962 -60 -74 -122 -142 -138 -152 -45 -25 -101 -116 -110 -179 -5 -40 -23 -80 -68 -154 -302 -499 -497 -1014 -607 -1600 -42 -221 -108 -715 -109 -810 -2 -169 23 -667 44 -864 11 -108 24 -250 29 -316 14 -178 58 -387 132 -615 269 -831 818 -1628 1538 -2232 170 -143 706 -508 746 -508 13 0 72 -27 131 -60 431 -238 1040 -431 1638 -520 214 -32 612 -47 859 -32 808 48 1710 347 2376 787 128 85 158 110 163 132 4 21 33 50 110 110 97 76 201 164 376 315 54 47 73 58 102 58 32 0 45 8 92 57 133 140 400 463 499 603 105 151 308 561 433 875 117 293 238 680 276 879 31 166 70 474 94 751 48 558 -29 1307 -191 1844 -86 284 -235 648 -381 934 -49 94 -99 195 -111 222 -43 96 -71 137 -208 310 -142 180 -392 463 -481 546 -16 14 -79 72 -140 129 -62 57 -113 109 -113 115 0 19 -48 55 -125 94 -54 26 -138 93 -227 178 -48 45 -94 83 -102 83 -11 0 -186 99 -313 176 -12 8 -28 26 -35 40 -8 17 -37 39 -75 58 -34 18 -70 40 -81 49 -10 9 -26 17 -36 17 -9 0 -34 9 -56 20 -22 11 -45 20 -52 20 -7 0 -55 20 -106 45 -52 25 -97 45 -101 45 -4 0 -22 11 -41 25 -19 14 -44 25 -55 25 -12 0 -98 27 -191 60 -180 65 -520 156 -710 190 -289 53 -408 62 -829 65 -220 2 -418 1 -440 -1z m894 -844 c284 -39 488 -84 741 -166 813 -261 1553 -791 2065 -1479 455 -610 712 -1256 807 -2025 21 -167 17 -701 -5 -875 -76 -578 -252 -1111 -523 -1581 -431 -749 -1077 -1351 -1839 -1715 -409 -195 -861 -322 -1335 -375 -232 -25 -699 -16 -930 20 -305 46 -608 125 -885 229 -114 43 -148 57 -341 147 -216 100 -579 332 -800 511 -364 295 -706 689 -959 1104 -82 134 -237 449 -298 605 -144 368 -238 752 -279 1140 -19 180 -16 598 6 785 93 804 396 1524 913 2172 114 145 476 502 633 627 341 271 755 507 1140 649 360 133 669 202 1100 247 153 16 616 4 789 -20z"></path></g></g><g id="l5wumOR1AlgnzYXLgK6Jcgt" fill="rgb(0,0,1)" style="transform: none;"><g><path id="p19n9rv5Bk" d="M4990 10043 c-903 -34 -1725 -287 -2508 -772 -382 -236 -828 -621 -1126 -971 -624 -731 -1031 -1627 -1165 -2560 -169 -1179 87 -2365 733 -3383 88 -140 275 -394 407 -552 108 -130 476 -499 604 -605 836 -692 1735 -1071 2800 -1180 336 -35 769 -21 1125 35 518 83 966 223 1425 445 662 320 1248 785 1724 1368 605 741 993 1663 1096 2602 131 1202 -170 2390 -863 3400 -265 386 -544 692 -920 1008 -748 629 -1672 1024 -2660 1137 -136 16 -485 36 -557 33 -22 -1 -74 -3 -115 -5z m702 -141 c333 -44 694 -129 982 -232 93 -33 179 -60 191 -60 11 0 36 -11 55 -25 19 -14 37 -25 41 -25 4 0 49 -20 101 -45 51 -25 99 -45 106 -45 7 0 30 -9 52 -20 22 -11 47 -20 56 -20 10 0 26 -8 36 -17 11 -9 47 -31 81 -49 38 -19 67 -41 75 -58 7 -14 23 -32 35 -40 127 -77 302 -176 313 -176 8 0 54 -38 102 -83 89 -85 173 -152 227 -178 76 -38 128 -76 120 -89 -4 -6 41 -49 258 -250 89 -82 339 -365 481 -545 137 -173 165 -214 208 -310 12 -27 62 -128 111 -222 251 -491 428 -1007 506 -1478 48 -290 81 -660 81 -900 0 -270 -53 -793 -109 -1091 -38 -199 -159 -586 -276 -879 -125 -314 -328 -724 -433 -875 -98 -140 -366 -463 -499 -602 -46 -49 -59 -56 -81 -52 -32 6 -59 -14 -297 -222 -38 -33 -117 -98 -175 -143 -112 -89 -141 -118 -133 -137 2 -7 -63 -56 -155 -117 -568 -376 -1300 -648 -2037 -756 -692 -102 -1487 -2 -2250 282 -171 64 -402 168 -528 237 -59 33 -118 60 -131 60 -25 0 -402 247 -584 382 -592 437 -1151 1120 -1478 1804 -200 417 -330 847 -354 1169 -5 66 -18 208 -29 316 -19 184 -46 699 -44 834 2 73 75 600 109 780 111 591 306 1102 614 1612 74 122 86 148 71 158 -23 14 52 136 101 164 16 9 77 77 137 151 234 290 495 545 801 782 96 74 394 271 515 340 511 292 1153 524 1654 598 86 12 96 17 81 35 -14 17 64 30 355 59 22 2 207 3 410 1 302 -2 399 -7 527 -23z"></path><path id="p15x5Gd7sD" d="M4800 9160 c-430 -44 -740 -114 -1100 -247 -385 -142 -799 -378 -1140 -649 -157 -125 -519 -482 -633 -627 -517 -648 -819 -1367 -913 -2172 -22 -188 -25 -660 -6 -845 41 -388 135 -772 279 -1140 61 -156 216 -471 298 -605 320 -525 745 -974 1235 -1307 290 -197 568 -343 865 -455 276 -104 579 -182 885 -229 229 -36 754 -46 990 -20 474 53 926 180 1335 375 762 364 1408 966 1839 1715 271 470 447 1002 523 1581 22 175 26 766 5 935 -50 405 -149 792 -288 1123 -514 1219 -1579 2139 -2844 2457 -332 83 -560 111 -940 115 -168 2 -343 0 -390 -5z m950 -536 c286 -54 643 -196 900 -356 351 -218 646 -534 794 -849 20 -41 51 -127 71 -192 52 -174 102 -261 230 -407 82 -94 144 -138 313 -221 204 -101 319 -177 407 -270 72 -76 124 -172 145 -264 35 -155 28 -1026 -8 -1025 -16 1 -30 18 -62 75 -157 278 -332 507 -547 716 -127 123 -180 164 -398 302 -99 64 -192 125 -207 136 -14 12 -31 21 -36 21 -15 0 -288 147 -362 194 -129 84 -240 205 -305 335 -15 30 -42 100 -60 156 -19 57 -44 124 -56 149 -37 80 -144 158 -274 199 -44 15 -229 53 -340 72 -40 6 -52 10 -220 62 -101 31 -257 107 -355 172 -65 44 -270 242 -270 261 0 17 254 11 395 -9 156 -23 348 -58 396 -71 42 -12 89 -13 89 -1 0 18 -154 152 -240 210 -79 53 -119 74 -245 131 -43 19 -105 32 -253 51 -110 14 -291 7 -467 -17 -66 -10 -183 -18 -260 -18 -216 0 -288 27 -428 162 -54 53 -73 78 -65 84 7 4 67 8 133 8 252 0 554 51 819 137 238 78 312 91 486 92 117 1 172 -4 280 -25z m-2222 -735 c40 -11 96 -31 125 -45 57 -30 147 -111 195 -177 37 -52 42 -45 -88 -129 -158 -102 -378 -319 -458 -451 -55 -90 -102 -212 -124 -315 -43 -199 -24 -486 52 -785 35 -139 55 -192 168 -437 46 -102 107 -243 134 -314 26 -71 57 -144 68 -161 11 -18 20 -37 20 -43 0 -6 -24 -18 -52 -28 -72 -25 -168 -23 -240 5 -64 25 -158 94 -194 142 l-24 33 49 43 c56 49 111 148 111 199 0 31 -3 33 -57 49 -114 33 -178 87 -232 193 -28 56 -42 97 -95 273 -19 65 -31 88 -50 98 -13 7 -40 43 -60 80 -109 199 -223 286 -368 284 -202 -4 -347 -167 -472 -531 -62 -182 -105 -282 -122 -282 -17 0 -65 94 -92 182 -65 209 -89 500 -57 688 9 57 26 134 37 170 49 159 190 375 326 501 68 63 255 179 288 179 9 0 54 -35 99 -78 91 -87 134 -112 190 -112 47 0 71 13 90 50 24 47 18 91 -30 213 -56 142 -58 181 -12 224 17 17 46 38 63 47 41 20 119 37 138 30 8 -3 31 -38 52 -77 85 -165 174 -224 248 -166 73 57 74 128 5 291 -28 66 -48 126 -45 133 4 12 101 38 181 49 51 6 157 -5 233 -25z m671 -231 c88 -50 190 -159 241 -256 29 -56 56 -94 84 -115 120 -95 188 -204 194 -316 5 -88 -7 -128 -73 -241 -177 -304 -209 -415 -209 -740 -1 -231 9 -283 71 -403 46 -87 181 -217 331 -318 127 -86 152 -107 152 -130 0 -43 -232 -256 -344 -316 -70 -37 -73 -38 -201 -41 -212 -6 -277 13 -382 112 -93 86 -187 234 -262 411 -35 83 -105 240 -156 350 -98 213 -137 310 -208 525 -146 437 -90 658 259 1020 147 153 284 307 373 421 30 38 58 69 64 69 5 0 35 -14 66 -32z m1084 -233 c38 -13 94 -39 125 -57 66 -39 212 -176 212 -199 0 -9 -26 -45 -58 -80 -112 -123 -182 -243 -182 -314 0 -114 94 -188 240 -187 105 0 178 29 255 101 110 103 97 97 149 67 81 -47 194 -144 220 -188 13 -24 28 -61 32 -83 5 -29 18 -50 49 -77 63 -56 119 -141 111 -171 -3 -13 -41 -63 -83 -111 -201 -225 -230 -272 -219 -350 14 -90 146 -254 239 -297 52 -23 129 -25 162 -3 14 9 59 64 102 122 42 58 103 134 136 169 50 53 65 63 84 58 37 -9 226 -128 321 -202 463 -360 771 -715 979 -1127 174 -346 252 -619 268 -936 7 -148 -7 -374 -30 -485 -53 -251 -210 -577 -380 -790 -84 -105 -255 -285 -270 -285 -30 0 -47 99 -55 325 -21 550 -128 976 -316 1251 -169 249 -359 397 -579 454 -93 24 -240 30 -440 16 -245 -16 -308 30 -340 254 -25 169 -73 243 -179 271 -119 32 -299 -49 -356 -162 -29 -56 -34 -149 -16 -263 18 -105 15 -132 -12 -140 -82 -23 -247 -12 -347 23 -65 23 -193 100 -247 149 -48 43 -95 115 -109 164 -14 54 9 97 85 157 33 27 95 86 137 132 314 347 377 437 387 555 9 122 -27 174 -172 243 -112 53 -169 95 -300 221 -102 97 -137 160 -157 273 -13 83 -7 196 16 282 16 60 30 81 148 221 127 151 182 321 159 498 -20 157 -77 255 -195 342 -34 25 -63 50 -65 54 -2 5 16 21 40 36 160 101 295 122 451 69z m-2967 -1536 c24 -125 15 -326 -26 -564 -30 -176 -32 -202 -27 -350 9 -291 64 -434 309 -812 172 -267 215 -385 204 -558 -8 -138 -64 -327 -99 -333 -14 -3 -17 5 -17 40 0 54 -24 189 -50 285 -50 182 -137 314 -430 658 -239 279 -342 564 -310 857 21 191 105 456 188 595 80 135 214 295 232 277 6 -6 18 -48 26 -95z m1928 -1544 c88 -39 426 -243 495 -299 86 -69 231 -206 231 -217 0 -12 -180 -11 -290 0 -47 5 -146 26 -220 47 -267 73 -283 75 -660 84 -375 9 -449 18 -568 68 -145 61 -271 168 -337 287 -21 36 -36 68 -34 69 2 2 94 -23 204 -55 110 -32 242 -68 292 -79 111 -24 270 -26 358 -5 72 17 230 99 305 159 l55 43 58 -39 c32 -22 82 -50 111 -63z m2321 -561 c139 -32 350 -161 488 -298 175 -172 301 -402 375 -685 35 -133 35 -140 36 -336 1 -213 -6 -260 -58 -410 -56 -164 -149 -326 -266 -468 -79 -97 -116 -127 -208 -170 -59 -28 -79 -32 -172 -35 -58 -2 -148 1 -200 7 -88 10 -106 16 -270 95 -166 80 -376 160 -485 185 -355 80 -483 112 -670 166 -328 95 -503 158 -670 240 -309 152 -541 334 -670 525 -19 29 -35 56 -35 60 0 11 214 -57 275 -88 28 -13 75 -44 105 -67 59 -45 207 -131 299 -172 162 -72 459 -163 661 -201 201 -38 316 -47 630 -47 254 0 320 3 395 18 374 75 728 243 877 419 63 73 88 129 88 200 0 82 -30 154 -87 210 -114 112 -221 120 -577 44 -121 -25 -305 -58 -410 -73 -167 -24 -223 -28 -446 -28 -226 0 -268 3 -370 23 -129 26 -268 78 -489 184 -182 87 -292 131 -502 202 -214 72 -340 104 -458 117 -154 16 -156 24 -20 64 190 55 439 77 615 56 225 -28 366 -67 689 -188 257 -97 336 -117 436 -111 106 6 147 32 253 161 105 129 265 281 339 326 154 91 325 117 502 75z"></path><path id="pPhlwSSbs" d="M3805 6904 c-105 -38 -194 -199 -195 -350 0 -108 73 -218 154 -231 66 -11 75 42 22 126 -46 70 -51 95 -29 139 35 70 120 115 187 98 101 -25 197 -237 183 -403 -8 -99 -49 -142 -175 -184 -120 -40 -160 -107 -147 -246 8 -85 22 -93 49 -28 29 72 53 85 158 85 134 0 199 37 256 145 l27 50 0 260 0 260 -29 60 c-41 82 -118 157 -208 200 -62 30 -82 35 -143 34 -38 0 -88 -7 -110 -15z"></path><path id="p90l5UuzH" d="M7231 4960 c199 -198 237 -243 348 -408 112 -167 182 -312 257 -536 145 -429 169 -762 86 -1163 -16 -74 -17 -93 -6 -93 26 0 112 235 145 398 26 126 36 380 20 493 -43 299 -191 651 -384 909 -83 111 -237 273 -357 375 -71 60 -234 178 -290 210 -8 5 73 -78 181 -185z"></path></g></g></svg>
