<svg class="img-fluid" id="outputsvg" xmlns="http://www.w3.org/2000/svg" style="transform: matrix(0.769231, 0, 0, 0.769231, 0, 0); transform-origin: 50% 50%; cursor: move; max-height: none; transition: transform 200ms ease-in-out;" width="1024" height="1024" viewBox="0 0 10240 10240"><g id="l28wIQOvZzeYGTv7LIi04M" fill="rgb(215,215,226)" style="transform: none;"><g><path id="p9wt24wgC" d="M2535 7409 c-255 -143 -435 -346 -515 -584 -35 -100 -48 -202 -31 -233 9 -17 21 -22 49 -22 34 0 40 4 56 38 21 44 78 128 239 356 129 181 175 238 286 356 57 61 71 81 71 108 0 30 -2 32 -32 32 -21 0 -66 -19 -123 -51z"></path><path id="pT8SNXu7S" d="M2829 6597 c-190 -187 -309 -382 -392 -642 -19 -60 -41 -141 -48 -180 -19 -95 -19 -470 -1 -542 14 -52 14 -53 52 -53 l39 0 6 58 c34 303 149 707 281 987 56 118 152 293 190 348 23 32 34 58 34 82 0 33 -2 35 -33 35 -29 0 -47 -13 -128 -93z"></path><path id="pgzuXt4Am" d="M4104 6318 c-232 -236 -359 -419 -533 -767 -170 -339 -247 -573 -311 -943 -64 -376 -51 -866 27 -984 11 -17 25 -24 48 -24 l32 0 7 143 c9 189 42 530 61 642 69 401 269 966 497 1405 126 242 230 418 310 525 26 34 38 61 38 83 0 30 -2 32 -33 32 -28 0 -47 -15 -143 -112z"></path><path id="p12U6jLJ9K" d="M6167 5928 c-75 -177 -156 -471 -198 -718 -30 -180 -33 -599 -6 -780 40 -258 133 -592 208 -743 17 -34 56 -106 87 -159 l57 -98 53 0 c49 0 52 1 52 26 0 14 -9 60 -19 102 -134 525 -221 1400 -191 1909 6 105 18 236 26 290 8 54 18 128 21 166 l6 67 -35 0 c-33 0 -36 -3 -61 -62z"></path></g></g><g id="l59agCQ9eWdwc1GFkWJpXOP" fill="rgb(147,146,163)" style="transform: none;"><g><path id="porRlTI3n" d="M2602 7425 l-57 -56 60 32 c33 18 58 30 55 26 -3 -3 -45 -48 -93 -100 -111 -120 -124 -137 -266 -337 -159 -223 -216 -308 -237 -352 -19 -40 -31 -47 -40 -23 -11 27 -24 16 -24 -20 0 -102 198 -193 338 -156 115 32 169 140 237 476 38 192 85 346 134 444 17 33 31 74 31 91 0 28 -2 30 -41 30 -35 0 -47 -7 -97 -55z"></path><path id="pzwTBAPwO" d="M2955 6712 c-17 -13 -97 -132 -88 -132 5 0 26 18 48 40 21 22 40 38 43 36 2 -2 -12 -26 -31 -53 -39 -55 -135 -229 -191 -348 -132 -280 -247 -684 -281 -987 -4 -32 -11 -58 -16 -58 -5 0 -9 7 -9 15 0 8 -7 15 -15 15 -20 0 -20 -59 1 -88 28 -41 66 -52 171 -52 116 0 164 18 231 83 51 49 86 113 109 200 20 74 23 339 9 672 -10 237 -4 282 59 486 19 61 35 126 35 145 0 32 -2 34 -32 34 -18 0 -37 -4 -43 -8z"></path><path id="p1aTMW8fK" d="M4258 6473 c-33 -36 -74 -91 -127 -172 -18 -28 -7 -20 49 34 67 64 70 66 41 25 -104 -149 -191 -296 -313 -530 -233 -447 -433 -1009 -503 -1415 -19 -112 -52 -453 -61 -644 -6 -116 -9 -141 -19 -127 -18 24 -25 20 -25 -17 0 -39 17 -58 80 -86 38 -17 66 -21 180 -21 122 0 140 2 187 25 139 64 270 257 334 494 32 117 35 291 11 571 -29 328 -35 529 -22 709 24 334 99 631 251 996 23 55 44 121 46 148 l5 47 -39 0 c-32 0 -45 -7 -75 -37z"></path><path id="pjjOTbdOD" d="M6217 6043 c-8 -21 -18 -62 -22 -91 -3 -29 -8 -60 -11 -70 -2 -9 7 6 21 33 l25 50 -5 -40 c-3 -22 -12 -85 -20 -140 -41 -284 -41 -749 0 -1215 31 -357 104 -812 169 -1057 14 -51 14 -53 -6 -53 -12 0 -27 8 -34 18 -12 15 -13 13 -14 -17 0 -52 41 -91 96 -91 40 0 43 2 78 60 137 232 225 586 226 910 l0 145 -61 175 c-120 344 -188 558 -200 626 -6 38 -26 146 -45 239 -36 183 -104 543 -104 550 0 3 -17 5 -38 5 -35 0 -40 -3 -55 -37z"></path><path id="pQ8UUKoSq" d="M5940 4830 c0 -78 3 -100 14 -100 18 0 26 31 26 100 0 69 -8 100 -26 100 -11 0 -14 -22 -14 -100z"></path></g></g><g id="l42nxmQVsMYxFYMeEk9yDND" fill="rgb(167,128,135)" style="transform: none;"><g><path id="p1GGzqKVDQ" d="M1716 6458 c-25 -51 -57 -133 -73 -183 -26 -86 -27 -100 -28 -300 0 -212 9 -292 41 -342 12 -19 24 -23 62 -23 43 0 57 6 128 58 172 127 243 210 333 389 35 71 51 115 51 141 0 38 -2 40 -47 57 -121 46 -266 161 -320 253 -23 38 -29 42 -64 42 l-39 0 -44 -92z"></path><path id="pv6x9wGtN" d="M2088 5503 c-40 -47 -111 -189 -145 -288 -81 -239 -69 -481 36 -701 85 -178 174 -297 282 -378 54 -41 67 -46 113 -46 l52 0 43 108 c68 168 119 262 255 470 89 137 126 202 126 223 l0 29 -102 -2 c-87 -3 -112 1 -163 20 -77 29 -182 107 -240 180 -59 73 -138 236 -160 330 -17 71 -18 72 -50 72 -18 0 -38 -8 -47 -17z"></path><path id="p6QU6w5Hi" d="M6920 4715 c0 -14 12 -83 27 -153 22 -108 26 -152 26 -292 1 -111 -5 -198 -16 -265 -21 -117 -84 -363 -126 -487 -78 -230 -197 -368 -362 -419 -77 -24 -111 -24 -194 2 -57 17 -76 30 -134 87 -39 39 -87 101 -113 147 -49 84 -168 352 -208 468 -23 65 -25 67 -57 67 l-33 0 0 -109 c0 -76 9 -157 29 -272 47 -258 56 -363 43 -460 -7 -45 -14 -84 -16 -86 -20 -20 -132 111 -200 234 -124 223 -225 341 -347 402 -60 30 -67 31 -190 31 l-129 0 -25 -40 c-14 -22 -25 -43 -25 -47 0 -18 -114 -204 -151 -246 -45 -52 -154 -131 -168 -123 -32 20 -15 112 75 411 83 278 94 332 94 474 0 138 -14 201 -72 324 -41 86 -42 87 -77 87 l-36 0 -13 -76 c-23 -144 -119 -393 -217 -560 -74 -126 -131 -200 -225 -294 -164 -163 -301 -219 -546 -220 -220 -1 -345 70 -429 244 -91 189 -185 620 -185 849 l0 57 -35 0 c-33 0 -37 -4 -79 -77 -55 -94 -101 -217 -128 -343 -28 -127 -29 -380 -4 -525 23 -131 75 -290 128 -392 57 -110 190 -275 302 -375 164 -148 472 -327 691 -403 28 -10 64 -23 80 -30 74 -33 600 -172 735 -195 36 -6 99 -17 140 -25 232 -43 668 -68 1150 -67 386 1 554 13 747 52 450 91 835 355 1002 689 66 129 99 332 108 646 9 326 -23 586 -91 740 -44 97 -149 246 -228 321 -122 115 -398 274 -478 274 -36 0 -40 -2 -40 -25z"></path></g></g><g id="l67OXwnPojtGLNPZ80vmNN5" fill="rgb(248,121,30)" style="transform: none;"><g><path id="pdeh80hB6" d="M4900 9890 c-960 -46 -1852 -371 -2640 -961 -490 -368 -942 -868 -1250 -1384 -97 -162 -264 -500 -329 -665 -237 -599 -341 -1140 -341 -1775 0 -357 16 -552 70 -870 77 -447 208 -845 414 -1261 251 -508 532 -900 936 -1305 751 -753 1702 -1220 2765 -1355 210 -27 1037 -27 1240 -1 383 51 788 155 1145 294 142 55 478 218 625 303 565 325 1068 775 1470 1315 405 543 701 1200 838 1861 317 1523 -86 3047 -1114 4209 -110 125 -321 333 -454 449 -404 352 -981 689 -1485 867 -361 128 -615 193 -950 243 -302 45 -545 54 -940 36z m640 -715 c1075 -121 2047 -638 2746 -1461 501 -589 837 -1348 934 -2108 46 -363 48 -607 9 -958 -59 -537 -204 -1006 -460 -1497 -203 -388 -504 -784 -829 -1088 -662 -620 -1469 -993 -2390 -1105 -132 -16 -651 -15 -810 1 -493 51 -965 191 -1420 421 -1154 584 -1977 1675 -2220 2945 -46 241 -61 402 -67 690 -4 218 -1 314 11 435 38 353 108 662 228 1000 64 179 101 263 198 455 192 379 418 696 743 1037 165 174 449 409 682 565 773 517 1763 767 2645 668z"></path></g></g><g id="l5topg7aH5dxBNAQ12vC0KK" fill="rgb(118,98,106)" style="transform: none;"><g><path id="pBt5i8DNM" d="M7880 5528 c0 -24 7 -117 15 -208 30 -348 39 -634 39 -1338 l1 -713 44 3 c44 3 47 6 109 87 99 132 166 247 293 501 126 255 200 438 254 636 83 304 68 460 -61 604 -52 56 -323 263 -511 389 -86 57 -131 81 -153 81 -29 0 -30 -2 -30 -42z"></path></g></g><g id="l35VWvtmkT5woVXCCiF4BqI" fill="rgb(89,83,80)" style="transform: none;"><g><path id="pG9llRWXu" d="M5804 7475 c-44 -8 -118 -26 -165 -41 -420 -132 -602 -380 -653 -890 -17 -168 -23 -196 -77 -364 -33 -101 -34 -111 -33 -255 0 -134 3 -158 27 -230 44 -132 124 -230 251 -310 135 -84 286 -125 460 -125 l105 0 11 43 c163 613 280 929 387 1032 46 45 128 75 202 75 51 0 62 -4 99 -36 52 -44 136 -171 206 -311 81 -162 167 -436 231 -738 14 -66 27 -130 30 -143 4 -18 12 -22 44 -22 32 0 49 9 112 63 121 104 219 226 281 352 76 152 101 283 102 530 1 251 -18 352 -92 500 -214 430 -578 724 -1052 852 -119 32 -347 41 -476 18z"></path></g></g><g id="l5Lsi2M11oqhFw3uj4OsUnG" fill="rgb(70,66,64)" style="transform: none;"><g><path id="pUqVLExUu" d="M5600 8119 c-371 -27 -889 -138 -1065 -230 -142 -74 -273 -189 -355 -311 -31 -47 -40 -70 -40 -103 0 -40 5 -47 65 -103 68 -64 129 -98 315 -173 84 -34 120 -44 181 -47 49 -3 85 0 100 9 13 6 120 78 239 159 118 81 253 168 300 193 183 98 402 148 660 150 152 1 365 -17 405 -33 11 -5 56 -17 100 -26 161 -34 331 -110 460 -206 39 -29 122 -104 186 -168 236 -235 385 -479 509 -835 62 -177 115 -286 201 -415 126 -190 284 -317 585 -472 165 -85 216 -97 229 -55 4 12 9 114 12 228 6 238 -4 338 -49 478 -66 208 -269 696 -384 922 -76 150 -238 397 -326 496 -71 79 -213 205 -292 257 -189 125 -504 222 -846 261 -293 33 -896 45 -1190 24z"></path><path id="p5Ddywf78" d="M3522 7300 c-29 -4 -55 -10 -58 -12 -8 -9 -255 -724 -280 -813 -34 -120 -43 -278 -20 -323 20 -40 100 -94 243 -166 79 -39 124 -56 152 -56 l39 0 33 83 c76 191 132 273 269 392 185 162 407 276 620 319 65 13 65 13 68 49 4 44 -24 88 -123 195 -146 157 -360 286 -536 322 -99 21 -300 25 -407 10z"></path><path id="pbiaxNKHJ" d="M4541 6169 c-129 -287 -171 -451 -171 -670 0 -283 88 -506 297 -755 179 -213 267 -404 318 -692 9 -48 18 -97 20 -109 7 -28 71 -72 160 -108 39 -15 84 -34 102 -41 17 -8 35 -14 40 -14 5 0 28 -9 51 -20 22 -11 54 -20 70 -20 l29 0 6 198 c10 352 71 689 162 901 19 46 35 96 35 112 0 32 6 29 -120 49 -187 30 -427 140 -540 247 -224 211 -335 543 -314 946 l7 137 -40 0 -39 0 -73 -161z"></path><path id="pWpsydPzg" d="M7481 5408 c-64 -95 -136 -184 -243 -301 -72 -77 -88 -100 -88 -126 0 -27 7 -35 46 -59 74 -43 202 -136 293 -212 78 -65 88 -71 125 -68 l41 3 22 85 c18 71 22 113 22 255 0 184 -11 269 -53 408 l-27 87 -44 0 c-44 0 -45 -1 -94 -72z"></path><path id="phpJ82ZZR" d="M330 5115 c0 -128 1 -135 20 -135 19 0 20 7 20 135 0 128 -1 135 -20 135 -19 0 -20 -7 -20 -135z"></path><path id="pZJW3adFI" d="M5020 100 c0 -19 7 -20 163 -20 174 0 207 4 207 26 0 11 -34 14 -185 14 -178 0 -185 -1 -185 -20z"></path></g></g><g id="l1YJNUyFEP8bk8YZ00QOG7I" fill="rgb(0,0,1)" style="transform: none;"><g><path id="pFZYWyJm0" d="M4920 10094 c-25 -2 -106 -8 -180 -14 -461 -37 -984 -161 -1425 -338 -1007 -404 -1884 -1143 -2442 -2057 -412 -674 -649 -1380 -717 -2135 -62 -688 11 -1351 220 -2003 302 -936 931 -1821 1736 -2440 651 -500 1454 -845 2248 -967 325 -49 518 -60 910 -50 340 8 509 25 787 75 947 172 1859 645 2559 1328 598 583 1025 1265 1289 2061 257 776 315 1630 164 2441 -113 605 -335 1176 -664 1711 -402 653 -980 1235 -1621 1632 -664 411 -1361 650 -2154 738 -127 14 -611 26 -710 18z m591 -235 c504 -39 1075 -186 1540 -394 438 -197 870 -469 1194 -751 902 -785 1479 -1851 1634 -3020 94 -703 14 -1468 -225 -2154 -377 -1088 -1154 -2027 -2149 -2600 -147 -85 -483 -248 -625 -303 -357 -139 -762 -243 -1145 -294 -201 -26 -971 -26 -1180 1 -1062 135 -2014 602 -2765 1355 -404 405 -685 797 -936 1305 -275 555 -431 1131 -473 1746 -22 317 -23 395 -6 615 41 552 139 988 336 1485 65 165 232 503 329 665 308 516 760 1016 1250 1384 250 187 475 327 750 465 506 255 1016 406 1590 472 272 31 657 41 881 23z"></path><path id="p1CLuJhii1" d="M4895 9220 c-962 -62 -1867 -453 -2568 -1109 -120 -112 -140 -133 -266 -271 -245 -270 -454 -574 -621 -905 -97 -192 -134 -276 -198 -455 -120 -338 -191 -647 -228 -1000 -22 -217 -15 -710 15 -925 102 -749 356 -1375 799 -1975 589 -797 1474 -1369 2442 -1580 300 -65 481 -82 875 -84 414 -1 614 21 971 109 1247 307 2273 1165 2805 2345 403 894 476 1925 203 2869 -205 709 -629 1392 -1163 1875 -694 627 -1483 987 -2391 1091 -165 19 -499 26 -675 15z m1540 -1130 c369 -20 605 -57 840 -135 207 -68 315 -127 471 -261 123 -105 199 -195 315 -368 114 -172 193 -322 309 -591 173 -401 260 -644 279 -778 19 -135 10 -471 -13 -494 -9 -9 -308 151 -416 222 -245 161 -406 386 -530 740 -124 356 -273 600 -509 835 -64 64 -147 139 -186 168 -129 96 -299 172 -460 206 -44 9 -89 21 -100 26 -43 18 -258 34 -435 33 -289 -2 -499 -47 -690 -150 -47 -25 -182 -112 -300 -193 -119 -81 -226 -153 -239 -160 -37 -19 -106 -7 -221 39 -187 76 -247 109 -318 176 l-67 63 16 33 c54 113 234 281 383 358 180 92 695 203 1066 230 168 12 586 12 805 1z m-185 -663 c472 -126 838 -422 1052 -852 46 -90 59 -129 74 -215 34 -194 20 -470 -33 -635 -43 -137 -166 -322 -289 -434 -75 -69 -123 -105 -130 -98 -3 3 -21 75 -39 161 -95 441 -192 706 -340 931 -63 95 -121 150 -168 159 -47 9 -167 -9 -218 -31 -24 -11 -59 -34 -76 -52 -104 -103 -223 -424 -383 -1028 l-11 -43 -75 0 c-247 0 -502 126 -625 311 -16 24 -41 80 -56 124 -22 67 -26 99 -27 200 -1 110 2 128 33 225 54 168 60 196 77 364 38 387 152 618 377 763 251 163 588 222 857 150z m-3570 -38 c-50 -98 -97 -251 -135 -444 -36 -176 -70 -294 -106 -366 -39 -78 -131 -128 -208 -114 -87 16 -168 71 -201 136 -17 32 -18 46 -10 87 42 225 191 444 412 607 61 45 252 155 271 155 4 0 -7 -27 -23 -61z m1219 -129 c176 -36 390 -165 536 -322 77 -83 128 -154 121 -167 -3 -4 -26 -11 -52 -15 -68 -9 -240 -69 -331 -115 -114 -58 -200 -116 -303 -206 -137 -119 -193 -201 -269 -392 -19 -46 -37 -83 -42 -83 -18 0 -234 113 -291 152 -77 52 -92 82 -84 173 3 38 17 111 31 160 23 87 270 804 279 813 10 9 115 20 211 21 64 0 134 -6 194 -19z m-933 -688 c-66 -208 -70 -247 -60 -517 13 -362 10 -568 -9 -642 -33 -126 -104 -220 -197 -262 -62 -28 -172 -29 -217 -1 -41 25 -48 39 -69 140 -13 68 -16 116 -11 250 6 176 19 249 69 400 92 280 232 493 462 698 32 29 60 51 62 49 3 -2 -11 -54 -30 -115z m-1133 -94 c54 -92 199 -207 320 -253 26 -10 47 -22 47 -27 0 -19 -105 -217 -146 -274 -23 -33 -69 -85 -101 -114 -81 -74 -213 -170 -235 -170 -50 0 -73 107 -72 335 0 167 2 187 28 270 29 96 111 275 125 275 5 0 20 -19 34 -42z m2504 -15 c-3 -10 -24 -63 -47 -118 -246 -601 -298 -1000 -228 -1765 23 -258 20 -396 -11 -511 -64 -236 -195 -430 -334 -494 -45 -21 -67 -25 -157 -25 -90 0 -112 4 -157 24 -87 41 -123 122 -143 315 -41 410 43 938 215 1362 124 304 328 658 493 858 67 80 353 371 366 371 4 0 6 -8 3 -17z m317 -290 c-20 -406 92 -745 316 -956 113 -107 353 -217 540 -247 135 -21 124 -8 85 -101 -91 -211 -151 -547 -163 -906 l-7 -191 -39 19 c-22 10 -44 19 -49 19 -5 0 -23 6 -40 14 -18 7 -63 26 -102 41 -89 36 -153 80 -160 108 -2 12 -11 61 -20 109 -51 288 -139 479 -318 692 -294 350 -366 696 -232 1103 38 113 175 423 187 423 4 0 5 -57 2 -127z m1626 -128 c0 -7 68 -367 104 -550 19 -93 39 -201 45 -239 12 -68 80 -282 200 -626 l61 -175 0 -115 c-1 -234 -62 -526 -157 -742 -43 -98 -102 -198 -117 -198 -31 0 -125 138 -210 307 -79 159 -172 486 -213 753 -27 180 -24 542 6 720 28 163 88 410 132 540 41 124 129 330 140 330 5 0 9 -2 9 -5z m2046 -796 c234 -175 303 -257 324 -385 18 -111 -30 -332 -131 -602 -58 -155 -257 -561 -342 -698 -72 -117 -179 -258 -198 -262 -12 -2 -14 94 -15 705 0 699 -9 1000 -39 1342 -8 91 -15 172 -15 179 0 16 203 -120 416 -279z m-6171 169 c22 -94 101 -257 160 -330 58 -73 163 -151 240 -180 48 -19 80 -23 161 -23 l100 1 -124 -191 c-134 -205 -185 -300 -253 -467 -36 -91 -46 -108 -65 -108 -27 0 -130 77 -182 135 -152 173 -271 449 -272 631 0 160 62 366 162 534 20 33 48 70 53 70 2 0 11 -33 20 -72z m5461 -55 c40 -133 53 -225 53 -378 0 -111 -5 -158 -22 -225 -16 -63 -26 -85 -38 -84 -8 1 -53 32 -98 70 -91 76 -212 164 -285 207 l-48 28 84 90 c107 116 188 215 250 307 27 39 55 72 63 72 9 0 24 -30 41 -87z m-554 -699 c239 -120 375 -231 483 -394 82 -122 111 -189 141 -320 62 -275 55 -747 -16 -1024 -38 -148 -133 -299 -275 -435 -112 -107 -223 -182 -376 -255 -300 -144 -548 -186 -1119 -188 -452 -1 -892 25 -1120 67 -41 8 -104 19 -140 25 -135 23 -661 162 -735 195 -16 7 -52 20 -80 30 -128 44 -339 151 -484 246 -150 97 -277 211 -382 344 -99 125 -157 231 -203 375 -116 358 -85 735 82 1016 l47 79 3 -55 c19 -408 151 -876 279 -990 93 -83 185 -110 367 -110 210 1 317 26 435 102 75 48 194 164 262 253 140 184 289 518 321 719 7 42 15 76 19 76 11 0 88 -174 104 -235 19 -75 19 -213 0 -304 -8 -39 -44 -168 -80 -286 -63 -211 -95 -341 -95 -387 0 -13 5 -40 11 -62 10 -37 12 -38 44 -33 45 7 142 74 194 134 37 42 151 228 151 246 0 4 11 25 25 47 l25 40 99 0 c90 0 103 -3 160 -31 121 -61 223 -179 346 -401 74 -133 195 -268 242 -268 16 0 34 83 40 186 7 104 -5 216 -48 453 -17 98 -29 196 -28 245 l0 81 21 -55 c53 -140 174 -413 216 -485 26 -46 75 -108 113 -147 58 -57 77 -70 134 -87 216 -67 432 36 550 261 63 119 154 426 192 643 26 156 24 447 -5 592 -12 62 -25 120 -28 128 -9 24 10 18 108 -31z"></path></g></g></svg>
