<svg class="img-fluid" id="outputsvg" xmlns="http://www.w3.org/2000/svg" style="transform: none; transform-origin: 50% 50%; cursor: move;" width="1024" height="1024" viewBox="0 0 10240 10240"><g id="l1qW26MFpv3VLYYxByB8Du6" fill="rgb(255,254,254)" style="transform: none;"><g><path id="p1Bb5PEly8" d="M3860 8709 c0 -26 8 -52 22 -72 26 -37 359 -449 612 -757 298 -363 872 -1081 1526 -1909 85 -108 238 -302 340 -430 677 -855 727 -925 821 -1154 57 -139 84 -185 132 -221 127 -97 362 -122 483 -51 53 31 62 44 114 164 37 85 40 99 40 185 0 79 -4 99 -26 144 -32 64 -59 86 -132 107 -118 35 -266 127 -395 245 -159 146 -1432 1530 -2157 2345 -156 176 -347 390 -425 475 -77 85 -257 285 -400 445 -143 159 -311 343 -374 407 -101 105 -118 118 -147 118 -33 0 -34 -1 -34 -41z"></path><path id="p1DbAGh7lJ" d="M2855 8050 c-214 -28 -570 -239 -965 -571 -146 -123 -295 -276 -315 -322 -9 -23 -15 -68 -15 -119 0 -70 4 -92 28 -143 36 -75 126 -182 204 -240 53 -40 66 -45 112 -45 52 0 55 2 162 91 687 576 856 693 1048 730 27 5 125 9 219 9 l169 0 -4 94 c-4 87 -7 101 -46 180 -59 119 -176 242 -276 291 -100 50 -188 62 -321 45z"></path><path id="p2j8wQXUT" d="M3415 7285 c-327 -60 -751 -319 -1090 -667 -188 -191 -235 -281 -235 -443 0 -128 36 -210 131 -301 85 -80 107 -94 153 -94 39 0 49 7 186 136 423 395 624 564 818 683 131 80 150 86 287 81 66 -2 170 -4 230 -4 l110 -1 3 68 c5 123 -68 351 -140 432 -92 104 -261 146 -453 110z"></path></g></g><g id="l3AOtYhmabBel7ce27RSHZ7" fill="rgb(177,221,121)" style="transform: none;"><g><path id="pcoTkuv6Z" d="M4650 9939 c-660 -62 -1225 -223 -1787 -508 -812 -412 -1495 -1054 -1979 -1863 -101 -168 -263 -494 -327 -658 -25 -63 -56 -144 -70 -180 -79 -203 -177 -588 -222 -875 -47 -301 -57 -469 -52 -835 5 -347 15 -467 62 -752 91 -552 304 -1144 585 -1628 313 -537 691 -982 1155 -1357 596 -482 1291 -809 2035 -958 331 -66 455 -77 940 -82 440 -6 544 -1 780 33 571 82 1173 285 1655 559 848 481 1543 1210 1969 2065 278 557 441 1122 502 1740 25 243 24 733 0 955 -92 841 -368 1586 -839 2265 -232 334 -478 615 -767 872 -740 661 -1651 1072 -2640 1194 -157 19 -843 28 -1000 13z m624 -759 c791 -51 1539 -327 2181 -804 1041 -776 1667 -2006 1668 -3276 0 -411 -49 -755 -164 -1155 -161 -562 -411 -1037 -798 -1515 -121 -150 -433 -458 -591 -584 -316 -253 -705 -480 -1045 -611 -534 -206 -1032 -295 -1565 -280 -483 13 -796 68 -1230 214 -631 213 -1209 589 -1663 1080 -541 584 -895 1267 -1047 2021 -109 541 -114 961 -20 1521 77 458 279 989 536 1406 351 570 855 1067 1434 1413 681 407 1536 619 2304 570z"></path></g></g><g id="l2IXjRJExt5SA3Q3EkFoj7F" fill="rgb(45,168,154)" style="transform: none;"><g><path id="p5xaa2jPx" d="M3920 7527 c0 -28 14 -47 106 -137 195 -194 263 -320 289 -542 5 -36 17 -74 34 -100 29 -45 139 -183 261 -328 223 -265 345 -563 380 -925 5 -60 10 -116 10 -123 0 -9 13 -12 42 -10 l42 3 23 72 c40 130 56 278 50 473 -9 285 -73 493 -229 748 -99 163 -277 353 -462 495 -66 51 -178 144 -251 207 -214 189 -230 200 -264 200 -28 0 -31 -3 -31 -33z"></path><path id="p7jw4cm3M" d="M7350 3703 c-104 -17 -237 -87 -298 -157 -48 -55 -101 -167 -124 -265 -18 -75 -21 -127 -25 -418 l-5 -333 44 0 c43 0 43 0 102 86 89 131 139 238 202 432 78 243 174 465 243 567 12 17 21 45 21 63 l0 32 -67 -1 c-38 -1 -79 -4 -93 -6z"></path></g></g><g id="l2t4VXphYhETsedZBdp0ouH" fill="rgb(120,76,39)" style="transform: none;"><g><path id="pwb1HW3wt" d="M3875 6551 c-167 -59 -280 -116 -450 -226 -246 -160 -447 -350 -694 -658 -83 -103 -83 -105 -46 -259 71 -295 70 -286 67 -904 -4 -597 1 -692 44 -942 102 -599 339 -1099 681 -1438 168 -167 363 -299 648 -439 222 -108 389 -160 668 -205 206 -33 362 -41 900 -47 l517 -5 0 35 c0 35 -1 36 -82 68 -46 17 -222 66 -393 109 -406 101 -608 178 -852 323 -177 106 -368 269 -493 422 -206 253 -327 558 -374 945 -51 419 -49 778 11 1775 30 509 37 1076 15 1305 -7 74 -15 143 -18 153 -8 25 -55 22 -149 -12z"></path></g></g><g id="l5fmYd1nWy3lkhubK76ktjU" fill="rgb(100,59,28)" style="transform: none;"><g><path id="p1ARcmMXCt" d="M4274 5853 c0 -385 -4 -544 -22 -818 -66 -1033 -49 -1540 68 -1948 125 -433 339 -720 730 -977 372 -244 891 -424 1399 -486 199 -24 566 -16 671 15 379 111 819 581 1094 1170 188 401 276 670 276 839 0 158 -30 192 -173 192 -180 0 -364 -90 -549 -268 -158 -152 -249 -317 -342 -616 -193 -620 -324 -788 -627 -804 -273 -14 -705 117 -1192 360 -260 129 -422 250 -546 404 -309 383 -388 705 -361 1467 10 313 22 473 46 652 8 61 22 162 31 225 20 151 13 335 -17 445 -42 155 -120 295 -253 453 -101 120 -162 172 -201 172 l-32 0 0 -477z"></path></g></g><g id="l3Jp3qILlKSOQAVKHNwHLMB" fill="rgb(0,0,0)" style="transform: none;"><g><path id="pPe5ps0Im" d="M4705 10119 c-1063 -82 -2022 -472 -2865 -1168 -140 -115 -495 -469 -609 -606 -336 -406 -598 -826 -791 -1270 -386 -889 -507 -1869 -345 -2800 83 -473 200 -859 386 -1270 427 -945 1128 -1729 2029 -2268 164 -98 507 -265 700 -340 792 -311 1644 -415 2497 -307 643 82 1292 303 1872 637 73 43 329 210 406 266 495 362 924 811 1272 1332 391 587 682 1343 787 2050 48 319 68 770 47 1044 -85 1100 -481 2071 -1192 2926 -120 145 -482 502 -641 634 -731 606 -1659 1009 -2568 1115 -309 36 -706 46 -985 25z m915 -224 c987 -120 1900 -532 2640 -1193 819 -730 1382 -1742 1559 -2803 51 -299 64 -466 64 -774 1 -597 -89 -1105 -293 -1670 -241 -668 -623 -1267 -1130 -1775 -199 -200 -343 -325 -553 -482 -699 -520 -1518 -834 -2392 -919 -197 -19 -889 -6 -1095 20 -1296 167 -2464 858 -3230 1911 -515 708 -819 1485 -926 2370 -25 208 -30 701 -10 916 21 220 56 444 102 648 38 169 117 445 161 556 14 36 45 117 70 180 64 164 226 490 327 658 484 809 1167 1451 1979 1863 562 285 1126 445 1787 508 153 15 782 6 940 -14z"></path><path id="p5FMXhCMM" d="M4850 9213 c-459 -21 -969 -136 -1395 -315 -797 -333 -1492 -929 -1949 -1671 -257 -417 -459 -948 -536 -1406 -96 -570 -90 -1033 20 -1581 109 -538 317 -1032 632 -1503 150 -225 407 -526 608 -714 515 -480 1115 -808 1800 -982 312 -79 524 -106 920 -117 570 -15 1060 71 1605 281 340 131 729 358 1045 611 158 126 470 434 591 584 387 478 637 953 798 1515 118 409 164 745 164 1185 0 360 -36 657 -122 996 -232 920 -781 1740 -1546 2310 -767 571 -1683 851 -2635 807z m-692 -768 c192 -210 682 -754 1052 -1169 751 -844 2000 -2201 2157 -2346 129 -118 277 -210 395 -245 73 -21 100 -43 132 -107 42 -84 37 -152 -20 -283 -49 -112 -73 -139 -149 -171 -75 -31 -221 -17 -314 31 -102 51 -130 89 -205 272 -87 216 -144 295 -816 1144 -102 128 -255 322 -340 430 -654 828 -1228 1546 -1526 1909 -253 308 -586 720 -612 757 -41 58 -22 58 39 -2 33 -33 127 -132 207 -220z m-1088 -437 c79 -23 152 -72 230 -155 101 -106 159 -217 167 -317 l6 -66 -170 0 c-94 0 -192 -4 -219 -9 -192 -37 -361 -154 -1048 -730 -66 -55 -118 -91 -132 -91 -32 0 -132 79 -199 157 -105 123 -139 236 -100 330 43 103 442 448 757 654 320 209 535 278 708 227z m1115 -678 c73 -63 185 -156 251 -207 123 -94 296 -264 375 -368 135 -176 241 -401 290 -615 29 -126 36 -346 15 -488 -22 -149 -62 -279 -80 -261 -2 2 -9 58 -16 124 -34 371 -155 668 -380 935 -122 145 -232 283 -261 328 -17 26 -29 64 -34 100 -10 90 -42 206 -71 264 -46 91 -83 139 -208 267 -131 135 -104 117 119 -79z m-564 -70 c79 -15 172 -64 217 -115 63 -72 147 -314 140 -402 l-3 -38 -80 1 c-44 0 -145 3 -225 5 -167 5 -192 -2 -322 -82 -211 -130 -407 -296 -930 -788 -46 -43 -57 -39 -153 51 -79 73 -107 115 -129 188 -30 101 -12 209 51 314 78 128 379 409 608 567 203 141 470 261 650 294 89 17 110 17 176 5z m390 -880 c22 -232 16 -732 -14 -1245 -39 -647 -47 -840 -47 -1140 0 -507 38 -851 121 -1105 175 -533 580 -923 1203 -1157 67 -25 259 -80 431 -123 314 -79 505 -141 455 -148 -49 -8 -958 7 -1085 17 -239 21 -498 71 -680 132 -192 65 -524 245 -703 381 -442 336 -746 897 -866 1600 -43 248 -47 342 -44 935 3 545 2 561 -20 684 -12 70 -34 173 -48 230 l-25 103 23 31 c53 73 217 264 306 357 212 221 489 420 737 530 125 55 229 88 236 75 4 -7 13 -77 20 -157z m394 -171 c292 -313 389 -574 341 -924 -56 -407 -70 -577 -81 -1010 -16 -594 55 -944 253 -1237 176 -260 334 -394 659 -556 388 -194 682 -297 991 -347 142 -24 334 -17 414 14 204 79 312 255 474 777 93 299 184 464 342 616 132 127 254 203 396 247 128 39 218 23 251 -45 53 -112 -39 -429 -261 -905 -275 -589 -716 -1060 -1094 -1170 -106 -30 -417 -38 -610 -15 -607 74 -1223 317 -1601 632 -366 305 -552 700 -613 1304 -34 335 -30 693 16 1415 18 268 22 440 23 816 l0 477 25 -18 c14 -10 48 -42 75 -71z m3056 -2561 c-75 -114 -167 -327 -245 -570 -32 -97 -77 -215 -100 -261 -55 -106 -157 -257 -174 -257 -12 0 -13 53 -9 303 4 259 7 314 25 388 23 98 76 210 124 265 78 89 232 158 361 163 l39 1 -21 -32z"></path></g></g></svg>
