<svg class="img-fluid" id="outputsvg" xmlns="http://www.w3.org/2000/svg"
     style="transform: matrix(0.591716, 0, 0, 0.591716, 0, 0); transform-origin: 50% 50%; cursor: move; transition: transform 200ms ease-in-out;"
     width="1024" height="1024" viewBox="0 0 10240 10240">
    <g id="l4kJpczXDdjBmTIYjTVY7Eo" fill="rgb(252,197,54)" style="transform: none;">
        <g>
            <path id="pZdPSbNKD"
                  d="M3858 6950 c-26 -16 -58 -114 -58 -177 l0 -56 165 7 c90 3 172 9 180 12 12 5 15 17 13 47 l-3 40 -107 56 c-60 30 -108 61 -108 68 0 15 -57 17 -82 3z"></path>
            <path id="p1EU2RD3mM"
                  d="M2922 6749 c-7 -28 -12 -70 -12 -95 0 -44 0 -44 -35 -44 -33 0 -35 -2 -35 -33 0 -51 34 -77 98 -77 l52 0 0 73 c0 41 3 108 6 150 l7 77 -35 0 c-33 0 -35 -2 -46 -51z"></path>
            <path id="pnqhES3zx"
                  d="M4370 6658 c-47 -5 -208 -22 -359 -38 -226 -24 -278 -32 -292 -47 -37 -37 -61 -182 -109 -652 -16 -163 -37 -348 -45 -411 -8 -62 -15 -145 -15 -183 l0 -70 162 -163 162 -164 53 0 c34 0 55 4 57 13 2 6 13 111 25 232 32 326 90 841 102 912 6 34 16 67 23 72 6 6 131 24 276 40 146 17 331 38 413 48 l147 17 0 38 c0 36 -2 38 -30 38 -17 0 -45 7 -63 16 -44 23 -201 129 -266 180 -50 40 -54 46 -55 86 l-1 43 -50 1 c-27 1 -88 -2 -135 -8z"></path>
            <path id="pwR7fKLZB"
                  d="M3335 6468 c-5 -17 -23 -201 -30 -318 -8 -119 6 -172 70 -280 l49 -80 47 0 46 0 6 48 c4 26 16 175 28 331 21 276 21 284 4 298 -25 18 -214 19 -220 1z"></path>
            <path id="pXmhgSGoS"
                  d="M4285 6025 c-5 -2 -23 -6 -38 -9 -25 -6 -28 -10 -25 -44 3 -33 6 -37 33 -40 16 -2 56 2 88 9 l58 12 -3 36 c-3 36 -3 36 -53 38 -27 1 -54 0 -60 -2z"></path>
            <path id="pmMlDOMim"
                  d="M4587 5403 c-4 -3 -7 -46 -7 -95 l0 -88 39 0 c37 0 39 2 45 38 3 20 6 63 6 95 l0 57 -38 0 c-21 0 -42 -3 -45 -7z"></path>
            <path id="p7OrU7jXj"
                  d="M4075 4948 c-5 -25 -25 -230 -25 -260 0 -14 8 -18 34 -18 18 0 39 6 45 14 7 8 14 70 18 150 l6 136 -36 0 c-30 0 -38 -4 -42 -22z"></path>
            <path id="p1D6uZ4OS6"
                  d="M4220 4081 c0 -18 16 -57 38 -93 21 -35 81 -135 132 -223 51 -88 115 -195 143 -237 51 -77 51 -78 94 -78 41 0 43 1 43 30 0 30 -18 80 -30 80 -4 0 -24 26 -46 58 -21 31 -42 59 -45 62 -3 3 -16 25 -28 49 -13 24 -35 61 -50 82 -16 21 -34 53 -41 71 -8 18 -23 46 -34 62 -12 16 -37 59 -56 95 -34 64 -36 66 -77 69 -42 3 -43 2 -43 -27z"></path>
            <path id="pGZ1Q5Fso"
                  d="M4820 4015 c0 -20 7 -46 15 -58 8 -12 17 -59 21 -105 6 -66 12 -88 30 -110 16 -18 24 -40 24 -64 l0 -38 54 0 c30 0 58 -4 61 -10 3 -5 14 -10 24 -10 13 0 20 -9 23 -30 4 -24 1 -30 -14 -30 -13 0 -18 -8 -18 -30 0 -25 -4 -30 -25 -30 -18 0 -25 -5 -25 -20 0 -13 -7 -20 -20 -20 -15 0 -20 -7 -20 -28 0 -23 -6 -30 -33 -40 -18 -7 -50 -12 -71 -12 l-37 0 3 -42 3 -41 85 -29 c221 -75 460 -138 519 -138 61 0 61 0 61 29 0 46 -136 268 -350 571 -41 59 -109 155 -150 213 l-75 107 -42 0 c-42 0 -43 0 -43 -35z"></path>
        </g>
    </g>
    <g id="l5yLfwNXqsATVhM5ZLF2UrA" fill="rgb(248,185,48)" style="transform: none;">
        <g>
            <path id="pV80GsCB5"
                  d="M2674 7603 c-15 -16 -16 -37 -11 -228 4 -115 16 -325 27 -465 11 -140 20 -261 20 -268 0 -6 30 -35 68 -62 49 -37 76 -50 101 -50 l34 0 -24 26 -24 25 28 -10 c44 -17 47 -14 47 47 0 31 6 79 13 107 13 47 13 44 11 -75 -2 -107 -1 -114 5 -50 4 41 13 93 19 115 7 26 10 131 9 297 -1 178 1 260 9 268 8 8 133 14 380 20 203 5 372 9 377 10 28 1 -37 186 -79 221 -21 17 -174 36 -554 70 -283 25 -432 25 -456 2z"></path>
            <path id="pK0We0oOG"
                  d="M4050 6974 c-163 -13 -170 -15 -170 -36 0 -14 5 -18 15 -14 8 3 15 0 15 -7 0 -7 48 -37 106 -67 58 -30 108 -59 111 -64 3 -5 -2 -13 -11 -18 -32 -18 -15 -28 47 -28 44 0 351 23 395 30 1 0 2 15 2 34 0 36 -25 61 -135 137 l-50 34 -140 1 c-77 1 -160 0 -185 -2z"></path>
            <path id="pm4Yyezy8"
                  d="M5060 6144 c-124 -18 -333 -50 -465 -69 -132 -20 -248 -40 -257 -45 -10 -6 -32 -10 -50 -10 -18 0 -47 -9 -64 -19 -36 -22 -40 -39 -69 -286 -54 -476 -74 -695 -73 -827 1 -113 -1 -130 -18 -149 -17 -19 -19 -37 -19 -183 l0 -161 41 -91 c51 -114 130 -250 149 -258 8 -3 15 -12 15 -21 0 -8 4 -15 9 -15 5 0 13 -10 17 -22 3 -13 22 -46 40 -74 19 -28 34 -61 34 -73 0 -11 4 -21 9 -21 9 0 71 -96 71 -111 0 -5 4 -9 8 -9 5 0 19 -23 32 -50 13 -28 27 -50 32 -50 4 0 10 -11 14 -25 3 -14 10 -25 15 -25 5 0 9 -6 9 -13 0 -8 11 -20 25 -27 16 -8 25 -22 25 -37 0 -27 38 -83 55 -83 7 0 20 -9 30 -20 26 -28 121 -70 161 -70 38 0 54 15 24 23 -36 9 -21 26 23 24 23 -1 48 3 55 10 18 17 39 6 47 -25 4 -15 10 -21 12 -14 3 6 14 12 25 12 20 0 21 1 3 20 -11 12 -13 20 -6 20 7 0 9 4 6 10 -3 5 -1 10 5 10 17 0 -13 27 -36 33 -12 3 -6 5 16 7 19 1 29 4 23 7 -20 7 -15 32 5 29 9 -2 26 4 38 13 19 14 19 17 6 31 -14 13 -11 16 29 21 24 3 33 7 19 8 -14 1 -20 4 -14 9 6 4 14 17 18 30 6 18 4 22 -16 23 -20 0 -20 1 -5 8 17 6 17 8 -3 34 -16 20 -25 25 -35 17 -9 -7 -19 -3 -39 17 -20 20 -24 28 -14 35 8 5 5 7 -11 5 -13 -2 -29 -12 -35 -23 -12 -21 -36 -30 -36 -14 0 5 6 10 13 10 8 0 7 4 -3 10 -11 7 -11 10 -2 10 15 0 5 22 -31 63 -25 28 -27 37 -12 70 4 10 1 27 -10 43 -12 19 -14 29 -5 39 9 11 6 22 -14 48 -29 38 -32 47 -13 47 6 0 23 -16 37 -36 13 -20 26 -31 28 -25 2 7 -3 20 -12 30 -9 10 -16 29 -16 43 0 14 -29 64 -71 124 -93 131 -166 255 -195 332 -29 75 -31 156 -9 372 39 394 40 407 22 425 -16 15 -17 15 -17 -9 0 -14 -5 -26 -11 -26 -15 0 -7 122 9 128 8 2 12 -10 13 -35 1 -21 3 -29 6 -18 3 11 11 24 18 30 7 5 18 44 24 85 7 41 15 78 19 81 7 6 365 54 787 105 110 13 201 24 203 24 8 0 0 70 -9 70 -6 0 -63 40 -127 90 -64 49 -171 129 -236 177 -133 97 -133 93 -9 109 l54 6 -3 37 c-3 35 -5 36 -43 38 -22 0 -141 -14 -265 -33z m-696 -152 c8 -14 -96 -34 -108 -22 -8 8 -6 9 8 4 12 -5 17 -4 13 3 -4 6 3 8 18 5 15 -2 25 0 25 7 0 13 36 15 44 3z m-249 -1178 c-5 -63 -12 -97 -22 -105 -12 -11 -13 -9 -9 12 3 13 8 60 11 104 3 44 9 89 13 100 6 19 6 19 10 1 2 -11 1 -61 -3 -112z m164 -747 c6 -8 8 -17 4 -20 -3 -4 -1 -7 5 -7 6 0 14 -10 18 -22 3 -13 23 -48 43 -78 20 -30 36 -57 36 -60 1 -11 39 -77 61 -106 13 -17 20 -34 17 -38 -4 -3 -2 -6 4 -6 5 0 18 -18 28 -40 10 -22 22 -40 27 -40 5 0 6 -4 3 -10 -3 -5 -3 -10 2 -10 4 0 23 -23 42 -50 19 -28 37 -50 41 -50 4 0 12 -11 18 -25 9 -20 9 -25 -1 -25 -16 0 -87 108 -207 315 -51 88 -110 188 -132 223 -21 34 -34 62 -29 62 5 0 14 -6 20 -13z"></path>
            <path id="pLibCXdoT"
                  d="M6900 5161 c0 -38 16 -82 85 -230 37 -80 54 -126 47 -129 -7 -2 -12 -21 -12 -42 0 -52 35 -80 98 -80 l45 0 -6 51 c-4 28 -29 103 -57 168 -28 64 -67 155 -88 203 l-37 88 -37 0 c-35 0 -38 -2 -38 -29z"></path>
            <path id="p18klywFU0"
                  d="M5080 5115 c0 -20 7 -51 14 -70 14 -32 19 -35 55 -35 l40 0 6 55 c9 71 -2 85 -66 85 l-49 0 0 -35z"></path>
            <path id="p17NbSIFDU"
                  d="M5650 4620 c0 -27 -3 -30 -30 -30 -28 0 -30 -3 -30 -35 0 -47 34 -68 116 -73 l64 -4 0 36 c0 21 -10 60 -21 87 -20 47 -23 49 -60 49 -37 0 -39 -2 -39 -30z"></path>
            <path id="p5sYnQWIr"
                  d="M4965 3782 c2 -12 11 -30 20 -39 15 -15 18 -15 33 1 16 17 16 17 -8 14 -14 -2 -25 2 -25 9 0 7 -6 18 -12 24 -10 10 -12 8 -8 -9z"></path>
            <path id="pEZRiyPBj" d="M5132 3655 c33 -46 49 -54 28 -13 -16 30 -41 58 -51 58 -5 0 6 -20 23 -45z"></path>
            <path id="pXoQ2nG3Z"
                  d="M5268 3266 c-28 -10 -37 -25 -18 -27 42 -5 71 -2 75 9 2 6 -2 12 -9 12 -8 0 -16 4 -18 8 -1 4 -15 3 -30 -2z"></path>
        </g>
    </g>
    <g id="lcEYH0oooOuDXxayyMA5Ko" fill="rgb(247,175,37)" style="transform: none;">
        <g>
            <path id="p14Gc4DtTa"
                  d="M2966 7238 c-8 -30 -8 -276 0 -305 4 -13 13 -23 20 -23 11 0 14 33 14 175 0 142 -3 175 -14 175 -7 0 -16 -10 -20 -22z"></path>
            <path id="p14zXeMlxm"
                  d="M4715 6695 c-71 -8 -162 -19 -202 -26 -73 -12 -102 -33 -57 -42 13 -2 24 0 24 4 0 12 37 11 45 -1 3 -6 -4 -10 -17 -10 -23 0 -56 -16 -48 -23 140 -109 324 -238 387 -271 18 -9 46 -16 63 -16 47 0 36 -20 -12 -21 l-43 -2 55 -10 c43 -8 90 -7 210 7 207 22 200 20 200 67 0 35 -11 51 -143 196 l-143 158 -94 1 c-52 1 -153 -4 -225 -11z"></path>
            <path id="pKJsMsMs0"
                  d="M5425 6199 c-65 -11 -122 -23 -125 -28 -3 -5 -39 -14 -80 -20 -105 -17 -120 -20 -120 -30 0 -4 51 0 113 10 61 9 116 14 120 10 4 -4 -32 -13 -80 -20 -106 -15 -123 -20 -123 -32 0 -5 64 -57 143 -114 78 -58 195 -146 259 -195 64 -50 122 -90 130 -91 7 0 -3 -5 -22 -11 -31 -9 -33 -11 -15 -19 11 -4 45 -8 76 -8 47 -1 65 -7 115 -40 57 -37 374 -272 865 -642 305 -229 321 -239 360 -239 26 0 30 3 21 12 -18 18 -15 27 8 21 34 -9 25 27 -46 179 -75 162 -97 218 -85 218 8 0 25 -49 21 -59 -1 -2 2 -7 7 -10 5 -3 19 -28 31 -56 120 -278 122 -281 122 -243 0 25 -20 82 -60 167 -33 71 -60 137 -60 146 0 9 -7 23 -15 31 -8 9 -15 27 -15 40 0 22 -117 299 -176 415 -22 45 -71 91 -124 117 -39 20 -68 38 -87 53 -10 8 -31 21 -48 29 -16 8 -61 34 -98 57 -37 24 -70 43 -73 43 -3 0 -20 11 -37 24 -18 13 -68 43 -112 66 -43 23 -93 53 -111 66 -17 13 -34 24 -38 24 -4 0 -26 13 -49 28 -65 43 -136 78 -204 101 -80 27 -220 27 -388 0z"></path>
            <path id="p124zp7vfy"
                  d="M5120 5135 c0 -8 6 -15 14 -15 7 0 19 -7 26 -15 10 -12 10 -15 0 -15 -8 0 -11 -9 -8 -25 6 -27 -9 -35 -18 -10 -10 25 -24 17 -24 -14 0 -26 62 -176 130 -313 28 -56 70 -86 226 -157 78 -36 124 -51 154 -51 l42 0 -22 18 -23 18 37 -4 37 -4 -6 36 c-8 40 6 49 23 13 9 -19 11 -17 11 22 1 32 -16 83 -60 190 -33 80 -66 151 -72 157 -26 25 -127 71 -277 129 -52 20 -103 40 -112 45 -28 16 -78 12 -78 -5z"></path>
        </g>
    </g>
    <g id="l1e9pyvszLVJ7MeorVNCzcf" fill="rgb(35,130,170)" style="transform: none;">
        <g>
            <path id="pScaMqb0F"
                  d="M2373 8003 c-34 -2 -66 -9 -71 -16 -6 -7 -11 -149 -14 -352 l-3 -341 62 -124 c35 -69 76 -146 93 -172 29 -46 32 -48 75 -48 l45 0 2 398 3 397 60 3 c33 2 194 -6 358 -18 164 -12 304 -19 312 -16 9 3 15 19 15 39 0 29 -13 46 -90 125 -137 138 -118 132 -481 130 -167 -1 -332 -3 -366 -5z"></path>
            <path id="p1CyTBew1v"
                  d="M3213 7201 c-94 -12 -87 30 -96 -571 -9 -615 -12 -590 73 -590 l50 0 0 44 c0 61 47 509 61 573 12 62 12 62 144 66 l90 2 3 112 c2 96 5 113 20 117 9 3 107 17 217 31 327 41 429 55 443 60 6 2 12 20 12 39 0 27 -7 41 -35 64 -65 53 -78 54 -520 57 -225 2 -434 0 -462 -4z"></path>
            <path id="pKiOfHspQ"
                  d="M3910 1156 c0 -8 12 -17 28 -20 15 -4 35 -9 45 -12 13 -4 17 1 17 20 0 24 -3 26 -45 26 -32 0 -45 -4 -45 -14z"></path>
            <path id="pkhhJ59lo"
                  d="M4370 1046 c0 -15 30 -26 73 -26 20 0 27 5 27 20 0 17 -7 20 -50 20 -36 0 -50 -4 -50 -14z"></path>
            <path id="py6r9XRtg"
                  d="M4650 1007 c0 -19 22 -23 185 -37 132 -11 477 -13 513 -4 12 4 22 12 22 19 0 10 -68 14 -292 19 -161 3 -323 9 -360 12 -58 5 -68 4 -68 -9z"></path>
        </g>
    </g>
    <g id="l6yhKqfyB6zIp5XUncKnfHy" fill="rgb(188,24,38)" style="transform: none;">
        <g>
            <path id="pIsNij8xQ"
                  d="M4820 5292 c0 -9 -14 -155 -30 -322 -17 -168 -33 -370 -36 -450 l-5 -145 95 -130 c99 -135 298 -417 591 -835 238 -340 281 -402 407 -588 67 -99 122 -169 138 -177 36 -18 223 -71 475 -133 110 -27 378 -95 595 -150 429 -109 879 -205 938 -200 35 3 37 5 40 39 3 34 -3 41 -140 171 -79 74 -189 176 -244 226 -97 87 -259 256 -306 318 -13 16 -88 108 -168 204 -190 228 -201 245 -251 375 -62 166 -157 460 -175 545 -8 41 -19 80 -25 86 -5 6 -48 31 -96 55 -82 42 -89 44 -174 44 l-89 0 -17 50 c-26 72 -147 197 -233 240 -36 17 -89 48 -119 68 -29 21 -62 37 -72 37 -10 0 -19 7 -19 15 0 8 -40 95 -90 194 -88 177 -91 180 -177 260 -72 67 -93 81 -120 81 -30 0 -33 -3 -33 -32 0 -26 15 -47 88 -122 98 -100 153 -192 256 -426 30 -69 73 -165 96 -214 22 -48 39 -90 37 -92 -2 -2 -12 5 -22 16 -10 11 -26 20 -35 20 -9 0 -25 7 -36 15 -10 8 -26 15 -34 15 -8 0 -37 11 -65 25 -27 13 -56 25 -62 25 -7 0 -34 10 -60 22 -27 11 -61 27 -78 34 -48 21 -195 72 -256 88 -31 9 -62 22 -68 30 -21 25 -81 156 -188 406 -57 135 -115 264 -129 288 -23 38 -28 42 -64 42 -32 0 -40 -4 -40 -18z"></path>
        </g>
    </g>
    <g id="l8rSuJVO1LKOFJukUUiwoS" fill="rgb(165,20,31)" style="transform: none;">
        <g>
            <path id="p1HDofI19S"
                  d="M5505 5534 c-72 -13 -194 -35 -273 -50 l-143 -27 3 -40 c3 -36 7 -42 56 -68 52 -28 81 -47 150 -104 20 -17 62 -49 92 -72 30 -23 68 -55 84 -72 17 -17 36 -31 44 -31 7 0 43 -28 78 -62 57 -55 75 -82 148 -227 46 -92 89 -183 95 -203 9 -26 18 -38 31 -38 17 0 14 12 -26 103 -95 214 -151 305 -248 407 -81 83 -84 88 -30 42 34 -28 78 -70 98 -92 35 -39 181 -318 206 -394 8 -24 15 -34 20 -26 9 14 33 4 89 -38 18 -13 63 -39 100 -57 88 -43 208 -166 234 -242 10 -28 24 -54 31 -56 8 -3 33 -1 57 4 57 13 127 -3 209 -47 36 -20 70 -41 77 -47 7 -7 19 -46 27 -87 18 -84 112 -379 175 -545 50 -130 61 -147 251 -375 80 -96 155 -188 168 -204 47 -62 209 -231 306 -318 211 -191 386 -361 380 -370 -4 -5 -14 -8 -24 -5 -14 4 -17 1 -12 -12 14 -39 68 -42 102 -6 l24 26 -52 212 c-29 117 -99 408 -157 647 -153 636 -285 1153 -298 1169 -7 8 -109 86 -227 174 -118 88 -231 173 -250 189 -19 15 -87 67 -150 115 -63 47 -140 106 -172 130 -31 23 -59 43 -62 43 -8 0 -234 169 -241 180 -9 14 -153 120 -173 127 -17 7 -330 238 -443 328 l-57 45 -83 -1 c-46 0 -142 -12 -214 -25z"></path>
        </g>
    </g>
    <g id="l3ja6yaqbVNGBCnuHEsuCNX" fill="rgb(107,18,31)" style="transform: none;">
        <g>
            <path id="pS46T0YEy"
                  d="M3930 8064 c0 -29 16 -59 82 -153 133 -189 250 -339 353 -454 110 -122 194 -183 442 -318 189 -104 315 -190 539 -371 325 -261 513 -369 959 -551 436 -178 558 -248 711 -409 164 -172 362 -551 451 -859 l28 -99 43 0 42 0 0 53 c-1 202 -42 555 -85 733 -76 309 -228 632 -391 834 -71 88 -232 226 -313 268 -37 19 -77 43 -90 53 -13 11 -42 24 -64 30 -23 6 -59 19 -82 29 -22 9 -60 23 -85 31 -25 7 -54 19 -65 26 -11 7 -31 13 -45 13 -14 0 -36 9 -50 20 -14 11 -34 20 -46 20 -11 0 -41 11 -65 25 -24 13 -53 29 -64 34 -12 5 -46 36 -75 69 -53 57 -88 111 -200 312 -30 52 -70 120 -90 150 -54 79 -164 195 -224 235 -61 40 -169 95 -188 95 -8 0 -18 4 -23 9 -16 16 -242 41 -367 41 -64 0 -150 4 -190 10 -40 5 -118 14 -173 21 -92 10 -145 20 -351 64 -40 8 -111 29 -158 45 -47 17 -104 30 -126 30 -39 0 -40 -1 -40 -36z"></path>
            <path id="pTcbJXGdH"
                  d="M2190 6501 c0 -21 9 -81 19 -133 41 -199 51 -344 51 -758 0 -440 3 -464 66 -596 46 -98 150 -208 288 -306 208 -147 294 -216 397 -318 95 -94 111 -115 152 -200 25 -52 66 -165 92 -250 113 -375 267 -586 582 -797 137 -91 408 -229 523 -266 106 -34 286 -72 405 -86 50 -6 122 -15 160 -21 39 -5 103 -9 143 -10 l73 0 -3 35 c-3 35 -6 37 -87 70 -46 19 -91 41 -100 48 -9 8 -28 17 -42 21 -15 3 -50 22 -79 41 -29 19 -54 35 -56 35 -7 0 -150 93 -264 171 -129 90 -309 268 -402 399 -112 157 -172 293 -263 599 -24 79 -106 252 -273 571 -172 330 -228 430 -330 595 -288 462 -429 642 -776 992 -190 192 -203 203 -238 203 -37 0 -38 -1 -38 -39z"></path>
        </g>
    </g>
    <g id="l6kTcqqzmW8yLvSyvvRn5bY" fill="rgb(0,0,1)" style="transform: none;">
        <g>
            <path id="pRPzIg8vY"
                  d="M4835 9274 c-717 -59 -1399 -297 -1990 -694 -264 -178 -435 -321 -675 -566 -444 -454 -770 -994 -976 -1620 -78 -239 -133 -488 -171 -779 -25 -200 -25 -757 0 -965 75 -603 269 -1169 574 -1675 187 -309 376 -550 637 -811 451 -452 956 -770 1554 -978 74 -25 144 -46 157 -46 13 0 26 -4 29 -9 7 -11 321 -88 413 -101 38 -5 88 -14 113 -19 214 -47 945 -54 1210 -12 613 96 1116 280 1609 587 485 303 934 738 1248 1209 476 715 717 1502 716 2340 0 337 -29 608 -100 915 -167 731 -538 1412 -1068 1959 -658 679 -1519 1116 -2449 1242 -119 16 -218 21 -466 24 -173 1 -337 1 -365 -1z m-769 -1234 c47 -16 118 -37 158 -45 206 -44 259 -54 351 -64 55 -7 133 -16 173 -21 40 -6 126 -10 190 -10 125 0 351 -25 367 -41 5 -5 15 -9 23 -9 19 0 127 -55 188 -95 60 -40 170 -156 224 -235 20 -30 60 -98 90 -150 112 -201 147 -255 200 -312 29 -33 63 -64 75 -69 11 -5 40 -21 64 -34 24 -14 54 -25 65 -25 12 0 32 -9 46 -20 14 -11 36 -20 50 -20 14 0 34 -6 45 -13 11 -7 40 -19 65 -26 25 -8 63 -22 85 -31 23 -10 59 -23 82 -29 22 -6 51 -19 64 -30 13 -10 53 -34 90 -53 36 -18 109 -71 162 -118 159 -136 253 -266 368 -504 150 -314 221 -601 249 -1011 12 -191 12 -195 -2 -195 -8 0 -25 42 -41 99 -89 308 -287 687 -451 859 -153 161 -275 231 -711 409 -446 182 -634 290 -959 551 -224 181 -350 267 -539 371 -248 135 -332 196 -442 318 -53 60 -136 160 -184 223 -100 132 -251 345 -251 354 0 11 18 7 106 -24z m-1009 -81 c48 -23 228 -198 216 -210 -5 -4 -127 1 -273 12 -146 11 -310 18 -365 17 l-100 -3 -3 -397 c-2 -344 -4 -398 -17 -398 -19 0 -60 65 -138 220 l-62 124 3 311 c2 185 8 315 14 322 13 16 74 19 407 21 260 2 277 1 318 -19z m49 -389 c410 -36 531 -53 553 -75 21 -22 84 -155 73 -155 -4 -1 -172 -5 -374 -10 -202 -5 -372 -11 -378 -15 -6 -4 -10 -94 -10 -244 0 -131 -3 -306 -7 -389 -6 -138 -8 -152 -24 -152 -17 0 -181 109 -193 128 -8 13 -45 520 -52 717 -8 220 -11 215 105 215 42 0 181 -9 307 -20z m986 -410 c45 -16 113 -69 101 -81 -8 -8 -68 -16 -448 -64 -110 -14 -208 -28 -217 -31 -15 -4 -18 -21 -20 -117 l-3 -112 -90 -2 c-132 -4 -132 -4 -144 -66 -14 -64 -61 -512 -61 -573 0 -37 -3 -44 -20 -44 -11 0 -26 12 -35 29 -13 26 -14 92 -7 530 8 568 2 530 95 542 92 13 807 3 849 -11z m313 -257 c33 -23 76 -55 95 -71 l35 -30 -45 -6 c-70 -9 -560 -46 -613 -46 -43 0 -47 2 -47 25 0 39 40 134 61 145 26 15 211 29 344 26 l110 -1 60 -42z m742 -386 c79 -87 143 -162 143 -167 0 -5 -12 -11 -27 -14 -31 -7 -569 -72 -918 -111 -126 -14 -235 -30 -241 -36 -7 -5 -17 -38 -23 -72 -12 -71 -70 -586 -102 -912 -12 -121 -23 -226 -25 -232 -2 -7 -14 -13 -27 -13 -17 0 -67 45 -185 164 -186 188 -173 157 -147 356 8 63 29 248 45 411 48 469 72 615 109 652 18 19 65 25 766 96 165 17 314 32 330 34 17 3 59 4 95 3 l64 -1 143 -158z m-2711 -210 c347 -350 488 -530 776 -992 102 -165 158 -265 330 -595 167 -319 249 -492 273 -571 91 -306 151 -442 263 -599 93 -131 273 -309 402 -399 114 -78 257 -171 264 -171 2 0 27 -16 56 -35 29 -19 64 -38 79 -41 14 -4 33 -13 42 -21 9 -7 53 -29 98 -47 45 -18 85 -36 88 -40 9 -9 -72 -7 -152 4 -38 6 -110 15 -160 21 -119 14 -299 52 -405 86 -115 37 -386 175 -523 266 -315 211 -469 422 -582 797 -26 85 -67 198 -92 250 -41 85 -57 106 -152 200 -103 102 -189 171 -397 318 -138 98 -242 208 -288 306 -63 132 -66 156 -66 596 0 414 -10 559 -51 758 -21 106 -22 112 -11 112 4 0 97 -91 208 -203z m1087 131 c15 -12 15 -30 -3 -258 -28 -353 -29 -360 -49 -360 -23 0 -110 145 -127 212 -11 40 -12 77 -4 167 14 164 22 235 27 244 7 12 138 8 156 -5z m2260 -269 c68 -23 139 -58 204 -101 23 -15 45 -28 49 -28 4 0 21 -11 38 -24 18 -13 68 -43 111 -66 44 -23 94 -53 112 -66 17 -13 34 -24 37 -24 3 0 36 -19 73 -43 37 -23 82 -49 98 -57 17 -8 38 -21 48 -29 19 -15 48 -33 87 -53 96 -47 112 -74 282 -468 44 -102 104 -239 133 -305 29 -66 57 -137 63 -157 17 -64 27 -69 -289 164 -87 64 -205 152 -261 195 -210 160 -695 518 -741 547 -59 36 -69 36 -361 2 -296 -36 -769 -97 -782 -101 -7 -2 -17 -32 -23 -67 -22 -121 -72 -634 -78 -798 -5 -159 -4 -167 20 -231 35 -92 107 -208 281 -454 255 -359 289 -407 377 -540 48 -72 109 -169 137 -217 l51 -88 -30 0 c-33 0 -343 88 -504 144 -129 44 -187 70 -210 96 -10 11 -23 20 -30 20 -24 0 -122 149 -319 483 -228 388 -275 486 -283 592 -7 96 118 1329 146 1431 16 62 20 63 746 169 209 30 432 64 495 74 158 26 246 26 323 0z m46 -684 c113 -90 426 -321 443 -328 20 -7 164 -113 173 -127 7 -11 233 -180 241 -180 3 0 31 -20 62 -43 32 -24 109 -83 172 -130 63 -48 131 -100 150 -115 19 -16 132 -101 250 -189 118 -88 220 -166 227 -174 13 -16 145 -534 298 -1169 59 -245 129 -533 156 -640 26 -107 44 -199 40 -203 -14 -14 -550 100 -961 205 -217 55 -485 123 -595 150 -252 62 -439 115 -475 133 -16 8 -71 78 -138 177 -126 186 -169 248 -407 588 -293 418 -492 700 -591 835 l-95 130 5 115 c3 63 19 252 36 420 16 167 30 313 30 322 0 10 4 18 10 18 17 0 57 -81 163 -330 107 -250 167 -381 188 -406 6 -8 37 -21 68 -30 61 -16 208 -67 256 -88 17 -7 51 -23 78 -34 26 -12 53 -22 60 -22 6 0 35 -12 62 -25 28 -14 57 -25 65 -25 8 0 24 -7 34 -15 11 -8 26 -15 34 -15 8 0 27 -11 43 -24 24 -21 104 -45 114 -34 2 1 -24 62 -57 133 -33 72 -84 186 -114 255 -31 69 -83 176 -117 239 -56 104 -72 123 -167 213 -58 54 -130 117 -160 139 -30 22 -69 53 -87 67 -65 54 -94 74 -145 101 -29 16 -54 33 -55 38 -5 14 507 111 596 112 49 1 58 -3 110 -44z m-661 -375 c9 -5 60 -25 112 -45 150 -58 251 -104 277 -129 6 -6 41 -82 77 -168 36 -86 71 -170 79 -185 29 -57 30 -73 6 -73 -13 0 -41 9 -63 19 -23 10 -93 42 -156 71 -173 78 -195 94 -234 170 -37 71 -156 334 -156 344 0 9 38 7 58 -4z"></path>
        </g>
    </g>
    <g id="l3AOtYhmabBel7ce27RSHZ7" fill="rgb(63,199,235)" style="transform: none;">
        <g>
            <path id="pcoTkuv6Z"
                  d="M4650 9939 c-660 -62 -1225 -223 -1787 -508 -812 -412 -1495 -1054 -1979 -1863 -101 -168 -263 -494 -327 -658 -25 -63 -56 -144 -70 -180 -79 -203 -177 -588 -222 -875 -47 -301 -57 -469 -52 -835 5 -347 15 -467 62 -752 91 -552 304 -1144 585 -1628 313 -537 691 -982 1155 -1357 596 -482 1291 -809 2035 -958 331 -66 455 -77 940 -82 440 -6 544 -1 780 33 571 82 1173 285 1655 559 848 481 1543 1210 1969 2065 278 557 441 1122 502 1740 25 243 24 733 0 955 -92 841 -368 1586 -839 2265 -232 334 -478 615 -767 872 -740 661 -1651 1072 -2640 1194 -157 19 -843 28 -1000 13z m624 -759 c791 -51 1539 -327 2181 -804 1041 -776 1667 -2006 1668 -3276 0 -411 -49 -755 -164 -1155 -161 -562 -411 -1037 -798 -1515 -121 -150 -433 -458 -591 -584 -316 -253 -705 -480 -1045 -611 -534 -206 -1032 -295 -1565 -280 -483 13 -796 68 -1230 214 -631 213 -1209 589 -1663 1080 -541 584 -895 1267 -1047 2021 -109 541 -114 961 -20 1521 77 458 279 989 536 1406 351 570 855 1067 1434 1413 681 407 1536 619 2304 570z"></path>
        </g>
    </g>
</svg>
