<svg class="img-fluid" id="outputsvg" xmlns="http://www.w3.org/2000/svg"
     style="transform: none; transform-origin: 50% 50%; cursor: move;" width="1024" height="1024"
     viewBox="0 0 10240 10240">
    <g id="l2i6rYkbElTaVfZtahMMgqN" fill="rgb(239,238,239)" style="transform: none;">
        <g>
            <path id="pZNmHrjtL"
                  d="M5319 8080 c-197 -43 -370 -139 -520 -289 -190 -192 -314 -431 -354 -684 -43 -282 -20 -545 67 -751 111 -262 381 -576 652 -758 133 -89 331 -189 470 -238 178 -61 435 -100 667 -100 480 0 869 141 1145 415 177 175 295 408 350 690 21 110 24 339 5 445 -44 248 -157 467 -322 625 -67 64 -84 75 -114 75 -35 0 -35 0 -35 -46 0 -30 -8 -59 -21 -80 -18 -30 -20 -43 -14 -107 34 -369 -316 -656 -775 -634 -538 26 -1089 372 -1224 769 -56 167 -36 305 69 468 42 65 110 140 127 140 5 0 8 17 6 38 -3 37 -4 37 -48 39 -25 1 -84 -7 -131 -17z"></path>
            <path id="p198WXPSA9"
                  d="M4783 5002 c-44 -65 -99 -185 -118 -257 -19 -76 -20 -243 0 -318 20 -75 92 -218 148 -292 26 -33 89 -114 142 -180 52 -66 105 -140 116 -163 19 -39 20 -48 9 -85 -16 -56 -59 -122 -114 -177 -78 -75 -63 -124 71 -241 75 -66 174 -119 273 -145 144 -38 404 -13 515 49 55 31 56 61 6 227 -36 117 -39 137 -27 154 14 22 130 88 306 176 144 72 231 134 332 237 147 152 172 219 172 463 0 85 -4 172 -8 193 l-7 37 -197 0 c-379 0 -703 49 -1019 155 -143 47 -184 65 -371 155 -158 77 -184 79 -229 12z"></path>
        </g>
    </g>
    <g id="l76kymdEYVEJ65ybKhIU7U8" fill="rgb(172,172,171)" style="transform: none;">
        <g>
            <path id="p1DrW5YPD0"
                  d="M5785 8164 c-291 -44 -346 -57 -363 -85 -11 -18 -10 -19 12 -13 13 3 27 1 30 -5 4 -6 3 -11 -2 -11 -17 0 -85 -75 -127 -140 -123 -192 -136 -385 -39 -599 141 -309 553 -589 994 -676 129 -26 355 -31 468 -11 299 52 506 229 558 476 8 41 14 109 13 150 -3 62 1 84 20 123 14 30 21 59 19 78 -3 20 -1 26 6 19 16 -16 26 -12 26 10 0 42 -277 304 -443 418 -155 107 -358 201 -527 243 -74 19 -118 22 -350 24 -146 2 -278 1 -295 -1z"></path>
            <path id="pX9xezvY5" d="M113 5145 c0 -27 2 -38 4 -22 2 15 2 37 0 50 -2 12 -4 0 -4 -28z"></path>
            <path id="pb0eyjRLY"
                  d="M1680 1496 c29 -32 160 -150 160 -144 0 2 -42 42 -92 88 -51 46 -82 71 -68 56z"></path>
            <path id="p7bFTzPFp" d="M1850 1347 c0 -2 15 -16 33 -33 l32 -29 -29 33 c-28 30 -36 37 -36 29z"></path>
            <path id="pZzSbNJU6" d="M2119 1127 c14 -18 51 -42 51 -33 0 3 -15 15 -32 27 -24 17 -29 18 -19 6z"></path>
            <path id="pLhwMn7S4"
                  d="M2515 863 c6 -6 33 -23 60 -38 28 -16 46 -24 40 -18 -5 6 -32 23 -60 38 -27 16 -45 24 -40 18z"></path>
            <path id="p6rxCJtzQ" d="M2740 735 c0 -7 61 -37 66 -33 2 3 -12 12 -31 21 -19 9 -35 15 -35 12z"></path>
            <path id="p16LnQcYGW" d="M2840 685 c0 -7 101 -57 106 -53 2 2 -21 16 -51 31 -30 15 -55 25 -55 22z"></path>
            <path id="pefiKih6E"
                  d="M3140 547 c0 -7 151 -69 156 -64 2 2 -28 17 -68 33 -40 16 -76 31 -80 32 -5 2 -8 1 -8 -1z"></path>
            <path id="pcUeMlZOt" d="M4873 163 c15 -2 37 -2 50 0 12 2 0 4 -28 4 -27 0 -38 -2 -22 -4z"></path>
            <path id="pEhd9hIYU" d="M5147 163 c18 -2 50 -2 70 0 21 2 7 4 -32 4 -38 0 -55 -2 -38 -4z"></path>
        </g>
    </g>
    <g id="l6i4yZxKjcnbSpm0kq6n5TM" fill="rgb(120,199,89)" style="transform: none;">
        <g>
            <path id="pNWzhgvEO"
                  d="M7820 5024 c-86 -11 -156 -13 -275 -8 -88 4 -187 8 -220 8 l-60 1 -44 -110 c-29 -73 -44 -127 -45 -160 -1 -48 0 -50 27 -53 15 -2 84 7 154 19 108 19 147 21 282 16 86 -4 217 -15 291 -26 212 -32 436 -28 578 10 41 11 42 13 42 53 0 52 -45 133 -98 174 -94 75 -379 109 -632 76z"></path>
            <path id="pR7Enusky"
                  d="M3267 4670 c-63 -16 -112 -47 -161 -101 -61 -68 -80 -131 -74 -253 7 -137 50 -210 162 -269 36 -18 58 -21 167 -22 122 0 127 1 174 30 62 38 110 100 130 167 20 69 19 192 -2 258 -21 65 -87 140 -150 170 -54 25 -182 36 -246 20z"></path>
            <path id="pbXCOzdH"
                  d="M7315 4329 c-32 -5 -81 -16 -108 -25 -47 -16 -48 -17 -45 -52 3 -40 -5 -35 153 -107 106 -49 158 -84 300 -205 106 -90 167 -132 214 -148 37 -13 328 -15 371 -3 39 11 39 66 1 148 -33 71 -164 216 -231 255 -19 12 -44 29 -55 38 -35 29 -159 78 -238 94 -82 17 -261 20 -362 5z"></path>
            <path id="p155QDnPYU"
                  d="M2878 3970 c-64 -11 -143 -56 -179 -101 -50 -63 -62 -105 -63 -209 0 -111 20 -170 82 -233 49 -51 96 -74 180 -88 169 -28 321 46 366 179 19 55 21 217 4 274 -17 56 -87 131 -147 157 -57 24 -171 34 -243 21z"></path>
            <path id="p9kNFQ2v3"
                  d="M5920 2846 c-156 -55 -222 -107 -283 -224 -51 -96 -67 -167 -67 -292 0 -167 44 -298 124 -368 38 -33 124 -63 252 -88 76 -14 367 -20 398 -8 10 4 16 18 16 39 0 30 -8 39 -96 101 -205 145 -308 315 -289 478 7 66 44 192 81 275 13 29 24 66 24 82 0 28 -2 29 -47 28 -27 0 -77 -11 -113 -23z"></path>
            <path id="pKHKM0vVW"
                  d="M4775 2771 c-71 -26 -127 -56 -148 -79 -13 -14 -21 -47 -27 -113 -14 -137 -36 -226 -92 -373 -64 -171 -75 -243 -60 -394 6 -65 20 -146 30 -182 l17 -65 44 -3 c38 -3 48 1 78 30 128 123 235 367 290 663 21 116 23 407 2 480 -13 47 -16 50 -49 52 -19 2 -57 -5 -85 -16z"></path>
            <path id="p821Uf4C3"
                  d="M795 2610 c9 -16 18 -30 21 -30 2 0 -2 14 -11 30 -9 17 -18 30 -21 30 -2 0 2 -13 11 -30z"></path>
            <path id="pFomJYzcF"
                  d="M970 2330 c22 -33 43 -60 46 -60 2 0 -14 27 -36 60 -22 33 -43 60 -46 60 -2 0 14 -27 36 -60z"></path>
            <path id="pcOhmAcVp"
                  d="M1465 1710 c33 -33 62 -60 64 -60 3 0 -21 27 -54 60 -33 33 -62 60 -64 60 -3 0 21 -27 54 -60z"></path>
            <path id="p9XhA2NuB"
                  d="M3250 1380 c0 -8 51 -40 65 -40 3 0 5 11 5 25 0 22 -4 25 -35 25 -19 0 -35 -4 -35 -10z"></path>
            <path id="pnXOasEJU"
                  d="M3990 1106 c0 -9 25 -19 71 -30 90 -20 99 -20 99 2 0 14 -13 21 -58 30 -77 16 -112 15 -112 -2z"></path>
            <path id="ptcychNZu"
                  d="M4220 1056 c0 -7 10 -16 23 -20 41 -11 57 -7 57 14 0 17 -7 20 -40 20 -27 0 -40 -4 -40 -14z"></path>
            <path id="p7W2B7Poi"
                  d="M4400 1026 c0 -16 21 -22 130 -36 104 -13 110 -13 110 8 0 15 -15 19 -102 30 -130 15 -138 15 -138 -2z"></path>
            <path id="pieLLuY4P"
                  d="M4650 996 c0 -14 29 -26 68 -26 15 0 22 6 22 20 0 17 -7 20 -45 20 -32 0 -45 -4 -45 -14z"></path>
            <path id="p1AMvSjmgn"
                  d="M4770 986 c0 -20 32 -26 148 -26 95 0 102 1 102 20 0 19 -7 20 -125 20 -100 0 -125 -3 -125 -14z"></path>
            <path id="p8JFDducI" d="M4968 163 c12 -2 30 -2 40 0 9 3 -1 5 -23 4 -22 0 -30 -2 -17 -4z"></path>
        </g>
    </g>
    <g id="l5QYHrQ0nXDdvPsZulJeEy6" fill="rgb(166,105,44)" style="transform: none;">
        <g>
            <path id="pzzWt2CdE"
                  d="M3599 6993 c-74 -61 -267 -254 -333 -333 -86 -102 -106 -137 -106 -186 0 -39 7 -49 182 -235 365 -389 421 -454 612 -711 l117 -158 43 0 44 0 92 145 c50 80 129 198 176 262 55 79 84 127 84 145 0 15 -15 51 -34 80 -49 77 -139 261 -216 439 -37 86 -84 181 -104 212 -88 133 -214 249 -359 331 -104 58 -136 60 -198 9z"></path>
            <path id="pVefdulIz"
                  d="M6669 3933 c-63 -70 -218 -213 -346 -321 -131 -109 -129 -104 -88 -244 14 -48 63 -243 110 -434 50 -203 92 -355 102 -366 25 -28 284 -26 375 2 119 37 361 202 374 256 11 44 -3 87 -65 201 -64 118 -69 131 -49 151 18 18 53 15 178 -18 63 -16 140 -30 172 -30 52 0 59 3 105 44 l48 44 0 148 0 149 -65 21 c-184 60 -451 218 -678 401 -42 34 -61 43 -91 43 -33 0 -44 -7 -82 -47z"></path>
        </g>
    </g>
    <g id="l5WO06BoN4CVvqdtpHELxPu" fill="rgb(188,34,40)" style="transform: none;">
        <g>
            <path id="p86fs6Owy"
                  d="M2681 8278 c-113 -221 -182 -334 -272 -444 -99 -121 -248 -254 -394 -350 l-136 -89 3 -40 3 -40 115 1 c132 1 192 15 315 76 111 56 187 112 275 204 165 173 261 352 291 545 12 80 6 239 -11 302 -10 34 -14 37 -48 37 l-38 0 -103 -202z"></path>
            <path id="pmxG4PCe"
                  d="M3154 8078 c-82 -86 -124 -154 -168 -271 -99 -264 -248 -423 -535 -572 -80 -42 -174 -98 -209 -126 -60 -48 -62 -51 -62 -97 0 -83 52 -126 165 -137 134 -13 237 22 380 130 394 299 584 603 601 960 3 61 2 128 -3 150 -8 38 -11 40 -49 43 -39 3 -43 0 -120 -80z"></path>
            <path id="p4iQFMlc2"
                  d="M3525 7767 c-86 -88 -87 -89 -219 -371 -65 -137 -122 -220 -213 -307 -95 -91 -149 -126 -328 -220 -147 -76 -238 -133 -268 -167 -27 -30 -19 -83 15 -100 41 -19 185 -34 263 -27 236 24 480 190 686 468 73 97 134 216 185 358 l38 104 0 170 1 170 -38 3 c-37 3 -43 -1 -122 -81z"></path>
            <path id="p14w9MReuS"
                  d="M4560 5725 c0 -70 91 -218 204 -331 181 -180 530 -360 875 -449 232 -61 517 -91 756 -82 199 9 333 40 454 108 79 44 91 57 91 97 l0 34 -57 -6 c-131 -14 -464 -18 -600 -7 -566 45 -1126 262 -1570 607 -65 51 -89 64 -117 64 -34 0 -36 -1 -36 -35z"></path>
            <path id="pyFcLA47W"
                  d="M4100 5209 c-285 -74 -430 -244 -434 -508 l-1 -76 45 -3 c84 -6 260 106 377 240 92 106 173 260 173 329 l0 39 -42 -1 c-24 0 -77 -9 -118 -20z"></path>
            <path id="pNsaN9sWb"
                  d="M4523 4031 c-53 -25 -64 -42 -108 -181 -104 -324 -316 -718 -485 -902 -74 -81 -163 -143 -239 -165 -175 -51 -405 94 -529 334 -69 133 -92 153 -180 153 -119 0 -169 -55 -160 -175 10 -121 92 -271 217 -395 174 -173 350 -250 570 -250 128 0 198 16 306 70 242 121 519 488 689 912 73 183 98 291 99 433 1 160 -7 179 -83 183 -37 1 -68 -4 -97 -17z"></path>
        </g>
    </g>
    <g id="l6SLNaLjxUzHfdgIqZfSO95" fill="rgb(0,0,1)" style="transform: none;">
        <g>
            <path id="ptwtlugcs"
                  d="M4735 9270 c-616 -51 -1219 -237 -1735 -535 -904 -521 -1557 -1318 -1880 -2295 -135 -408 -196 -747 -216 -1205 -14 -325 40 -805 128 -1135 134 -505 324 -922 619 -1355 648 -951 1697 -1596 2839 -1746 195 -25 582 -43 765 -34 793 36 1596 325 2245 808 297 221 600 521 818 808 481 636 766 1362 844 2145 16 166 16 643 0 804 -55 545 -195 1018 -446 1505 -205 399 -439 717 -763 1036 -155 153 -205 199 -337 303 -233 185 -467 333 -746 472 -444 221 -887 353 -1375 409 -166 19 -603 27 -760 15z m-1896 -857 c51 -192 -8 -434 -157 -643 -63 -89 -184 -214 -257 -265 -76 -54 -202 -117 -280 -140 -71 -21 -230 -27 -230 -8 0 6 61 52 135 101 144 96 291 226 389 346 90 110 159 223 272 444 57 111 107 202 111 202 4 0 12 -17 17 -37z m3561 -302 c227 -57 482 -191 673 -353 39 -34 124 -112 187 -173 63 -62 150 -145 192 -185 394 -373 440 -1016 108 -1525 -64 -97 -208 -242 -312 -313 -365 -249 -860 -331 -1374 -227 -334 67 -668 246 -928 496 -181 174 -329 377 -404 555 -90 213 -110 489 -56 750 62 304 266 604 523 772 115 75 220 117 371 147 63 13 138 28 165 34 175 40 300 50 535 47 198 -3 248 -7 320 -25z m-3106 -41 c20 -117 -39 -372 -120 -517 -83 -149 -211 -298 -373 -432 -223 -185 -327 -234 -458 -212 -81 13 -153 80 -128 121 18 29 151 116 274 179 277 143 429 306 527 568 14 37 40 95 57 128 34 63 183 228 201 222 6 -2 15 -28 20 -57z m364 -402 c-5 -122 -8 -142 -42 -237 -51 -141 -112 -260 -185 -358 -163 -221 -369 -385 -556 -443 -110 -34 -304 -27 -353 12 -27 23 62 87 273 197 179 94 233 129 328 220 91 87 148 170 213 307 132 283 132 283 221 373 60 61 86 82 94 74 8 -8 10 -55 7 -145z m120 -720 c136 -78 262 -195 348 -325 20 -31 67 -126 104 -212 76 -177 167 -361 215 -437 l33 -51 -83 -117 c-46 -64 -125 -181 -175 -261 -51 -80 -98 -145 -106 -145 -7 0 -66 71 -130 158 -191 257 -259 336 -593 692 -231 245 -207 214 -189 254 35 72 286 342 428 460 50 41 46 42 148 -16z m905 -1282 c444 -345 1004 -562 1570 -607 146 -12 590 -7 637 7 23 7 24 6 11 -10 -20 -24 -128 -82 -197 -107 -148 -51 -334 -68 -565 -50 -345 26 -628 101 -924 245 -316 154 -488 305 -600 525 -40 80 -38 80 68 -3z m-453 -477 c0 -22 -84 -183 -125 -237 -89 -121 -243 -246 -352 -288 -61 -24 -68 -14 -54 76 22 143 69 233 159 309 61 51 173 105 272 130 89 23 100 25 100 10z m752 -229 c187 -90 228 -108 371 -155 316 -106 640 -155 1019 -155 l196 0 8 -32 c3 -18 7 -91 7 -163 0 -217 -28 -291 -171 -438 -109 -111 -184 -162 -411 -278 -101 -52 -197 -106 -213 -121 -38 -35 -37 -65 12 -226 22 -73 38 -138 35 -143 -12 -19 -87 -50 -172 -71 -219 -53 -432 -3 -597 141 -38 34 -80 76 -94 96 l-25 34 60 65 c71 75 105 141 111 212 6 71 -14 110 -133 259 -160 201 -186 237 -231 328 -97 193 -100 342 -8 537 37 79 94 170 106 170 4 0 63 -27 130 -60z m3303 15 c118 -31 167 -66 211 -149 16 -30 26 -57 23 -60 -19 -19 -141 -39 -269 -43 -116 -4 -174 0 -290 17 -216 33 -491 38 -635 11 -60 -11 -113 -17 -117 -13 -7 7 33 131 70 216 21 46 23 48 54 42 88 -15 397 -17 513 -2 163 21 312 14 440 -19z m-4799 -356 c24 -12 64 -43 87 -69 125 -139 92 -366 -68 -465 -45 -28 -55 -30 -144 -29 -103 0 -144 14 -210 70 -75 63 -109 197 -77 306 27 96 121 182 223 208 53 13 136 4 189 -21z m4161 -325 c79 -16 203 -65 238 -94 11 -9 36 -26 55 -38 67 -40 198 -184 231 -256 24 -52 29 -70 20 -79 -17 -17 -273 -23 -325 -7 -51 15 -107 53 -221 150 -163 138 -250 193 -387 245 -73 27 -78 40 -21 59 110 36 289 45 410 20z m-2988 -308 c22 -48 16 -195 -13 -309 -53 -208 -174 -468 -317 -681 -195 -291 -382 -451 -589 -502 -93 -23 -230 -15 -335 20 -203 69 -399 240 -495 431 -54 110 -67 169 -47 217 31 75 127 102 186 52 17 -14 54 -71 83 -127 150 -289 427 -419 656 -306 143 70 314 288 471 598 93 185 136 285 186 441 44 139 55 156 108 181 57 26 88 21 106 -15z m-1566 -69 c58 -24 129 -100 145 -155 17 -55 15 -160 -4 -214 -20 -60 -70 -118 -126 -146 -208 -104 -442 33 -440 258 0 37 7 83 16 104 64 153 247 222 409 153z m3719 -10 c227 -183 493 -341 678 -401 l65 -21 0 -119 0 -118 -48 -44 c-30 -27 -58 -44 -74 -44 -13 0 -79 14 -146 31 -144 37 -207 41 -237 14 -29 -26 -25 -64 14 -137 107 -203 108 -205 97 -226 -30 -56 -264 -210 -369 -242 -90 -28 -291 -29 -315 -2 -10 11 -52 163 -102 366 -47 191 -96 386 -110 434 l-26 87 29 25 c15 14 84 73 153 131 68 59 169 152 224 207 55 56 103 102 107 102 4 0 31 -19 60 -43z m-786 -1120 c-158 -357 -97 -595 209 -812 68 -48 92 -70 83 -76 -22 -14 -261 -10 -342 5 -242 47 -306 96 -355 276 -39 141 -24 279 46 412 61 117 127 169 283 224 100 35 103 34 76 -29z m-1140 -128 c47 -257 -62 -723 -220 -943 -56 -78 -111 -130 -129 -123 -18 7 -43 107 -58 230 -14 124 -4 185 60 355 55 145 77 235 91 371 10 104 19 120 85 154 62 31 139 56 148 48 4 -5 15 -46 23 -92z"></path>
        </g>
    </g>
    <g id="l3AOtYhmabBel7ce27RSHZ7" fill="rgb(32,255,169)" style="transform: none;">
        <g>
            <path id="pcoTkuv6Z"
                  d="M4650 9939 c-660 -62 -1225 -223 -1787 -508 -812 -412 -1495 -1054 -1979 -1863 -101 -168 -263 -494 -327 -658 -25 -63 -56 -144 -70 -180 -79 -203 -177 -588 -222 -875 -47 -301 -57 -469 -52 -835 5 -347 15 -467 62 -752 91 -552 304 -1144 585 -1628 313 -537 691 -982 1155 -1357 596 -482 1291 -809 2035 -958 331 -66 455 -77 940 -82 440 -6 544 -1 780 33 571 82 1173 285 1655 559 848 481 1543 1210 1969 2065 278 557 441 1122 502 1740 25 243 24 733 0 955 -92 841 -368 1586 -839 2265 -232 334 -478 615 -767 872 -740 661 -1651 1072 -2640 1194 -157 19 -843 28 -1000 13z m624 -759 c791 -51 1539 -327 2181 -804 1041 -776 1667 -2006 1668 -3276 0 -411 -49 -755 -164 -1155 -161 -562 -411 -1037 -798 -1515 -121 -150 -433 -458 -591 -584 -316 -253 -705 -480 -1045 -611 -534 -206 -1032 -295 -1565 -280 -483 13 -796 68 -1230 214 -631 213 -1209 589 -1663 1080 -541 584 -895 1267 -1047 2021 -109 541 -114 961 -20 1521 77 458 279 989 536 1406 351 570 855 1067 1434 1413 681 407 1536 619 2304 570z"></path>
        </g>
    </g>
</svg>
