<svg class="img-fluid" id="outputsvg" xmlns="http://www.w3.org/2000/svg" style="transform: none; transform-origin: 50% 50%; cursor: move;" width="1024" height="1024" viewBox="0 0 10240 10240"><g id="l4PdHlbBlBTUdkIcl8nyZmi" fill="rgb(223,223,225)" style="transform: none;"><g><path id="pxQDn7DKH" d="M6005 5480 c-16 -26 -845 -3370 -845 -3410 l0 -45 258 -39 c141 -21 300 -45 352 -52 52 -7 124 -18 160 -24 36 -5 146 -22 245 -35 99 -14 288 -43 420 -65 400 -65 732 -111 781 -108 l47 3 102 395 c56 217 135 519 175 670 40 151 114 435 165 630 114 437 431 1642 445 1690 11 38 14 120 4 120 -4 0 -383 47 -843 105 -1499 189 -1454 184 -1466 165z m969 -1444 c148 -41 253 -98 359 -196 106 -97 165 -204 181 -325 9 -60 -15 -178 -49 -245 -74 -147 -243 -270 -439 -320 -313 -80 -689 93 -830 382 -57 115 -69 185 -50 277 19 88 56 159 123 233 91 100 215 169 371 203 81 18 252 13 334 -9z"></path></g></g><g id="l6YhBYgppsLAQBJAhDcUlvs" fill="rgb(251,207,81)" style="transform: none;"><g><path id="pnkbYvoMo" d="M4700 8478 c0 -27 14 -51 64 -114 123 -154 251 -260 581 -484 208 -141 298 -209 385 -289 l45 -42 -45 5 c-81 9 -173 44 -290 111 -282 161 -628 315 -706 315 l-44 0 0 -38 c0 -176 244 -569 477 -767 321 -274 703 -416 1398 -519 94 -14 234 -37 310 -51 185 -34 334 -46 535 -43 l165 3 -2 77 c-7 217 -108 463 -317 773 -59 88 -116 155 -211 250 -137 137 -229 208 -404 312 -215 128 -382 184 -846 283 -307 65 -535 121 -805 196 -91 25 -193 48 -227 51 l-63 5 0 -34z"></path><path id="p70v5bURI" d="M2790 5500 c0 -61 101 -222 260 -415 169 -204 268 -373 286 -486 l7 -44 -77 72 c-90 84 -328 278 -466 380 -316 233 -665 429 -782 441 l-48 5 0 -39 c0 -33 26 -76 184 -313 242 -363 342 -532 502 -846 118 -232 209 -433 344 -765 197 -484 263 -614 402 -802 196 -264 510 -515 841 -672 139 -66 206 -86 282 -86 62 0 66 1 76 27 18 45 23 185 9 241 -17 74 -94 179 -230 317 -139 142 -192 211 -253 337 -54 109 -81 191 -102 302 -9 45 -20 106 -26 138 -8 40 -8 70 -1 105 6 26 18 87 26 134 9 48 43 164 76 259 80 230 102 340 102 505 -1 154 -20 229 -82 323 -71 106 -255 261 -495 417 -82 54 -168 110 -190 124 -22 14 -96 65 -165 112 -236 162 -414 269 -448 269 -31 0 -32 -2 -32 -40z"></path></g></g><g id="l1m7hh1QTeWnMlNPPYvUTg1" fill="rgb(239,126,173)" style="transform: none;"><g><path id="p1EnnB1fGC" d="M4945 9994 c-306 -18 -481 -38 -705 -80 -827 -154 -1602 -523 -2264 -1076 -155 -130 -431 -407 -567 -568 -513 -608 -866 -1311 -1033 -2060 -82 -370 -107 -585 -113 -988 -7 -421 10 -645 77 -1012 181 -984 686 -1919 1411 -2614 170 -163 407 -358 564 -463 33 -22 96 -64 140 -94 483 -327 1144 -600 1695 -699 63 -11 122 -22 130 -25 20 -6 197 -31 330 -47 68 -8 260 -12 545 -13 484 0 576 7 935 76 1100 212 2065 778 2796 1639 804 946 1218 2213 1134 3462 -73 1065 -446 1996 -1138 2838 -181 219 -667 683 -775 739 -15 8 -49 33 -76 56 -81 69 -250 182 -381 253 -30 17 -86 49 -125 71 -389 225 -968 442 -1379 517 -180 33 -181 33 -466 70 -110 14 -599 26 -735 18z m680 -778 c240 -31 592 -113 815 -190 367 -127 753 -327 1069 -553 348 -249 648 -539 895 -868 660 -875 947 -1930 810 -2979 -83 -638 -309 -1242 -673 -1791 -502 -759 -1260 -1341 -2124 -1629 -406 -136 -831 -206 -1250 -206 -613 0 -1216 137 -1762 399 -342 165 -636 357 -919 601 -1062 916 -1610 2362 -1405 3705 110 721 410 1401 876 1985 128 161 422 459 588 596 642 530 1388 845 2220 938 171 19 687 15 860 -8z"></path></g></g><g id="l62zAOfATWcM3h9EyJmIE5V" fill="rgb(189,171,120)" style="transform: none;"><g><path id="p8NxrCPZP" d="M5550 6504 c0 -42 77 -150 392 -554 l184 -235 104 -12 c58 -6 517 -64 1022 -127 504 -64 930 -116 947 -116 29 0 31 2 31 36 0 38 -70 173 -134 260 -32 43 -389 489 -411 512 -7 8 -89 23 -206 38 -107 13 -367 47 -579 74 -212 27 -580 74 -818 105 -238 30 -455 55 -482 55 l-50 0 0 -36z"></path><path id="pyuKB6yC4" d="M5080 6489 c-6 -22 -29 -118 -50 -212 -21 -95 -78 -338 -125 -542 -94 -400 -221 -949 -315 -1355 -32 -140 -75 -322 -95 -405 -114 -472 -205 -885 -205 -928 0 -37 9 -66 37 -121 47 -89 185 -294 373 -555 l145 -200 50 -1 50 0 24 108 c13 59 77 332 143 607 66 275 165 685 219 910 54 226 130 543 169 705 39 162 104 437 145 610 41 173 88 371 104 440 47 190 50 177 -80 338 -61 75 -200 251 -311 390 -190 240 -201 252 -234 252 -30 0 -34 -3 -44 -41z"></path><path id="pooxYQ4Uf" d="M3966 3418 c-3 -13 -6 -45 -6 -73 0 -64 9 -95 26 -95 11 0 14 21 14 95 0 74 -3 95 -14 95 -7 0 -16 -10 -20 -22z"></path></g></g><g id="l2ZBKGxWgD8f3ssqmbRdkzJ" fill="rgb(153,134,84)" style="transform: none;"><g><path id="pbKQiAWpW" d="M3064 7862 c-138 -48 -359 -236 -459 -390 -188 -293 -226 -563 -105 -752 68 -106 218 -200 319 -200 l51 0 0 113 c0 141 22 237 85 363 109 223 303 389 517 443 l73 19 3 43 c5 68 -25 163 -73 228 -95 128 -264 183 -411 133z"></path><path id="pJjE3cIuy" d="M3772 7210 c-241 -87 -506 -348 -614 -606 -127 -305 -72 -544 159 -695 69 -45 81 -49 134 -49 l58 0 0 83 c0 103 20 202 62 303 97 232 324 454 548 535 l64 23 -6 75 c-8 96 -30 164 -72 223 -85 116 -203 155 -333 108z"></path><path id="pAJ4IeY57" d="M6632 3910 c-139 -37 -242 -114 -289 -216 -23 -51 -25 -64 -21 -162 5 -134 26 -181 117 -272 122 -122 233 -159 473 -160 173 0 283 41 374 142 64 71 79 118 79 243 0 99 -3 116 -27 168 -57 122 -195 225 -349 262 -91 21 -265 19 -357 -5z"></path></g></g><g id="l50bniuA0pf85swVHsdRDEH" fill="rgb(87,80,67)" style="transform: none;"><g><path id="pvFh45Nqr" d="M2540 7996 c-257 -72 -435 -338 -392 -588 15 -85 40 -136 99 -199 44 -47 48 -49 99 -49 l53 0 16 58 c62 213 252 462 463 606 64 44 72 53 72 82 0 38 -33 63 -119 88 -65 19 -225 20 -291 2z"></path><path id="pY7ufT32Y" d="M3350 7287 c-85 -29 -145 -65 -198 -118 -130 -131 -212 -325 -212 -504 0 -96 12 -115 77 -115 40 0 41 1 61 55 70 183 244 396 437 535 77 55 85 65 85 94 0 21 -8 40 -23 54 -32 31 -137 30 -227 -1z"></path><path id="p42jOEJzJ" d="M4023 6661 c-241 -87 -453 -424 -453 -720 l0 -69 82 -94 c45 -51 120 -136 168 -188 47 -52 202 -227 344 -388 l258 -293 51 3 51 3 48 190 c101 404 208 862 208 892 0 36 -8 46 -353 411 -121 128 -233 242 -248 253 -34 24 -88 24 -156 0z"></path><path id="pEHqX6WpJ" d="M5030 140 c0 -19 7 -20 108 -20 119 0 152 6 152 26 0 11 -26 14 -130 14 -123 0 -130 -1 -130 -20z"></path></g></g><g id="l4QTRMO49xD3fmvQqIInIPQ" fill="rgb(0,0,1)" style="transform: none;"><g><path id="pv9GWoKOK" d="M4855 10109 c-235 -14 -523 -55 -775 -110 -1016 -223 -1963 -772 -2654 -1539 -566 -627 -954 -1351 -1155 -2155 -156 -623 -185 -1282 -85 -1935 199 -1310 911 -2483 1984 -3271 685 -504 1524 -838 2350 -939 267 -32 780 -42 1043 -20 790 67 1530 309 2212 724 666 406 1252 994 1656 1663 412 680 656 1443 720 2243 14 184 6 666 -15 853 -120 1065 -554 2035 -1271 2837 -642 718 -1548 1267 -2476 1500 -529 133 -1017 180 -1534 149z m790 -163 c271 -34 289 -37 471 -70 411 -75 990 -292 1379 -517 39 -22 95 -54 125 -71 131 -71 300 -184 381 -253 27 -23 61 -48 76 -56 108 -56 594 -520 775 -739 384 -467 641 -911 847 -1458 229 -611 333 -1313 291 -1954 -90 -1361 -723 -2595 -1775 -3459 -621 -511 -1355 -854 -2155 -1008 -354 -68 -454 -76 -905 -75 -259 0 -449 5 -515 12 -132 16 -310 41 -330 47 -8 3 -67 14 -130 25 -551 99 -1212 372 -1695 699 -44 30 -107 72 -140 94 -157 105 -394 300 -564 463 -382 365 -708 804 -952 1279 -306 596 -476 1198 -530 1878 -15 193 -7 686 15 862 111 893 410 1648 934 2355 198 267 510 600 758 808 662 553 1437 922 2264 1076 224 42 398 62 705 80 131 8 556 -4 670 -18z"></path><path id="pWvbD2Wqj" d="M4735 9254 c-831 -93 -1578 -408 -2220 -938 -166 -137 -460 -435 -588 -596 -466 -584 -766 -1264 -876 -1985 -63 -414 -58 -863 14 -1288 161 -953 665 -1850 1391 -2477 654 -564 1434 -897 2313 -985 202 -20 595 -20 789 0 654 68 1260 281 1814 636 358 230 715 551 974 874 629 787 957 1754 931 2745 -7 256 -24 425 -68 655 -119 632 -379 1215 -775 1740 -485 644 -1186 1151 -1964 1421 -223 77 -574 159 -815 190 -173 23 -746 28 -920 8z m225 -829 c282 -77 504 -131 805 -195 464 -99 631 -155 846 -283 175 -104 267 -175 404 -312 133 -132 230 -262 338 -450 103 -180 179 -398 189 -540 l3 -50 -135 -3 c-170 -4 -326 10 -505 43 -76 14 -216 37 -310 51 -695 103 -1077 245 -1398 519 -195 166 -401 469 -462 679 -9 31 -14 60 -11 64 21 21 414 -159 686 -313 63 -36 144 -75 180 -86 70 -22 256 -47 267 -35 22 21 -212 214 -483 397 -336 228 -502 369 -614 525 l-34 47 35 -6 c19 -4 108 -27 199 -52z m-2149 -465 c35 -11 74 -28 87 -38 l23 -18 -73 -49 c-211 -145 -401 -393 -463 -607 -14 -49 -20 -58 -39 -58 -28 0 -105 78 -134 136 -76 151 -30 348 117 495 138 138 319 190 482 139z m443 -124 c117 -36 219 -140 251 -259 10 -36 16 -70 13 -77 -2 -7 -36 -21 -76 -31 -214 -54 -408 -220 -517 -443 -63 -126 -85 -222 -85 -363 0 -109 -1 -113 -21 -113 -35 0 -161 65 -211 109 -86 76 -148 206 -148 311 0 119 70 309 175 472 64 99 230 262 329 323 131 81 200 98 290 71z m295 -580 l22 -24 -85 -62 c-194 -139 -368 -352 -438 -535 -22 -59 -31 -64 -60 -38 -52 47 9 292 110 440 80 116 159 178 282 220 88 30 140 30 169 -1z m411 -81 c99 -51 167 -158 185 -291 l6 -51 -63 -23 c-223 -80 -450 -302 -547 -534 -41 -99 -62 -198 -64 -303 -2 -82 -2 -83 -28 -83 -40 0 -171 91 -219 151 -125 159 -138 291 -49 514 106 267 371 533 621 626 57 21 110 19 158 -6z m299 -652 c148 -153 460 -486 478 -512 10 -16 0 -69 -66 -347 -158 -658 -175 -719 -198 -722 -16 -2 -77 61 -279 290 -142 161 -297 336 -344 388 -48 52 -123 137 -168 188 -93 107 -95 112 -66 250 52 254 241 502 437 573 29 10 59 18 67 19 8 0 71 -57 139 -127z m1793 -68 c238 -31 606 -78 818 -105 212 -27 472 -61 579 -74 117 -15 199 -30 206 -38 22 -23 379 -469 411 -512 38 -52 138 -226 132 -231 -2 -3 -416 47 -919 111 -503 63 -961 121 -1019 127 l-104 12 -184 235 c-192 245 -392 513 -392 524 0 10 28 8 472 -49z m-724 -207 c111 -139 251 -315 312 -391 l112 -139 -20 -86 c-12 -48 -62 -258 -111 -467 -49 -209 -119 -501 -155 -650 -36 -148 -110 -457 -164 -685 -55 -228 -154 -640 -220 -915 -66 -275 -130 -548 -143 -607 -21 -94 -26 -108 -44 -108 -14 1 -60 56 -165 201 -267 370 -410 595 -410 646 0 18 126 572 205 898 20 83 63 265 95 405 94 406 221 955 315 1355 47 204 104 447 125 542 43 192 59 253 64 253 3 0 94 -114 204 -252z m-2318 -856 c91 -57 208 -134 260 -171 105 -73 111 -77 325 -216 240 -155 424 -311 495 -417 57 -86 81 -170 81 -293 0 -139 -21 -237 -102 -476 -83 -247 -104 -361 -95 -524 9 -175 45 -315 123 -473 61 -125 113 -193 262 -347 188 -193 240 -286 227 -406 -9 -90 -19 -109 -61 -109 -104 0 -402 148 -635 314 -278 199 -502 459 -648 751 -29 60 -131 296 -212 495 -135 332 -226 533 -344 765 -159 312 -273 504 -504 849 -96 143 -177 266 -180 274 -4 11 1 13 19 7 41 -13 200 -88 294 -139 251 -137 711 -479 941 -698 50 -49 99 -88 108 -88 21 0 21 49 1 142 -24 117 -122 287 -261 453 -97 116 -171 218 -231 317 -53 87 -64 116 -40 102 6 -5 86 -55 177 -112z m3315 33 c772 -95 1960 -246 1963 -250 3 -2 0 -21 -5 -42 -78 -292 -378 -1433 -448 -1703 -51 -195 -125 -479 -165 -630 -40 -151 -119 -453 -175 -670 -78 -302 -106 -396 -118 -398 -19 -4 -419 54 -752 108 -132 22 -321 51 -420 65 -99 13 -209 30 -245 35 -36 6 -108 17 -160 24 -440 62 -610 92 -610 106 0 19 837 3367 845 3380 7 12 -38 16 290 -25z"></path><path id="p1FQxzrP79" d="M6610 4075 c-155 -34 -280 -102 -371 -203 -105 -117 -151 -256 -130 -400 38 -262 281 -494 583 -556 278 -58 576 34 736 226 58 70 86 127 107 222 42 190 -16 362 -172 506 -106 97 -210 154 -359 196 -82 23 -308 28 -394 9z m349 -190 c154 -37 292 -140 349 -262 36 -76 38 -193 5 -264 -64 -141 -220 -229 -401 -229 -208 1 -326 43 -443 160 -82 82 -111 141 -117 241 -4 67 -1 84 21 133 30 65 93 130 165 169 113 61 288 83 421 52z"></path></g></g></svg>
