<svg class="img-fluid" id="outputsvg" xmlns="http://www.w3.org/2000/svg"
     style="transform: none; transform-origin: 50% 50%; cursor: move;" width="1024" height="1024"
     viewBox="0 0 10240 10240">
    <g id="l4nY4tqkW9W5im2TDMLTCP1" fill="rgb(0,0,0)" style="transform: none;">
        <g>
            <path id="p19efRP6jL"
                  d="M4900 9219 c-705 -36 -1448 -284 -2045 -682 -255 -170 -437 -319 -648 -531 -697 -696 -1103 -1550 -1209 -2536 -17 -166 -15 -601 5 -790 136 -1282 837 -2410 1937 -3117 510 -327 1100 -536 1740 -615 170 -21 781 -17 950 5 547 74 1044 240 1515 504 138 78 414 267 555 379 148 119 464 428 582 569 221 265 380 510 543 837 225 452 353 893 417 1443 20 170 17 685 -5 863 -142 1154 -715 2150 -1632 2839 -662 498 -1442 785 -2256 833 -190 11 -233 11 -449 -1z m-2365 -1318 c52 -23 94 -66 158 -160 28 -42 132 -186 230 -320 265 -359 307 -424 307 -469 -1 -109 -114 -235 -232 -257 -55 -10 -132 18 -168 63 -16 21 -69 87 -117 148 -146 184 -316 392 -418 514 -105 124 -134 175 -135 230 0 47 40 128 81 166 106 97 205 126 294 85z m1271 -765 c30 -30 34 -40 34 -89 0 -133 -45 -308 -115 -452 -105 -213 -294 -366 -540 -437 -71 -20 -100 -23 -265 -22 -288 1 -382 21 -423 92 -16 27 -17 35 -5 58 16 33 57 65 84 65 10 0 123 -3 249 -7 266 -7 326 1 453 62 58 28 95 55 152 113 120 121 181 242 224 443 30 140 38 160 72 187 35 28 40 27 80 -13z m960 -561 c258 -107 749 -306 1091 -442 389 -155 622 -253 623 -262 0 -31 -78 -178 -110 -205 -48 -40 -81 -33 -285 54 -93 40 -226 96 -295 125 -69 29 -325 139 -570 245 -245 105 -539 232 -655 282 -115 49 -224 101 -242 114 -17 13 -43 48 -58 78 -23 48 -25 58 -16 94 12 42 39 112 44 112 2 0 214 -88 473 -195z m2644 -558 c-16 -109 -67 -199 -129 -231 -28 -15 -183 -50 -268 -61 -65 -8 -66 -4 -16 84 52 94 121 156 244 220 57 30 120 65 139 78 35 23 35 23 38 3 2 -11 -2 -53 -8 -93z m-2777 -165 l57 -27 -61 -105 c-62 -105 -100 -159 -124 -172 -17 -10 -108 72 -140 126 -13 22 -47 99 -75 170 -28 71 -60 146 -70 166 l-20 38 188 -84 c103 -47 213 -97 245 -112z m-806 136 c28 -31 55 -86 101 -209 55 -147 74 -207 68 -218 -16 -25 -301 -131 -359 -133 -15 -1 -35 6 -45 15 -10 10 -23 17 -29 17 -17 0 -162 140 -230 223 l-62 75 107 42 c122 48 247 110 342 169 36 22 70 40 76 41 6 0 20 -10 31 -22z m4341 -332 c268 -368 291 -403 302 -467 14 -90 -22 -281 -50 -264 -18 11 -342 485 -484 709 -42 66 -76 129 -76 141 0 27 23 93 52 153 l23 44 25 -32 c14 -18 107 -146 208 -284z m-3022 -44 c82 -37 314 -140 517 -227 202 -88 367 -162 367 -166 0 -16 -295 -142 -369 -158 -66 -14 -119 -1 -292 70 -131 54 -491 227 -522 251 -17 13 -14 22 60 156 43 78 81 142 84 142 3 0 73 -31 155 -68z m-1781 -376 c25 -28 45 -53 45 -57 0 -3 -11 -11 -25 -17 -34 -16 -118 -15 -180 2 -42 11 -320 122 -335 133 -3 3 62 213 91 291 8 22 20 14 184 -139 97 -89 196 -184 220 -213z m4221 11 c28 -45 148 -233 266 -418 l215 -336 -121 -23 c-68 -13 -176 -25 -246 -28 -353 -12 -668 151 -864 447 -44 66 -100 181 -92 189 2 1 84 27 182 57 99 30 271 85 384 124 113 38 210 70 215 70 6 0 33 -37 61 -82z m-3419 -37 c42 -25 66 -74 96 -193 l25 -96 -67 52 c-37 29 -112 88 -168 132 -56 43 -100 81 -98 83 11 12 114 41 145 41 19 1 49 -8 67 -19z m512 -109 c79 -32 378 -169 475 -219 l90 -46 -33 -14 c-19 -7 -70 -16 -115 -19 -171 -11 -333 63 -413 191 -26 41 -65 126 -58 126 2 0 26 -9 54 -19z m-2492 -53 c135 -44 178 -68 205 -115 24 -39 17 -69 -27 -120 -27 -31 -45 -42 -87 -51 -54 -12 -464 -82 -479 -82 -12 0 -11 111 2 190 17 109 76 180 178 216 43 15 51 14 208 -38z m783 -89 c90 -35 184 -77 209 -94 60 -40 93 -89 89 -134 -6 -64 -20 -68 -337 -96 -156 -14 -286 -24 -288 -21 -5 4 31 113 119 359 12 32 26 56 32 54 6 -3 85 -33 176 -68z m3639 -256 l250 -288 -72 -12 c-466 -74 -507 -77 -578 -46 -25 11 -62 35 -82 53 -67 59 -239 304 -249 354 -2 11 7 26 22 37 29 22 417 187 442 188 11 1 114 -110 267 -286z m-2644 87 c124 -83 165 -116 150 -119 -27 -5 -523 4 -529 10 -15 15 60 236 91 271 18 20 27 14 288 -162z m724 -239 c80 -25 138 -60 188 -114 43 -46 93 -134 93 -162 0 -62 -215 -26 -335 56 -64 44 -165 158 -165 188 0 20 72 48 132 50 14 1 53 -7 87 -18z m905 -11 c37 -33 96 -119 96 -140 0 -26 -136 -5 -263 40 -65 23 -116 44 -113 47 11 11 203 82 223 83 12 0 38 -14 57 -30z m-2290 -194 c36 -15 77 -62 155 -178 l51 -77 -27 -14 c-37 -19 -214 -82 -285 -102 -76 -22 -124 -8 -188 51 -44 41 -201 250 -215 286 -7 16 -2 17 265 38 154 12 209 11 244 -4z m825 -23 c13 -8 19 -18 15 -23 -5 -4 -62 -24 -127 -45 -149 -47 -173 -44 -239 27 -27 28 -48 55 -48 61 0 17 370 -1 399 -20z m-1762 -69 c23 -13 64 -49 90 -80 65 -74 192 -257 228 -328 36 -68 46 -58 -123 -128 l-112 -47 -124 142 c-265 304 -374 432 -370 436 9 9 292 39 329 35 22 -3 59 -16 82 -30z m3187 -160 c108 -24 169 -43 190 -58 17 -13 46 -29 64 -36 17 -7 32 -18 32 -26 0 -7 -19 -54 -41 -104 l-42 -90 -36 27 c-58 43 -219 171 -320 256 l-94 79 44 -7 c24 -3 116 -22 203 -41z m1041 -396 c-272 -513 -276 -519 -285 -516 -30 11 -330 284 -330 300 0 5 41 105 90 221 130 304 153 322 409 338 156 10 294 15 300 12 2 -1 -81 -161 -184 -355z m-2033 313 c48 -19 104 -70 131 -119 25 -47 62 -180 52 -190 -2 -3 -30 11 -62 29 -32 18 -143 76 -246 129 l-188 97 98 31 c137 44 156 46 215 23z m727 -284 c114 -105 159 -152 150 -157 -28 -15 -193 -29 -214 -18 -41 21 -75 63 -95 115 -17 46 -70 241 -70 258 0 10 47 -30 229 -198z m-1376 32 c128 -26 252 -72 444 -164 259 -125 427 -256 533 -418 33 -50 60 -94 60 -98 0 -4 -64 22 -142 58 -79 36 -190 87 -248 113 -201 91 -1004 461 -1018 469 -10 5 16 15 74 29 156 37 168 38 297 11z m1855 -509 c29 -17 114 -91 190 -165 126 -124 136 -136 119 -149 -18 -14 -195 -51 -390 -81 -187 -30 -248 14 -337 241 -22 56 -40 109 -40 117 0 11 28 19 113 32 61 9 135 20 162 25 95 15 127 12 183 -20z m1252 -331 c126 -64 164 -98 176 -156 6 -28 -19 -189 -31 -201 -15 -15 -415 280 -415 305 0 25 40 82 68 98 46 24 77 17 202 -46z m-773 -330 c70 -23 135 -63 313 -193 l124 -91 -39 -7 c-22 -4 -175 -19 -340 -33 -165 -14 -337 -30 -383 -34 l-84 -7 -18 35 c-44 88 -101 235 -98 254 5 35 60 53 243 80 180 26 186 26 282 -4z"></path>
        </g>
    </g>
    <g id="l1euFi9fj6ur7ebdB5Yk1nt" fill="rgb(254,254,254)" style="transform: none;">
        <g>
            <path id="pS5JTvYSi"
                  d="M2401 7949 c-101 -19 -208 -99 -247 -184 -30 -64 -32 -161 -5 -220 10 -22 63 -92 116 -155 102 -122 272 -330 418 -514 48 -61 101 -127 117 -148 83 -102 298 -84 391 33 49 62 69 117 69 191 0 67 -1 69 -64 162 -35 51 -144 203 -243 337 -98 134 -202 278 -230 320 -29 42 -67 91 -85 109 -58 59 -151 86 -237 69z"></path>
            <path id="p1AJvU20Uh"
                  d="M4140 6086 c5 -13 23 -51 39 -84 17 -33 53 -118 82 -189 63 -161 86 -200 149 -256 77 -70 105 -70 162 -2 25 30 168 272 168 285 0 8 13 2 -318 151 -145 66 -270 119 -277 119 -11 0 -12 -6 -5 -24z"></path>
            <path id="pERL6wwvs"
                  d="M4963 5718 c-33 -42 -184 -331 -179 -343 7 -18 393 -208 566 -279 240 -97 297 -97 514 -2 185 82 266 120 266 127 0 4 -19 14 -42 24 -84 33 -805 348 -954 416 -83 38 -154 69 -157 69 -2 0 -9 -6 -14 -12z"></path>
            <path id="prGAFV9nO"
                  d="M2885 5479 c-37 -110 -65 -202 -64 -203 14 -12 325 -136 369 -146 77 -19 187 -17 228 4 25 13 32 23 32 46 0 24 -19 49 -107 138 -116 116 -378 362 -386 362 -3 0 -35 -90 -72 -201z"></path>
            <path id="pezoEPz43"
                  d="M7310 5298 c-129 -43 -316 -103 -414 -133 -99 -30 -183 -60 -187 -66 -10 -17 17 -104 53 -169 110 -200 287 -360 489 -444 143 -59 266 -79 454 -73 180 5 415 43 415 67 0 4 -66 111 -146 237 -81 125 -205 320 -277 433 -72 113 -135 210 -141 216 -8 9 -73 -9 -246 -68z"></path>
            <path id="pWR9kdkrB"
                  d="M4060 5260 c-88 -16 -170 -50 -170 -71 0 -5 55 -52 123 -106 67 -53 163 -129 213 -170 51 -40 97 -73 103 -73 13 0 13 0 -29 176 -17 71 -41 148 -53 169 -36 64 -101 90 -187 75z"></path>
            <path id="p1EXgEEPKu"
                  d="M4575 5150 c-6 -11 36 -115 71 -176 81 -138 240 -211 444 -201 100 4 230 31 230 48 0 23 -124 91 -395 214 -260 119 -333 143 -350 115z"></path>
            <path id="psN3AsFFH"
                  d="M2755 5068 c-14 -36 -121 -343 -143 -410 -14 -43 -24 -79 -22 -82 3 -2 151 9 330 25 356 32 368 35 381 97 8 40 -3 104 -25 137 -28 42 -92 82 -204 126 -59 23 -151 59 -206 80 -112 45 -105 43 -111 27z"></path>
            <path id="phnTUAcQt"
                  d="M3652 4988 c-39 -42 -102 -231 -102 -306 0 -29 0 -29 77 -36 42 -3 190 -6 330 -6 211 0 253 2 253 14 0 29 -483 356 -526 356 -6 0 -20 -10 -32 -22z"></path>
            <path id="p1oCwSGFl"
                  d="M5415 4571 c-55 -21 -112 -44 -128 -50 -35 -14 -46 -40 -23 -57 10 -7 70 -31 134 -54 163 -59 342 -70 342 -22 0 22 -62 127 -98 166 -29 30 -79 56 -109 56 -10 0 -63 -18 -118 -39z"></path>
            <path id="pCFnKNn2Q"
                  d="M3670 4367 c0 -28 93 -141 133 -160 56 -28 114 -23 258 23 l130 41 -3 31 c-6 62 -26 67 -285 75 -210 6 -233 5 -233 -10z"></path>
            <path id="pesMuJC8e"
                  d="M2205 4316 c-5 -2 -81 -12 -168 -21 -86 -10 -157 -20 -157 -24 0 -7 378 -449 486 -567 l73 -82 128 54 c169 72 173 74 179 101 9 33 -39 127 -134 261 -156 223 -214 272 -330 278 -37 2 -71 2 -77 0z"></path>
            <path id="pVo4sUUD6"
                  d="M5235 4160 c-5 -9 2 -20 21 -34 16 -11 56 -44 89 -71 246 -207 404 -327 421 -321 20 8 105 190 112 238 4 37 3 39 -40 58 -24 11 -56 28 -69 39 -16 12 -88 34 -190 56 -181 41 -331 56 -344 35z"></path>
            <path id="pvBVsLfUo"
                  d="M6670 4083 c-492 -20 -488 -17 -630 -350 -50 -117 -93 -227 -97 -244 -5 -26 0 -36 38 -76 78 -80 328 -293 345 -293 5 0 40 60 78 133 39 72 152 287 253 477 101 190 183 348 183 352 0 5 -21 7 -47 6 -27 -1 -82 -3 -123 -5z"></path>
            <path id="pM5vfvZFV"
                  d="M4440 4053 c-61 -10 -270 -82 -270 -93 0 -4 73 -45 163 -90 89 -46 226 -119 305 -162 79 -44 146 -78 148 -75 3 2 -2 51 -11 108 -19 134 -58 218 -122 262 -72 51 -127 64 -213 50z"></path>
            <path id="p1FC6wa6f6"
                  d="M5026 4003 c-3 -3 -6 -20 -6 -37 0 -40 52 -254 80 -328 22 -61 72 -113 116 -124 31 -8 295 23 308 36 10 10 13 8 -273 268 -203 186 -214 195 -225 185z"></path>
            <path id="pGlw2Woy5"
                  d="M3675 3799 c-52 -9 -226 -57 -234 -65 -9 -9 15 -23 114 -67 55 -25 298 -136 540 -247 242 -111 494 -227 560 -257 66 -30 173 -80 238 -111 64 -30 120 -52 123 -49 12 11 -37 116 -97 206 -105 160 -274 292 -532 416 -323 155 -527 205 -712 174z"></path>
            <path id="pWTVtsZSD"
                  d="M5935 2624 c-93 -15 -185 -32 -203 -40 -42 -17 -57 -55 -43 -110 11 -44 105 -262 119 -276 8 -8 328 17 747 57 83 8 162 15 178 15 17 0 27 5 27 15 0 15 -210 176 -342 263 -88 57 -177 91 -258 97 -32 3 -127 -7 -225 -21z"></path>
        </g>
    </g>
    <g id="l2S3L44rZdYxn3cYOgzE8gM" fill="rgb(104,199,210)" style="transform: none;">
        <g>
            <path id="pI83Dc9cw"
                  d="M3696 7179 c-34 -27 -42 -47 -72 -187 -43 -201 -104 -322 -224 -443 -86 -87 -182 -140 -297 -164 -80 -17 -273 -19 -427 -5 -76 8 -118 7 -141 0 -104 -34 -114 -184 -16 -235 52 -26 178 -39 401 -39 196 -1 222 1 295 22 175 50 335 152 441 280 128 156 214 412 214 639 0 83 -1 86 -34 119 -42 42 -97 47 -140 13z"></path>
            <path id="prFu3u1B2"
                  d="M3764 6040 c-11 -4 -50 -26 -87 -49 -98 -60 -197 -108 -332 -162 -66 -26 -121 -54 -123 -61 -6 -31 252 -312 312 -339 11 -5 32 -16 46 -24 14 -8 37 -15 51 -15 60 0 338 98 386 136 l27 21 -18 64 c-9 34 -37 116 -61 180 -86 230 -126 280 -201 249z"></path>
            <path id="pA2zj5c0c"
                  d="M6110 4940 c-118 -50 -226 -98 -240 -109 -52 -38 -36 -100 66 -252 162 -240 248 -292 451 -269 105 11 535 78 540 84 6 6 -535 623 -552 630 -31 12 -50 6 -265 -84z"></path>
            <path id="p15Il74KBD"
                  d="M4513 4590 c-18 -4 -44 -15 -59 -25 -22 -14 -25 -22 -21 -51 7 -44 53 -109 121 -171 87 -80 185 -119 320 -129 137 -9 162 24 108 141 -35 74 -98 146 -159 182 -92 54 -217 75 -310 53z"></path>
            <path id="p1D81m2V7B"
                  d="M3090 4384 c-19 -2 -98 -9 -175 -14 -163 -13 -175 -15 -175 -39 0 -27 156 -246 225 -318 97 -99 161 -105 369 -34 147 50 210 81 214 104 4 19 -81 155 -146 236 -19 24 -50 50 -68 57 -31 13 -147 17 -244 8z"></path>
            <path id="pR9djuQi6"
                  d="M5450 3284 c-85 -13 -161 -26 -169 -29 -21 -8 -9 -65 38 -188 52 -130 93 -194 146 -224 77 -43 138 -41 435 13 228 42 247 51 229 104 -14 39 -265 282 -331 320 -66 38 -126 38 -348 4z"></path>
        </g>
    </g>
    <g id="l4r2ui7pgv7m7eXCbtBAvqg" fill="rgb(176,177,179)" style="transform: none;">
        <g>
            <path id="pT9JzVbcr"
                  d="M4250 6776 c-26 -62 -40 -115 -40 -157 0 -47 44 -134 84 -163 17 -13 126 -65 241 -114 116 -50 410 -177 655 -282 245 -106 501 -216 570 -245 69 -29 200 -85 292 -124 92 -39 188 -75 213 -80 93 -17 146 12 195 109 31 62 75 179 69 184 -2 2 -281 114 -619 249 -529 211 -1063 429 -1512 618 -65 27 -120 49 -123 49 -3 0 -14 -20 -25 -44z"></path>
            <path id="p4R3iE7TR"
                  d="M7374 6151 c-32 -20 -106 -62 -163 -92 -135 -70 -202 -134 -259 -250 -61 -123 -61 -123 46 -116 116 8 286 45 325 71 41 28 83 89 102 151 19 59 32 259 18 268 -5 3 -36 -11 -69 -32z"></path>
            <path id="pEWuTGT19"
                  d="M7895 5980 c-28 -44 -75 -176 -75 -210 0 -35 41 -104 253 -420 269 -402 328 -480 363 -480 42 0 84 216 65 335 -12 80 -21 94 -302 480 -214 295 -246 335 -265 335 -7 0 -25 -18 -39 -40z"></path>
            <path id="p4n6TAXOO"
                  d="M1949 5117 c-141 -53 -189 -147 -189 -374 l0 -93 39 0 c38 0 411 60 506 81 144 33 184 215 63 289 -50 30 -270 101 -330 106 -31 2 -68 -1 -89 -9z"></path>
            <path id="puPPKvjDs"
                  d="M6815 3005 c-44 -16 -79 -53 -96 -102 -18 -56 -9 -74 71 -136 82 -64 357 -257 378 -264 28 -11 69 171 60 266 -8 79 -38 109 -180 179 -138 68 -175 77 -233 57z"></path>
        </g>
    </g>
    <g id="l3AOtYhmabBel7ce27RSHZ7" fill="rgb(254,254,254)" style="transform: none;">
        <g>
            <path id="pcoTkuv6Z"
                  d="M4650 9939 c-660 -62 -1225 -223 -1787 -508 -812 -412 -1495 -1054 -1979 -1863 -101 -168 -263 -494 -327 -658 -25 -63 -56 -144 -70 -180 -79 -203 -177 -588 -222 -875 -47 -301 -57 -469 -52 -835 5 -347 15 -467 62 -752 91 -552 304 -1144 585 -1628 313 -537 691 -982 1155 -1357 596 -482 1291 -809 2035 -958 331 -66 455 -77 940 -82 440 -6 544 -1 780 33 571 82 1173 285 1655 559 848 481 1543 1210 1969 2065 278 557 441 1122 502 1740 25 243 24 733 0 955 -92 841 -368 1586 -839 2265 -232 334 -478 615 -767 872 -740 661 -1651 1072 -2640 1194 -157 19 -843 28 -1000 13z m624 -759 c791 -51 1539 -327 2181 -804 1041 -776 1667 -2006 1668 -3276 0 -411 -49 -755 -164 -1155 -161 -562 -411 -1037 -798 -1515 -121 -150 -433 -458 -591 -584 -316 -253 -705 -480 -1045 -611 -534 -206 -1032 -295 -1565 -280 -483 13 -796 68 -1230 214 -631 213 -1209 589 -1663 1080 -541 584 -895 1267 -1047 2021 -109 541 -114 961 -20 1521 77 458 279 989 536 1406 351 570 855 1067 1434 1413 681 407 1536 619 2304 570z"></path>
        </g>
    </g>
</svg>
