<svg class="img-fluid" id="outputsvg" xmlns="http://www.w3.org/2000/svg" style="transform: none; transform-origin: 50% 50%; cursor: move;" width="1024" height="1024" viewBox="0 0 10240 10240"><g id="l4VgE5jh5DTd7VaysQcIEk2" fill="rgb(252,198,43)" style="transform: none;"><g><path id="p15aeXfOHG" d="M4406 7433 c-7 -26 -160 -846 -271 -1453 -53 -289 -99 -535 -103 -547 -7 -20 -20 -16 -352 121 -190 79 -410 171 -488 204 -79 34 -157 62 -173 62 -53 0 -41 -46 85 -323 323 -714 309 -680 291 -693 -45 -33 -178 -53 -565 -84 -484 -38 -460 -35 -460 -63 0 -13 -11 -268 -25 -567 -52 -1166 -58 -1309 -59 -1434 l-1 -130 580 -148 c319 -81 774 -198 1010 -258 1152 -295 1858 -470 1899 -470 l45 0 1018 1013 c1728 1719 1633 1622 1633 1661 0 30 -306 625 -752 1464 l-71 132 -41 0 c-34 -1 -170 -66 -752 -358 l-711 -357 -7 410 c-3 226 -6 497 -6 603 l0 192 -36 0 c-23 0 -48 -9 -72 -27 -20 -16 -124 -95 -231 -176 -156 -119 -197 -145 -206 -135 -7 7 -175 218 -375 468 -717 900 -725 910 -766 910 -22 0 -34 -5 -38 -17z m425 -954 c123 -152 324 -401 447 -553 l224 -276 46 0 c38 0 71 12 169 63 81 41 125 59 132 52 6 -6 13 -207 18 -505 l8 -495 52 -3 c50 -3 74 8 809 373 416 206 758 374 759 373 2 -2 76 -142 165 -313 90 -170 223 -424 296 -563 74 -139 134 -255 134 -258 0 -2 -210 -212 -467 -466 -258 -254 -797 -790 -1200 -1192 l-731 -729 -59 16 c-32 9 -236 61 -453 116 -217 55 -588 149 -825 209 -236 60 -646 165 -910 232 -264 68 -563 144 -665 170 l-185 46 3 65 c1 35 11 291 22 569 32 821 42 978 64 985 10 4 862 74 1104 91 l92 7 0 37 c0 25 -20 82 -59 166 -124 274 -241 534 -241 538 0 2 28 -7 63 -20 450 -178 504 -198 565 -202 34 -2 62 -2 62 1 0 3 22 122 49 264 77 399 155 817 218 1166 31 174 60 316 64 315 4 -2 107 -127 230 -279z"></path><path id="p12SbWkjMK" d="M5672 4224 c-45 -88 -173 -582 -175 -674 l-2 -65 80 -28 c44 -15 148 -48 230 -72 83 -25 224 -67 315 -95 264 -81 338 -101 405 -107 l63 -6 21 69 c43 145 113 462 118 536 7 100 -5 120 -84 142 -110 31 -358 128 -466 182 -198 100 -323 147 -409 152 l-76 4 -20 -38z m247 -280 c17 -21 21 -41 21 -94 0 -37 3 -82 6 -99 6 -29 9 -31 50 -31 43 0 44 1 85 65 63 100 79 103 220 49 120 -46 159 -66 187 -97 l23 -24 -39 -142 c-22 -79 -45 -148 -51 -154 -7 -7 -34 -3 -93 17 -405 132 -515 170 -530 184 -23 20 -23 51 2 165 34 152 48 187 75 187 14 0 32 -11 44 -26z"></path><path id="p6MZJtoAQ" d="M4359 3956 c-31 -12 -81 -38 -110 -56 -74 -45 -398 -282 -513 -374 -150 -121 -156 -128 -156 -176 0 -36 7 -49 47 -94 25 -28 133 -148 239 -266 105 -118 221 -245 256 -283 62 -66 64 -67 114 -67 59 0 60 1 314 210 213 176 419 359 453 403 19 26 27 47 27 78 0 36 -8 52 -57 113 -95 118 -357 428 -410 484 -46 49 -52 52 -99 52 -28 0 -73 -10 -105 -24z m213 -388 c186 -200 202 -231 151 -287 -39 -42 -422 -341 -437 -341 -14 0 -396 383 -396 397 0 21 45 66 83 83 54 24 85 12 144 -57 60 -70 86 -83 186 -90 114 -8 120 -1 115 121 -3 87 -5 95 -45 163 -24 39 -43 76 -43 82 0 6 18 24 41 41 38 27 43 28 69 15 15 -8 74 -65 132 -127z"></path></g></g><g id="lbOnKKQRaj2KbbrsxB6GC1" fill="rgb(3,108,215)" style="transform: none;"><g><path id="px9MvHaqq" d="M4720 10019 c-513 -34 -1025 -148 -1505 -336 -172 -67 -519 -237 -677 -331 -1019 -609 -1767 -1531 -2148 -2648 -256 -751 -327 -1551 -209 -2354 180 -1231 823 -2360 1784 -3136 609 -492 1287 -817 2040 -979 1104 -236 2251 -101 3230 380 238 117 378 198 591 343 610 415 1096 933 1494 1592 90 148 247 468 318 645 191 476 297 911 348 1420 24 240 24 739 0 975 -80 802 -342 1547 -779 2218 -593 909 -1481 1599 -2522 1958 -286 99 -597 175 -895 219 -280 42 -732 56 -1070 34z m755 -863 c187 -23 397 -62 575 -108 85 -22 171 -44 190 -49 30 -7 98 -31 185 -64 305 -117 575 -244 740 -350 604 -387 978 -748 1328 -1280 469 -715 709 -1597 658 -2415 -66 -1042 -491 -1996 -1212 -2719 -680 -681 -1502 -1080 -2464 -1198 -198 -24 -633 -23 -843 1 -1114 130 -2078 674 -2794 1576 -374 472 -661 1089 -792 1700 -104 486 -113 1018 -26 1530 72 425 239 899 449 1275 450 805 1131 1423 1971 1788 400 174 862 287 1335 327 143 12 547 4 700 -14z"></path></g></g><g id="l7D8UiM34zl5IKY4IPNIHk2" fill="rgb(195,31,38)" style="transform: none;"><g><path id="pVuK7qMxo" d="M4889 8469 c-61 -66 -80 -131 -89 -294 -5 -109 -11 -152 -28 -193 -45 -108 -23 -177 103 -325 78 -92 122 -160 220 -337 105 -190 347 -524 437 -605 59 -53 171 -131 235 -164 31 -15 60 -21 113 -21 77 0 108 13 290 116 47 27 101 57 121 66 36 16 37 16 57 -5 36 -38 60 -108 102 -293 22 -98 48 -201 56 -229 31 -93 85 -187 140 -242 71 -72 127 -96 234 -101 74 -4 93 -1 147 21 69 28 226 129 335 215 129 102 261 192 335 229 86 43 81 45 163 -77 32 -47 81 -116 110 -155 73 -98 110 -169 174 -329 61 -153 102 -225 239 -426 l92 -135 47 -3 46 -3 7 98 c11 148 1 398 -18 425 -15 23 -51 44 -162 93 -84 37 -116 64 -149 125 -50 93 -57 136 -65 410 -6 211 -10 261 -24 287 -17 33 -81 83 -104 83 -31 0 -112 45 -122 68 -8 17 -10 67 -5 161 7 148 -3 213 -36 231 -10 5 -40 10 -66 10 -43 0 -51 -4 -90 -44 -52 -54 -69 -122 -60 -230 7 -81 -6 -119 -43 -124 -33 -5 -77 41 -92 96 -18 69 -25 392 -16 767 9 374 5 440 -27 487 -21 31 -26 33 -79 33 -52 0 -60 -4 -96 -39 -59 -57 -71 -90 -71 -188 0 -63 8 -112 29 -189 51 -183 56 -232 56 -539 0 -235 -4 -301 -18 -375 -22 -109 -66 -227 -120 -320 -53 -92 -175 -218 -244 -251 -49 -24 -57 -25 -99 -15 -63 16 -138 81 -168 145 -31 66 -42 126 -61 321 -8 88 -26 230 -39 315 -58 369 -59 542 -5 820 51 262 44 405 -20 440 -26 13 -106 13 -156 -1 -53 -15 -120 -85 -136 -141 -19 -73 -6 -235 35 -411 45 -197 52 -259 37 -339 -27 -139 -74 -254 -135 -325 -51 -59 -166 -133 -205 -133 -66 0 -298 66 -400 113 -165 76 -202 230 -140 582 24 142 25 277 1 325 -22 46 -74 61 -135 39 -63 -21 -87 -72 -98 -206 -4 -58 -10 -107 -12 -110 -8 -7 -91 93 -125 150 -18 30 -45 88 -59 129 -23 66 -25 83 -20 178 3 58 11 153 18 212 17 143 11 162 -55 166 -45 3 -50 1 -87 -39z"></path><path id="pJnV3LUhO" d="M3635 8256 c-41 -19 -75 -52 -91 -92 -24 -56 -18 -247 16 -491 31 -228 60 -592 60 -750 0 -125 -13 -180 -70 -299 -39 -80 -60 -112 -105 -152 -79 -73 -137 -89 -266 -75 -195 22 -279 99 -309 287 -9 57 -7 95 11 234 27 212 24 448 -7 527 -19 49 -21 50 -64 53 l-45 3 -45 -68 c-25 -37 -57 -104 -72 -148 -24 -68 -28 -97 -28 -192 0 -70 7 -151 19 -215 58 -305 52 -400 -34 -571 -22 -44 -35 -83 -35 -108 l0 -39 114 0 c139 0 191 -14 514 -136 337 -128 444 -150 490 -101 27 28 100 184 140 299 52 145 109 398 163 718 21 125 36 361 25 404 -6 24 -10 26 -64 26 -40 0 -67 -6 -91 -21 -32 -19 -34 -19 -46 -2 -8 10 -18 36 -24 58 -11 44 -9 55 60 365 26 117 32 169 33 270 1 141 -13 189 -65 215 -35 19 -144 19 -184 1z"></path><path id="p19cL3fana" d="M2119 6517 c-48 -32 -96 -108 -110 -175 -19 -91 -5 -271 36 -467 38 -179 45 -281 24 -358 -6 -23 -44 -123 -84 -223 -155 -385 -202 -581 -211 -884 -6 -225 -8 -233 -49 -275 -27 -26 -48 -37 -97 -46 -49 -10 -71 -20 -97 -46 l-33 -33 4 -98 c4 -86 8 -105 38 -162 38 -75 131 -172 261 -273 70 -54 94 -67 123 -67 43 0 41 -4 56 170 23 291 92 1045 106 1165 20 175 38 235 86 290 56 63 118 84 292 96 196 15 200 16 204 63 3 31 -2 44 -24 67 -15 16 -36 29 -45 29 -10 0 -20 4 -24 9 -3 5 -30 15 -59 21 -30 6 -61 19 -70 29 -15 17 -15 21 5 66 16 35 20 60 16 94 -4 40 -12 52 -53 89 -27 23 -53 42 -59 42 -16 0 -72 62 -80 89 -11 37 -6 215 10 351 8 69 15 191 15 273 0 134 -2 149 -20 167 -29 29 -115 28 -161 -3z"></path><path id="p177TpjSVB" d="M4695 6138 c-14 -79 -60 -314 -101 -522 -41 -208 -74 -392 -74 -409 0 -34 224 -437 796 -1429 l39 -68 46 0 47 0 22 81 c17 65 54 224 116 508 4 21 9 22 41 16 33 -6 677 -212 827 -264 33 -12 84 -21 117 -21 55 0 57 1 68 31 19 56 14 138 -12 183 -301 524 -276 486 -314 486 -38 0 -83 -18 -380 -156 -111 -52 -204 -94 -207 -94 -3 0 -7 213 -8 473 l-3 472 -38 3 c-29 3 -55 -6 -114 -38 -41 -23 -79 -38 -83 -33 -23 25 -268 356 -345 466 -50 71 -144 201 -210 290 -119 160 -120 162 -161 165 l-42 3 -27 -143z"></path><path id="pUkgVniAJ" d="M7065 5100 c-235 -110 -429 -199 -517 -240 l-68 -30 0 -48 c0 -51 -27 0 358 -677 247 -436 220 -396 269 -393 40 3 56 16 382 326 323 306 341 325 341 359 0 36 -13 57 -390 645 l-95 148 -45 -1 c-35 0 -88 -20 -235 -89z"></path><path id="pJd0U1unJ" d="M3933 4895 c-14 -37 9 -112 79 -266 96 -209 138 -305 138 -317 0 -5 -89 -17 -197 -26 -109 -10 -204 -19 -210 -22 -23 -6 -14 -73 18 -137 17 -34 70 -131 117 -214 l86 -153 45 0 c43 1 61 11 256 146 116 80 217 149 225 154 11 6 48 -31 150 -153 190 -225 490 -601 487 -609 -2 -5 -478 -400 -564 -468 -18 -14 -23 -28 -23 -61 0 -37 14 -69 90 -199 49 -85 98 -160 107 -166 10 -7 126 -37 258 -69 132 -31 330 -79 439 -106 109 -27 220 -49 245 -49 45 0 48 2 149 103 94 94 102 105 102 141 0 39 -67 161 -483 886 -71 124 -203 356 -294 515 -91 160 -231 405 -311 545 -80 140 -177 308 -216 373 -69 116 -70 117 -107 117 -37 0 -60 -14 -79 -50 -11 -21 -3 -22 -258 56 -153 47 -238 57 -249 29z"></path><path id="pqJOdMETs" d="M3400 4233 c-19 -2 -156 -15 -303 -29 -147 -14 -275 -28 -284 -31 -36 -14 8 -218 78 -356 20 -40 29 -72 29 -107 0 -43 7 -61 53 -132 30 -46 154 -258 276 -473 123 -214 228 -395 234 -401 20 -19 427 -117 505 -122 l72 -4 0 34 c-1 36 -34 80 -392 506 l-177 210 37 34 c20 18 103 83 184 143 147 110 148 110 148 150 0 40 -55 149 -240 473 l-64 112 -61 -2 c-33 0 -76 -3 -95 -5z"></path><path id="pNAWfwyIG" d="M6806 3677 c-29 -38 -86 -257 -86 -331 l0 -46 48 0 c46 0 49 2 140 92 85 85 92 94 92 131 0 28 -12 62 -41 113 l-40 74 -44 0 c-38 0 -47 -5 -69 -33z"></path><path id="p10SBf0EZH" d="M2766 3563 c-10 -37 -30 -683 -20 -692 19 -19 414 -111 474 -111 l60 0 0 30 c0 21 -67 147 -216 410 l-217 380 -38 0 c-27 0 -39 -5 -43 -17z"></path><path id="pCK5Y75bP" d="M5607 3373 c-4 -3 -7 -25 -7 -48 0 -33 16 -70 84 -190 118 -212 306 -538 318 -552 6 -7 32 -13 58 -13 l47 0 214 221 c183 189 214 226 217 255 3 29 -1 36 -25 46 -15 6 -75 32 -133 58 -58 26 -148 61 -200 78 -52 17 -179 58 -282 91 -176 57 -271 75 -291 54z"></path><path id="p2b4ckP9t" d="M4310 2629 c-47 -37 -51 -44 -48 -76 2 -29 8 -38 28 -43 77 -22 126 -30 170 -30 49 0 50 0 50 32 0 17 -16 59 -35 95 -35 60 -38 63 -75 63 -30 0 -50 -9 -90 -41z"></path></g></g><g id="l31a9cuFTeDrGArfWdlcT3T" fill="rgb(1,1,1)" style="transform: none;"><g><path id="p19dWXvuIU" d="M4705 10129 c-421 -32 -864 -120 -1254 -249 -612 -202 -1240 -563 -1721 -988 -877 -776 -1454 -1814 -1649 -2968 -52 -305 -65 -472 -65 -824 -1 -258 3 -372 17 -495 106 -950 425 -1785 965 -2524 321 -440 713 -826 1162 -1146 656 -466 1455 -779 2250 -879 326 -42 797 -53 1080 -27 972 89 1824 411 2578 975 1130 843 1857 2110 2022 3521 31 272 40 689 20 956 -58 747 -309 1542 -692 2184 -235 393 -439 656 -768 986 -433 434 -904 764 -1465 1026 -481 225 -1053 381 -1600 438 -188 20 -700 28 -880 14z m789 -144 c340 -31 559 -71 891 -166 247 -70 441 -139 640 -227 891 -392 1632 -1017 2152 -1814 437 -671 700 -1418 779 -2218 35 -348 20 -853 -37 -1210 -184 -1173 -762 -2223 -1650 -2998 -500 -437 -1094 -773 -1714 -969 -819 -259 -1672 -299 -2520 -118 -584 126 -1155 364 -1650 690 -453 299 -882 701 -1213 1137 -657 866 -1012 1917 -1013 3000 -1 135 2 275 5 310 22 241 30 310 51 443 204 1280 893 2426 1910 3180 264 196 475 325 770 470 507 250 1024 402 1595 470 311 36 723 45 1004 20z"></path><path id="pm9gYpP7v" d="M4745 9200 c-472 -40 -935 -153 -1335 -327 -840 -365 -1521 -983 -1971 -1788 -252 -453 -415 -961 -485 -1520 -21 -172 -30 -632 -15 -806 89 -1036 517 -1945 1257 -2669 659 -645 1483 -1038 2406 -1146 212 -25 702 -25 903 -1 963 118 1784 517 2464 1198 558 559 942 1262 1116 2040 308 1379 -84 2769 -1069 3787 -161 167 -452 406 -655 539 -247 162 -285 183 -506 289 -180 86 -494 211 -585 233 -19 5 -105 27 -190 49 -177 46 -387 85 -575 108 -151 18 -611 27 -760 14z m255 -741 c9 -15 7 -52 -5 -146 -24 -192 -22 -305 8 -392 33 -94 80 -172 143 -238 48 -51 84 -66 99 -43 3 5 10 56 14 113 10 122 34 181 84 202 41 17 68 6 89 -36 24 -45 23 -125 -2 -269 -27 -155 -36 -328 -21 -414 25 -141 75 -194 248 -260 79 -29 288 -78 343 -80 50 -1 61 3 127 47 114 76 166 147 211 287 55 170 54 281 -4 525 -30 127 -38 181 -38 262 -1 97 0 103 29 144 39 55 85 86 140 94 122 19 144 -81 85 -385 -55 -283 -53 -505 6 -880 13 -85 31 -227 39 -315 9 -88 20 -185 26 -215 40 -203 210 -312 365 -235 67 33 190 161 241 250 54 93 98 211 120 320 15 76 18 141 18 405 0 339 -4 383 -56 569 -47 169 -38 239 40 315 51 50 87 52 117 8 32 -47 36 -111 27 -482 -9 -362 -1 -714 17 -775 7 -22 24 -52 38 -67 22 -24 34 -28 78 -28 74 0 79 9 80 149 1 132 13 171 70 221 37 32 54 36 84 20 32 -17 42 -79 34 -225 -8 -165 -3 -183 67 -213 27 -12 55 -22 62 -22 23 0 87 -50 104 -83 14 -26 18 -76 24 -287 8 -274 15 -317 65 -410 33 -61 65 -88 149 -125 110 -49 147 -70 162 -92 18 -27 29 -231 18 -366 -6 -84 -9 -98 -23 -95 -17 3 -165 212 -247 349 -25 42 -70 139 -101 215 -64 160 -101 231 -174 329 -29 39 -75 104 -103 145 -73 109 -84 120 -128 120 -68 0 -225 -94 -437 -262 -109 -86 -266 -187 -335 -215 -112 -45 -224 -17 -321 80 -55 55 -109 149 -140 242 -8 28 -34 131 -56 229 -55 246 -89 316 -152 316 -31 0 -103 -33 -215 -98 -186 -108 -237 -121 -316 -81 -64 33 -176 111 -235 164 -90 81 -332 415 -437 605 -98 177 -142 245 -220 337 -42 48 -87 112 -102 142 l-27 54 27 76 c21 62 27 99 30 201 5 147 25 213 86 279 42 46 65 51 81 20z m-1211 -234 c16 -8 36 -30 45 -49 39 -82 31 -179 -35 -471 -48 -208 -55 -308 -25 -367 16 -33 23 -38 52 -38 18 0 48 9 66 20 48 29 86 27 94 -6 28 -112 -92 -789 -187 -1062 -42 -119 -121 -283 -148 -306 -21 -19 -24 -19 -96 -3 -40 9 -182 57 -315 107 -340 127 -387 140 -526 140 -63 0 -114 4 -114 9 0 5 16 40 35 78 88 174 95 308 34 631 -28 148 -25 248 9 347 31 91 109 217 132 213 8 -2 23 -26 34 -53 31 -81 33 -257 6 -476 -28 -223 -21 -313 32 -419 54 -106 135 -146 318 -157 141 -8 198 8 275 79 45 40 66 72 105 152 27 56 53 125 59 154 25 123 1 583 -49 955 -33 239 -38 379 -16 431 36 85 141 130 215 91z m783 -956 c143 -176 194 -239 627 -781 210 -263 386 -478 392 -478 6 0 103 71 217 158 229 174 280 212 286 212 2 0 7 -276 11 -612 4 -337 8 -615 10 -616 2 -2 337 163 744 367 407 204 744 371 749 371 5 0 41 -60 80 -132 133 -251 752 -1430 752 -1434 0 -15 -2651 -2644 -2666 -2644 -16 0 -1080 268 -1869 470 -236 60 -691 177 -1010 258 l-580 148 1 100 c1 100 14 405 59 1404 14 299 25 554 25 567 0 28 -23 25 460 63 392 31 496 47 571 86 24 12 29 20 23 36 -6 20 -64 148 -321 716 -63 140 -113 255 -111 257 2 1 71 -27 153 -62 371 -160 828 -343 854 -343 22 0 30 6 34 23 3 12 49 258 102 547 116 636 264 1428 272 1454 6 23 1 28 135 -135z m-2322 -779 c18 -18 20 -33 20 -142 0 -68 -5 -157 -10 -198 -20 -152 -29 -335 -20 -404 7 -57 14 -74 41 -102 18 -19 37 -34 42 -34 18 0 98 -72 108 -96 6 -19 2 -40 -18 -89 l-27 -65 21 -28 c13 -18 36 -31 69 -39 27 -7 57 -17 66 -23 10 -5 24 -10 31 -10 7 0 26 -14 42 -30 37 -38 26 -51 -47 -57 -309 -23 -363 -37 -426 -108 -49 -55 -66 -116 -87 -295 -15 -130 -81 -858 -106 -1162 -7 -81 -15 -152 -20 -159 -5 -8 -34 8 -96 56 -206 160 -291 276 -301 406 -4 62 -3 68 24 98 23 25 44 36 93 47 136 32 149 58 155 305 7 318 48 492 212 906 120 301 123 334 54 663 -54 262 -51 392 13 487 56 84 126 114 167 73z"></path><path id="pfvtPOQIu" d="M4576 6840 c-3 -8 -44 -224 -91 -480 -110 -603 -176 -958 -214 -1153 -17 -86 -31 -159 -31 -163 0 -20 -211 56 -615 219 -60 25 -111 42 -113 38 -1 -5 29 -80 69 -167 39 -87 97 -217 129 -289 32 -71 77 -170 99 -218 23 -49 41 -92 41 -97 0 -4 -42 -10 -92 -14 -242 -17 -1094 -87 -1104 -91 -15 -5 -22 -59 -34 -290 -9 -175 -46 -1092 -52 -1299 l-3 -89 185 -47 c102 -26 401 -102 665 -170 264 -67 674 -172 910 -232 237 -60 626 -159 865 -220 239 -61 455 -115 479 -120 l44 -10 736 734 c405 404 951 946 1214 1206 262 259 477 474 477 477 0 3 -110 214 -243 468 -134 254 -275 522 -313 594 -38 73 -72 133 -75 133 -3 0 -355 -173 -782 -385 -427 -212 -785 -385 -797 -385 -11 0 -22 6 -25 13 -2 6 -6 230 -10 497 -4 266 -9 488 -11 492 -3 5 -24 8 -47 8 -32 0 -70 -15 -156 -60 -63 -33 -123 -60 -132 -60 -11 0 -104 107 -241 276 -123 152 -322 399 -443 549 -121 149 -234 289 -252 311 -23 29 -33 35 -37 24z m319 -757 c66 -89 160 -219 210 -290 174 -247 356 -483 375 -483 10 0 57 20 104 45 48 25 91 43 96 40 6 -4 10 -182 10 -481 0 -388 2 -476 13 -480 8 -3 92 32 188 77 290 135 421 191 429 182 4 -4 62 -105 130 -223 68 -118 134 -233 147 -256 25 -45 29 -75 12 -123 -13 -38 -39 -40 -125 -10 -97 33 -723 236 -800 258 -91 27 -112 27 -123 -1 -5 -13 -30 -117 -55 -233 -65 -295 -85 -365 -105 -365 -9 0 -32 28 -55 68 -178 310 -492 860 -629 1103 l-167 296 74 379 c41 208 87 443 101 522 18 91 32 142 39 140 6 -2 65 -76 131 -165z m2515 -1071 c415 -647 394 -611 374 -634 -44 -48 -667 -633 -677 -636 -7 -1 -21 12 -31 30 -43 74 -330 577 -441 773 -66 116 -120 220 -120 233 0 25 -8 21 420 217 88 40 203 94 255 118 52 25 102 46 110 46 9 1 55 -61 110 -147z m-3258 -176 c294 -90 298 -91 324 -46 16 26 42 46 49 38 2 -2 25 -39 52 -83 46 -75 127 -215 546 -950 91 -159 223 -391 294 -515 262 -457 483 -848 483 -857 0 -4 -47 -55 -105 -113 l-104 -104 -73 17 c-162 36 -824 198 -843 206 -19 8 -192 291 -202 332 -4 13 3 26 19 39 131 103 566 465 577 480 12 18 9 26 -30 77 -129 172 -616 763 -629 763 -7 0 -412 -275 -459 -311 -13 -11 -31 -19 -41 -19 -26 0 -261 424 -243 440 4 4 96 15 203 24 211 19 230 22 230 38 0 14 -93 230 -163 379 -84 178 -91 209 -47 209 10 0 83 -20 162 -44z m1777 -660 c61 -25 159 -70 218 -100 108 -54 356 -151 466 -182 74 -20 92 -45 83 -115 -8 -61 -89 -406 -117 -502 l-20 -68 -37 7 c-50 8 -173 43 -372 104 -91 28 -232 70 -315 95 -82 24 -186 57 -230 72 l-80 28 3 40 c7 82 140 571 174 639 20 38 20 39 68 33 27 -3 98 -26 159 -51z m-2339 -78 c112 -197 240 -433 240 -443 0 -5 -73 -64 -161 -130 -88 -66 -176 -137 -196 -158 -29 -33 -32 -41 -21 -55 7 -9 92 -111 188 -226 96 -115 223 -268 282 -340 106 -130 107 -131 78 -134 -16 -2 -60 6 -97 17 -37 11 -138 36 -223 56 -85 21 -160 42 -167 49 -6 6 -111 187 -234 401 -122 215 -247 428 -277 474 -48 76 -54 89 -49 124 4 32 -1 53 -28 106 -35 70 -82 202 -91 262 -5 27 -2 38 10 42 8 3 136 17 283 31 147 14 284 27 303 29 101 11 90 18 160 -105z m943 -200 c121 -129 467 -549 467 -567 0 -36 -166 -192 -480 -451 -216 -178 -260 -210 -284 -210 -24 0 -66 44 -340 350 -106 118 -214 239 -240 267 -55 61 -55 73 7 124 162 135 506 392 617 460 61 38 157 78 184 79 11 0 42 -23 69 -52z m2397 -293 c23 -41 40 -80 38 -86 -8 -23 -184 -189 -200 -189 -24 0 -23 10 12 157 30 126 63 193 95 193 7 0 32 -34 55 -75z m-3898 -432 c211 -370 215 -378 189 -381 -29 -3 -430 94 -445 108 -8 8 9 580 20 628 2 12 8 22 13 22 4 0 105 -170 223 -377z m2836 116 c103 -33 230 -74 282 -91 52 -17 142 -52 200 -78 58 -26 118 -52 134 -59 l29 -12 -114 -117 c-63 -64 -161 -166 -219 -225 -75 -77 -110 -107 -125 -105 -21 3 -24 7 -217 343 -216 375 -229 405 -178 405 11 0 105 -27 208 -61z m-1420 -718 l36 -64 -40 6 c-79 13 -138 27 -147 36 -10 10 90 94 105 89 6 -2 26 -32 46 -67z"></path><path id="p8yiaIoV7" d="M5833 4003 c-17 -12 -32 -55 -59 -177 -29 -129 -33 -210 -10 -234 18 -20 -2 -13 359 -131 152 -50 288 -91 301 -91 28 0 38 23 86 197 38 142 38 171 3 205 -34 32 -63 46 -178 91 -175 67 -216 60 -283 -47 -23 -36 -48 -66 -56 -66 -17 0 -26 44 -26 131 0 56 -4 72 -23 94 -23 27 -91 44 -114 28z"></path><path id="p1FwDGbf7X" d="M4338 3707 c-60 -46 -61 -69 -2 -169 40 -69 49 -92 52 -143 6 -84 -10 -100 -87 -90 -74 9 -85 16 -156 90 -68 72 -107 86 -178 65 -45 -13 -110 -73 -120 -109 -7 -30 38 -83 240 -283 174 -172 188 -182 236 -156 42 22 429 332 445 356 23 36 18 107 -12 152 -39 60 -254 288 -286 305 -46 24 -84 19 -132 -18z"></path></g></g></svg>
