<svg class="img-fluid" id="outputsvg" xmlns="http://www.w3.org/2000/svg" style="transform: none; transform-origin: 50% 50%; cursor: move;" width="1024" height="1024" viewBox="0 0 10240 10240"><g id="lSR7ATvHXjcI8EnMsaDnkX" fill="rgb(207,175,218)" style="transform: none;"><g><path id="pjmu3oyQK" d="M6780 6484 c-87 -36 -126 -62 -220 -144 -121 -108 -240 -263 -293 -384 -45 -103 -197 -357 -273 -456 -79 -103 -278 -280 -414 -370 -49 -32 -132 -80 -184 -106 -90 -46 -96 -51 -96 -80 0 -17 6 -36 13 -42 16 -14 193 -32 312 -32 113 0 295 30 407 67 99 33 252 108 444 221 l141 82 12 71 c23 142 106 309 215 434 92 105 252 300 299 363 71 97 88 140 85 214 l-3 63 -65 42 c-107 70 -127 77 -225 80 -79 3 -98 0 -155 -23z"></path><path id="pBZrhR0p1" d="M3816 6298 c-3 -51 -10 -167 -16 -258 -14 -240 -59 -381 -155 -488 -79 -88 -138 -91 -228 -11 -44 38 -127 179 -127 215 0 25 -44 38 -140 38 -121 1 -161 -8 -199 -43 -28 -26 -31 -35 -31 -89 0 -55 4 -66 59 -153 58 -92 134 -194 221 -295 58 -68 315 -294 444 -391 127 -96 392 -346 449 -424 41 -56 43 -58 90 -58 26 -1 47 3 47 9 0 20 153 210 246 306 208 212 533 397 824 469 58 14 115 30 128 35 54 23 15 122 -152 387 -100 159 -151 268 -177 378 -12 50 -23 96 -25 103 -4 15 -72 16 -145 1 -82 -16 -263 -13 -354 6 -192 40 -331 106 -540 255 -116 84 -145 100 -176 100 l-37 0 -6 -92z m451 -378 c107 -50 203 -157 203 -225 0 -37 -23 -77 -65 -114 -29 -25 -44 -31 -83 -31 -133 0 -322 93 -367 181 -41 79 98 214 225 218 14 1 53 -12 87 -29z"></path><path id="pMUs1dz6D" d="M7705 5395 c-33 -7 -168 -49 -300 -94 -305 -103 -406 -125 -545 -122 -58 2 -141 4 -185 5 l-80 1 -187 -113 c-232 -139 -291 -176 -304 -193 -6 -8 -16 -41 -22 -74 -7 -38 -37 -111 -82 -200 -68 -135 -71 -143 -70 -210 0 -76 12 -108 74 -209 20 -33 36 -68 36 -78 0 -29 -66 -94 -119 -117 -27 -11 -87 -30 -133 -40 -45 -11 -112 -33 -148 -49 -91 -41 -306 -118 -414 -147 -116 -31 -174 -43 -316 -61 -215 -27 -346 -17 -642 50 -84 19 -193 37 -243 40 -182 13 -702 -31 -870 -74 -284 -73 -516 -267 -650 -544 -95 -198 -119 -315 -113 -565 3 -145 6 -170 23 -201 30 -49 75 -72 156 -78 90 -6 139 8 252 76 279 165 357 200 727 321 637 207 977 241 1390 136 305 -77 567 -198 868 -400 234 -157 235 -158 297 -163 l50 -3 194 150 c106 83 254 195 327 248 l134 96 0 42 c0 36 -7 50 -53 103 -30 34 -105 103 -168 154 -263 213 -341 325 -299 433 20 51 59 94 110 120 27 14 51 25 54 25 3 0 6 -15 8 -32 4 -40 8 -42 217 -113 323 -110 563 -169 732 -181 l94 -6 96 113 c119 142 184 230 217 294 35 71 82 213 82 251 0 30 -4 34 -42 45 -72 19 -230 48 -352 64 -139 18 -658 21 -719 4 -42 -11 -52 -28 -62 -99 -5 -39 -61 -158 -70 -148 -2 1 1 23 5 48 5 25 9 87 10 138 0 117 19 160 104 239 86 80 186 130 431 213 116 40 309 112 430 160 121 48 287 111 369 140 214 74 321 132 351 190 21 40 19 143 -2 188 -46 96 -209 208 -337 231 -80 15 -237 13 -311 -4z"></path><path id="pbMS4CX4M" d="M4860 4704 c-45 -43 -108 -112 -140 -154 -85 -112 -248 -360 -323 -491 -72 -124 -83 -170 -47 -189 44 -23 291 -42 490 -37 216 5 353 26 520 79 123 39 299 126 374 184 l59 46 -8 92 c-15 163 -11 200 29 279 19 40 56 99 81 132 34 45 45 68 45 95 l0 36 -498 2 -499 3 -83 -77z"></path><path id="pM825WwIz" d="M7996 3888 c-47 -122 -200 -373 -295 -482 -31 -36 -41 -56 -41 -82 0 -44 6 -46 195 -80 120 -22 183 -27 312 -28 l161 -1 43 30 c24 17 54 46 67 65 22 32 23 43 20 140 -3 97 -6 111 -41 182 -69 142 -274 328 -362 328 -29 0 -33 -4 -59 -72z"></path><path id="p4iRJ2NOF" d="M6826 2705 c-31 -19 -109 -74 -173 -122 -63 -48 -171 -126 -239 -173 -175 -121 -194 -140 -194 -187 0 -51 18 -67 244 -227 184 -130 381 -254 541 -342 l90 -49 120 0 c108 0 125 3 175 26 69 32 129 84 146 126 20 47 18 239 -2 300 -21 63 -92 182 -173 291 -80 107 -276 306 -351 355 -71 48 -107 48 -184 2z"></path></g></g><g id="l4SL5pHPfzxe8S4Hmr27LsB" fill="rgb(175,219,161)" style="transform: none;"><g><path id="pHYLHDPFQ" d="M4306 7925 c-52 -18 -106 -64 -133 -111 -30 -51 -33 -163 -5 -186 35 -31 68 -41 152 -46 l86 -5 85 65 c46 35 110 81 142 101 57 37 58 38 55 78 l-3 41 -90 24 c-49 13 -115 30 -145 39 -66 18 -93 18 -144 0z"></path><path id="pkMSSSt5C" d="M6591 7492 c-20 -21 -73 -92 -118 -158 -81 -118 -153 -203 -190 -222 -14 -8 -37 -2 -98 23 -44 19 -96 34 -115 34 -49 1 -109 -29 -149 -74 -31 -35 -33 -42 -29 -91 8 -93 85 -177 191 -209 74 -22 194 -19 261 5 73 28 168 91 226 150 54 55 121 180 141 260 14 59 18 247 6 293 -7 24 -12 27 -49 27 -35 0 -47 -6 -77 -38z"></path><path id="ppse4nUR8" d="M3703 7301 c-67 -43 -133 -169 -133 -256 l0 -45 103 0 c99 0 106 1 151 31 25 17 76 65 112 106 58 67 65 79 62 111 -3 33 -7 38 -43 50 -22 8 -80 16 -130 18 -79 5 -94 3 -122 -15z"></path><path id="p17pihsoLC" d="M2264 6903 c-11 -104 7 -228 45 -309 43 -91 93 -156 223 -290 l108 -111 83 -7 c45 -4 138 -15 207 -25 301 -46 489 -49 578 -10 101 43 182 139 182 215 0 37 -3 43 -30 54 -45 19 -126 114 -204 239 -78 127 -82 129 -192 91 -138 -48 -311 -62 -446 -36 -134 26 -224 71 -390 197 -64 49 -84 59 -117 59 l-39 0 -8 -67z"></path><path id="p1DWjHC2fw" d="M4795 6556 c-22 -34 -36 -130 -29 -206 11 -125 56 -220 131 -277 l36 -28 221 0 c220 0 221 0 276 27 30 15 90 55 133 88 72 57 77 64 77 99 l0 38 -88 6 c-117 7 -170 28 -397 150 -234 127 -235 127 -295 127 -41 0 -52 -4 -65 -24z"></path><path id="p0BZu5nmg" d="M4090 5899 c-47 -19 -80 -60 -80 -100 0 -30 7 -43 37 -69 71 -62 135 -85 256 -88 l107 -4 0 52 c0 77 -44 146 -130 203 -28 19 -148 23 -190 6z"></path><path id="p17kTLvfPh" d="M3500 5824 c-87 -40 -90 -45 -90 -136 0 -107 7 -118 75 -118 l54 0 42 84 c31 64 41 96 43 137 l1 54 -35 3 c-22 1 -56 -8 -90 -24z"></path><path id="pg4raMtre" d="M2035 5766 c-23 -34 -99 -227 -129 -326 -39 -131 -56 -249 -56 -397 0 -160 6 -177 87 -227 90 -57 397 -210 508 -254 243 -96 859 -272 954 -272 51 0 51 0 51 33 0 28 -9 39 -68 84 -90 69 -304 280 -421 417 -51 60 -180 218 -286 350 -202 253 -432 516 -505 579 -54 46 -110 52 -135 13z"></path></g></g><g id="l1Q1X3QHkVQQy6SFikBD8rU" fill="rgb(135,132,238)" style="transform: none;"><g><path id="p1ZYdInZz" d="M4900 10014 c-722 -48 -1280 -192 -1885 -483 -888 -429 -1613 -1097 -2120 -1951 -70 -118 -217 -406 -275 -540 -189 -433 -325 -962 -382 -1485 -17 -160 -17 -736 0 -915 99 -1024 501 -1986 1147 -2750 409 -482 903 -882 1465 -1185 524 -283 1159 -477 1730 -529 470 -44 814 -42 1189 4 1375 171 2614 933 3428 2110 479 692 780 1542 853 2405 15 183 12 637 -5 821 -98 1025 -466 1926 -1108 2714 -383 470 -935 927 -1444 1196 -48 26 -94 51 -102 57 -7 6 -27 17 -45 23 -17 7 -96 42 -176 78 -80 37 -154 71 -165 76 -11 5 -74 29 -140 53 -566 210 -1139 311 -1740 305 -99 -1 -200 -3 -225 -4z m670 -839 c306 -37 569 -95 823 -179 224 -74 324 -114 532 -215 430 -208 759 -444 1110 -796 378 -377 632 -741 847 -1208 345 -754 455 -1574 317 -2367 -151 -867 -572 -1662 -1210 -2285 -691 -674 -1549 -1076 -2492 -1166 -192 -18 -701 -6 -882 20 -471 70 -906 209 -1315 423 -1075 560 -1864 1558 -2149 2719 -134 545 -156 1076 -65 1609 221 1309 1081 2463 2269 3045 469 230 994 373 1515 414 166 13 541 6 700 -14z"></path></g></g><g id="l1PgwAyeSRHzHtpI1c3RX7V" fill="rgb(103,51,110)" style="transform: none;"><g><path id="p1DtTAFb2Q" d="M4770 8563 c-269 -10 -448 -57 -770 -200 -363 -162 -617 -338 -905 -627 -148 -149 -232 -248 -365 -436 -87 -123 -120 -189 -120 -240 0 -37 4 -43 46 -70 116 -73 335 -140 459 -140 l72 0 54 58 c29 31 146 154 259 272 234 244 305 320 478 512 118 130 204 213 247 236 37 19 173 42 252 42 94 0 288 -20 518 -54 433 -63 754 -58 985 16 93 29 110 42 110 83 0 43 -9 50 -221 176 -91 54 -215 132 -275 174 -60 42 -146 102 -192 132 l-83 57 -142 7 c-138 8 -253 8 -407 2z"></path><path id="p9PPIBUzn" d="M6303 8390 c-46 -19 -58 -55 -61 -191 -5 -154 11 -220 65 -280 60 -66 144 -100 311 -124 203 -30 265 -62 296 -152 24 -69 20 -150 -15 -296 -53 -225 -50 -405 8 -493 27 -42 75 -64 140 -64 56 0 64 3 133 53 117 84 134 94 184 111 37 13 56 14 84 6 131 -36 271 -237 334 -478 34 -133 59 -180 136 -263 65 -71 170 -127 253 -136 65 -6 69 -3 97 88 86 281 26 719 -146 1069 -53 107 -165 278 -255 390 -92 113 -318 332 -426 412 -288 214 -492 302 -808 348 -86 12 -299 12 -330 0z"></path><path id="p1EEbWhNi2" d="M4732 7634 c-46 -8 -118 -25 -160 -40 -74 -24 -438 -210 -474 -242 -12 -10 -18 -30 -18 -57 0 -50 -31 -143 -61 -188 -13 -18 -44 -58 -71 -90 -46 -57 -48 -61 -48 -123 0 -66 16 -112 62 -177 24 -33 193 -121 275 -142 74 -19 258 -19 383 0 124 19 246 19 301 0 24 -9 134 -61 245 -116 l200 -101 90 -5 c56 -3 129 1 195 11 58 8 180 22 271 31 229 21 351 62 478 163 99 78 130 114 130 150 l0 34 -57 -6 c-178 -19 -248 -19 -333 3 -185 47 -346 153 -394 259 -17 38 -17 40 3 81 31 60 88 97 179 116 233 49 222 45 222 82 0 26 -5 34 -22 37 -13 3 -72 15 -131 26 -138 26 -212 54 -367 139 -231 127 -263 140 -368 156 -123 19 -417 18 -530 -1z"></path><path id="pTCztGMYB" d="M2088 6383 c-58 -60 -113 -122 -122 -140 -16 -32 -22 -107 -10 -138 22 -55 211 -82 502 -70 l172 7 0 32 c0 29 -19 52 -146 182 -80 82 -160 168 -177 191 -28 37 -37 42 -73 43 -38 0 -46 -5 -146 -107z"></path><path id="p11PYYWPHJ" d="M5592 6084 l-123 -66 3 -36 c3 -31 8 -37 43 -49 22 -8 74 -17 115 -20 64 -5 78 -3 96 13 27 24 64 115 71 177 l6 47 -44 0 c-35 -1 -70 -15 -167 -66z"></path><path id="ppr9320dx" d="M4110 2710 c-244 -25 -469 -102 -659 -224 -36 -24 -103 -67 -149 -96 -87 -56 -151 -119 -183 -182 -21 -41 -26 -136 -9 -169 19 -35 83 -59 157 -59 83 0 131 21 258 112 193 137 359 223 486 252 106 24 296 39 419 33 185 -9 329 -41 630 -138 245 -79 685 -189 758 -189 l62 0 0 33 c0 27 -11 43 -62 93 -132 128 -247 206 -468 318 -154 78 -270 124 -448 178 l-137 41 -285 3 c-157 1 -323 -2 -370 -6z"></path></g></g><g id="l1cm8G28b3mcHaNdBPrq24M" fill="rgb(7,7,7)" style="transform: none;"><g><path id="pZTO3NnSu" d="M4825 10134 c-381 -38 -532 -60 -781 -118 -770 -179 -1442 -507 -2069 -1012 -601 -484 -1088 -1107 -1413 -1809 -336 -726 -507 -1582 -463 -2320 29 -485 94 -850 232 -1305 70 -230 162 -458 289 -715 401 -812 966 -1459 1727 -1978 445 -304 951 -537 1480 -683 441 -121 818 -169 1318 -169 362 0 503 12 825 66 899 152 1732 543 2425 1137 140 121 443 424 565 567 660 774 1051 1652 1189 2675 42 304 49 796 18 1085 -62 567 -188 1050 -397 1530 -439 1005 -1181 1840 -2120 2383 -599 346 -1253 564 -1954 648 -124 15 -765 28 -871 18z m610 -154 c486 -30 941 -126 1400 -297 66 -24 129 -48 140 -53 11 -5 85 -39 165 -76 80 -36 159 -71 176 -78 18 -6 38 -17 45 -23 8 -6 54 -31 102 -57 426 -225 922 -613 1261 -986 685 -754 1109 -1642 1256 -2630 63 -426 68 -885 14 -1290 -128 -969 -528 -1867 -1158 -2600 -891 -1035 -2106 -1637 -3458 -1711 -295 -16 -759 13 -1073 66 -921 157 -1807 606 -2505 1269 -881 838 -1414 1935 -1532 3156 -17 176 -17 697 0 855 56 522 193 1052 382 1485 58 134 205 422 275 540 507 854 1232 1522 2120 1951 605 291 1163 435 1885 483 110 7 358 5 505 -4z"></path><path id="pEA6q8lpx" d="M4840 9219 c-1246 -97 -2365 -737 -3086 -1766 -351 -500 -598 -1098 -698 -1693 -75 -443 -74 -925 4 -1385 152 -897 628 -1757 1316 -2380 631 -570 1374 -922 2209 -1046 180 -27 745 -38 943 -20 830 79 1595 401 2252 946 131 109 363 338 477 470 647 748 1001 1653 1030 2625 18 630 -110 1258 -375 1837 -215 467 -469 831 -847 1208 -351 352 -680 588 -1110 796 -441 213 -847 331 -1355 394 -158 20 -586 28 -760 14z m307 -688 l142 -7 83 -57 c46 -30 132 -90 192 -132 60 -42 184 -120 275 -174 201 -120 226 -138 211 -156 -6 -8 -46 -25 -88 -39 -235 -77 -507 -83 -937 -20 -250 36 -426 54 -548 54 -104 0 -240 -20 -282 -42 -43 -23 -129 -106 -247 -236 -173 -192 -244 -268 -478 -512 -113 -118 -230 -241 -260 -274 l-55 -58 -65 5 c-122 11 -359 96 -430 154 l-24 21 19 43 c56 126 277 411 465 600 291 293 544 469 910 632 174 77 283 118 408 151 173 46 421 63 709 47z m1456 -171 c316 -46 520 -134 808 -348 108 -80 334 -299 426 -412 90 -112 202 -283 255 -390 93 -190 167 -456 183 -660 11 -138 -29 -386 -69 -427 -29 -31 -183 44 -260 127 -75 82 -100 130 -134 262 -36 135 -85 241 -157 336 -98 129 -203 175 -316 138 -54 -18 -70 -28 -189 -113 -82 -59 -113 -65 -165 -33 -42 26 -60 53 -81 126 -22 77 -15 177 25 351 52 221 40 367 -35 432 -41 36 -102 55 -246 76 -167 24 -251 58 -311 124 -52 57 -70 129 -65 251 4 104 19 143 61 160 31 12 184 12 270 0z m-2141 -476 c4 -3 50 -16 100 -29 51 -12 94 -28 96 -34 2 -5 -23 -27 -55 -48 -32 -20 -96 -66 -142 -101 l-85 -64 -58 6 c-95 10 -138 40 -138 95 0 70 73 157 155 185 35 12 99 7 127 -10z m770 -279 c105 -16 132 -27 378 -161 152 -82 241 -115 380 -139 162 -28 165 -26 -92 -80 -123 -26 -198 -98 -198 -190 0 -125 180 -268 410 -326 72 -18 103 -21 215 -16 71 3 141 9 155 13 25 7 25 7 -5 -25 -48 -52 -145 -126 -215 -164 -99 -54 -185 -76 -363 -92 -88 -8 -212 -22 -277 -31 -175 -25 -198 -20 -419 92 -253 129 -292 142 -411 138 -52 -2 -141 -10 -197 -19 -130 -19 -252 -19 -326 0 -82 21 -251 109 -275 142 -37 53 -62 112 -62 147 0 26 11 48 48 93 27 32 58 72 71 90 30 45 61 138 61 188 0 27 6 47 18 57 36 32 400 218 474 242 42 15 114 32 160 40 112 19 350 19 470 1z m1454 -127 c12 -38 9 -179 -5 -238 -19 -80 -87 -204 -141 -260 -94 -96 -237 -170 -329 -170 -130 0 -261 87 -286 191 -8 34 42 95 102 121 l42 18 85 -35 c47 -19 98 -35 113 -35 57 0 121 65 247 250 73 108 135 180 154 180 6 0 14 -10 18 -22z m-2810 -199 c106 -18 107 -23 31 -111 -37 -42 -88 -90 -113 -107 -42 -28 -55 -31 -121 -31 -84 0 -84 0 -53 84 38 100 110 176 169 176 13 0 53 -5 87 -11z m-1478 -398 c105 -79 202 -139 265 -163 168 -64 442 -63 631 2 33 11 60 20 61 20 2 0 34 -50 71 -111 78 -125 159 -220 204 -239 38 -16 38 -25 -1 -83 -55 -84 -135 -134 -236 -148 -68 -10 -295 8 -465 36 -48 7 -125 17 -172 21 l-85 7 -109 111 c-178 183 -244 288 -263 423 -11 73 -3 183 12 183 5 0 44 -26 87 -59z m2509 -343 c15 -7 114 -58 218 -115 227 -122 280 -143 397 -150 48 -3 88 -10 88 -14 0 -14 -153 -129 -210 -157 -54 -27 -58 -27 -246 -27 l-191 0 -36 28 c-81 61 -127 167 -128 288 -1 135 32 180 108 147z m2123 -81 c19 -9 64 -36 100 -60 56 -36 65 -47 68 -75 7 -71 -78 -192 -389 -554 -107 -124 -178 -268 -208 -417 l-17 -84 -196 -112 c-220 -126 -331 -176 -464 -210 -156 -40 -274 -50 -430 -37 -75 6 -143 17 -151 23 -11 10 7 23 96 70 60 32 144 81 187 109 129 88 324 263 398 360 76 99 228 353 273 456 34 76 65 127 129 207 179 225 367 352 509 344 33 -2 76 -11 95 -20z m-4753 -40 c17 -23 97 -109 177 -191 80 -82 146 -150 146 -151 0 -9 -328 -14 -417 -6 -172 15 -225 53 -192 134 14 34 225 257 243 257 6 0 25 -20 43 -43z m1728 -157 c196 -140 309 -197 477 -240 158 -41 334 -46 520 -14 28 5 39 3 41 -7 2 -8 14 -54 26 -104 26 -110 77 -219 177 -378 109 -173 179 -306 167 -318 -5 -5 -69 -25 -141 -44 -306 -79 -617 -256 -826 -469 -93 -96 -246 -286 -246 -306 0 -28 -40 -2 -77 49 -57 78 -322 328 -449 424 -129 97 -386 323 -444 391 -148 173 -280 370 -280 418 0 38 48 84 98 95 52 11 165 7 190 -6 12 -7 22 -17 22 -24 0 -26 70 -157 105 -195 66 -74 174 -104 244 -67 42 21 108 100 141 169 50 106 70 197 80 376 6 91 13 207 16 258 3 50 9 92 13 92 4 0 70 -45 146 -100z m1755 -167 c-31 -106 -63 -153 -104 -153 -29 0 -139 29 -149 39 -8 8 226 140 250 141 8 0 9 -8 3 -27z m-2172 -321 c-5 -20 -26 -67 -45 -104 -28 -55 -40 -68 -59 -68 -30 0 -44 27 -44 88 0 34 5 54 18 65 23 21 124 67 133 61 4 -2 3 -21 -3 -42z m-1448 -49 c73 -63 303 -326 505 -579 106 -132 235 -290 286 -350 118 -137 331 -349 421 -417 52 -39 64 -53 49 -55 -48 -8 -716 187 -926 270 -111 44 -418 197 -508 254 -78 48 -87 70 -87 197 0 176 37 339 126 561 44 111 68 156 82 156 5 0 28 -17 52 -37z m5846 -354 c169 -30 354 -186 354 -299 0 -93 -91 -155 -366 -250 -82 -29 -248 -92 -369 -140 -121 -48 -314 -120 -430 -160 -245 -83 -345 -133 -431 -213 -87 -81 -100 -114 -106 -267 -9 -214 -39 -261 -226 -354 -105 -52 -142 -93 -162 -176 -32 -133 42 -243 309 -458 110 -89 221 -203 221 -227 0 -7 -60 -55 -134 -108 -73 -53 -221 -164 -327 -247 -205 -159 -205 -159 -266 -127 -12 7 -109 70 -215 142 -250 168 -413 251 -672 341 -424 148 -792 155 -1301 28 -122 -31 -556 -172 -680 -221 -92 -36 -228 -108 -392 -205 -51 -31 -112 -61 -137 -68 -85 -24 -178 8 -213 72 -13 25 -18 65 -21 169 -7 214 21 343 113 535 134 277 366 471 650 544 176 45 683 87 850 70 50 -5 149 -23 222 -40 188 -43 310 -60 448 -60 115 0 287 17 405 40 141 27 413 115 560 182 36 16 103 38 148 49 115 27 176 55 217 100 50 55 49 112 -1 195 -97 158 -97 175 -4 359 45 89 75 162 82 200 6 33 16 66 22 74 13 17 73 55 304 193 176 106 190 113 237 111 255 -9 322 -6 420 15 55 12 208 59 340 103 132 45 267 87 300 94 75 17 173 18 251 4z m-2076 -629 c0 -3 -20 -32 -45 -65 -25 -33 -62 -93 -82 -134 -34 -67 -37 -80 -38 -160 0 -47 4 -114 9 -147 l8 -62 -58 -46 c-33 -25 -108 -70 -169 -100 -213 -105 -426 -155 -695 -163 -227 -7 -494 24 -477 55 118 209 275 454 387 602 32 42 95 111 141 154 l83 78 468 -3 c257 -2 468 -6 468 -9z m1698 -694 c136 -24 250 -50 258 -59 6 -6 -51 -167 -78 -222 -51 -99 -298 -405 -327 -405 -44 1 -174 22 -278 46 -204 46 -652 190 -683 220 -13 14 -12 18 15 37 63 45 183 170 209 216 14 27 29 71 32 97 9 66 19 82 57 93 19 6 156 9 342 7 280 -4 324 -6 453 -30z m643 -266 c122 -122 170 -211 177 -330 3 -66 1 -79 -20 -110 -13 -19 -43 -48 -67 -65 -42 -30 -44 -30 -169 -29 -132 0 -436 45 -469 69 -13 10 -9 18 27 60 95 110 249 360 296 482 l27 72 51 -26 c28 -15 94 -70 147 -123z m-1271 -1107 c75 -49 271 -248 351 -355 81 -109 152 -228 173 -291 20 -59 21 -195 2 -240 -17 -42 -77 -94 -146 -126 -46 -22 -69 -26 -145 -26 -89 0 -91 1 -180 49 -160 88 -357 212 -541 342 -175 124 -244 179 -244 197 0 15 66 68 194 157 68 47 176 125 239 173 105 79 222 157 237 157 3 0 30 -16 60 -37z m-2108 -31 c229 -69 446 -165 643 -283 83 -50 232 -168 295 -233 l44 -46 -34 0 c-47 0 -542 128 -730 189 -206 66 -285 88 -410 112 -204 40 -537 34 -715 -11 -128 -33 -281 -114 -470 -248 -109 -78 -178 -112 -228 -112 -44 0 -112 32 -127 59 -39 73 41 195 192 291 46 29 113 72 149 96 190 122 415 198 659 224 47 5 200 7 340 6 l255 -3 137 -41z"></path><path id="p1HNVXfQkf" d="M4090 5968 c-122 -33 -212 -176 -167 -265 40 -76 179 -154 319 -179 45 -8 100 -12 121 -8 44 7 100 52 124 98 23 44 21 123 -4 171 -30 57 -112 131 -186 165 -66 32 -136 38 -207 18z m160 -105 c71 -47 130 -126 130 -174 0 -20 -4 -21 -78 -18 -62 3 -90 10 -142 36 -36 18 -78 46 -94 62 l-30 31 25 26 c48 52 140 71 189 37z"></path></g></g></svg>
