<svg class="img-fluid" id="outputsvg" xmlns="http://www.w3.org/2000/svg" style="transform: none; transform-origin: 50% 50%; cursor: move;" width="1024" height="1024" viewBox="0 0 10240 10240"><g id="l5s43lC06eLBhfJSsdtZbFA" fill="rgb(254,253,254)" style="transform: none;"><g><path id="pBsby1cij" d="M5429 6821 c-115 -65 -237 -149 -252 -173 -9 -13 -45 -131 -81 -264 -36 -133 -70 -253 -76 -268 -5 -15 -10 -45 -10 -66 0 -39 5 -48 248 -495 145 -266 720 -1277 882 -1550 26 -44 107 -183 180 -310 313 -541 496 -850 645 -1085 54 -85 141 -225 193 -310 52 -85 115 -186 139 -224 23 -38 43 -75 43 -83 0 -8 13 -13 34 -13 26 0 70 22 180 90 154 96 202 142 271 255 54 90 50 122 -32 270 -142 255 -469 781 -815 1310 -161 246 -486 770 -604 975 -143 249 -368 691 -454 894 -115 272 -231 624 -301 911 l-42 175 -41 -1 c-27 -1 -63 -13 -107 -38z"></path></g></g><g id="l4BYEymzzFT1XKk1OsD17MD" fill="rgb(200,199,199)" style="transform: none;"><g><path id="pVdhVuHAT" d="M4170 5971 c-73 -9 -121 -30 -232 -104 -75 -50 -77 -53 -78 -92 0 -39 5 -44 124 -155 220 -202 518 -526 742 -805 391 -487 770 -1059 1544 -2325 142 -232 298 -479 434 -687 l21 -33 168 0 169 0 101 63 c56 35 129 78 162 97 67 37 85 55 85 84 0 16 -3 17 -12 8 -14 -14 -29 -16 -25 -4 1 5 -19 42 -44 83 -25 41 -89 144 -141 229 -52 85 -142 229 -199 320 -58 91 -165 266 -238 390 -183 308 -201 336 -367 570 -165 232 -670 989 -938 1407 -417 647 -521 769 -760 882 -126 60 -349 91 -516 72z"></path></g></g><g id="l5AG1p8QIwQtEwizAYrSmRG" fill="rgb(247,195,44)" style="transform: none;"><g><path id="p6q2O4Eea" d="M6535 8033 c-557 -127 -1299 -451 -1980 -865 -834 -506 -1469 -1012 -1951 -1551 -136 -152 -270 -324 -290 -373 -7 -17 -18 -101 -24 -185 -18 -240 4 -470 55 -593 15 -34 18 -36 63 -36 l47 0 43 69 c113 184 336 468 524 667 301 319 587 560 951 799 131 86 147 99 151 128 53 372 84 477 187 629 41 60 61 71 152 82 75 9 180 -10 376 -69 100 -30 201 -55 224 -55 37 0 76 21 331 181 732 457 1051 619 1404 709 138 35 255 56 370 66 l82 7 0 38 c0 34 -7 46 -59 96 -158 155 -506 290 -656 256z"></path></g></g><g id="l3hwgh1IxPOgldb5K1GXmAw" fill="rgb(207,159,111)" style="transform: none;"><g><path id="p1GN4EetPU" d="M4800 10013 c-19 -1 -87 -8 -150 -14 -256 -23 -442 -56 -725 -129 -706 -181 -1360 -520 -1940 -1003 -239 -200 -591 -572 -786 -832 -275 -365 -536 -848 -688 -1274 -380 -1059 -372 -2260 21 -3321 373 -1004 1093 -1885 2015 -2461 532 -333 1124 -561 1718 -663 319 -55 397 -60 885 -60 494 -1 561 4 915 69 703 129 1407 443 2006 895 346 262 701 618 977 983 492 648 813 1409 931 2212 33 220 41 331 48 615 10 453 -30 826 -132 1245 -343 1409 -1313 2609 -2630 3255 -564 277 -1124 431 -1739 480 -117 9 -641 12 -726 3z m696 -758 c1357 -140 2564 -948 3229 -2160 551 -1006 657 -2167 296 -3237 -75 -224 -127 -348 -236 -563 -313 -621 -752 -1133 -1310 -1527 -187 -132 -284 -192 -480 -294 -334 -174 -733 -315 -1100 -388 -640 -128 -1338 -85 -1980 121 -325 104 -661 263 -964 456 -1107 703 -1813 1877 -1922 3192 -14 172 -6 540 16 720 160 1325 944 2497 2113 3162 411 234 872 398 1339 477 128 21 191 29 403 49 106 11 464 5 596 -8z"></path></g></g><g id="l4QlLASwqEvU4xEI8cOdK5Y" fill="rgb(223,52,52)" style="transform: none;"><g><path id="pt7CLgUum" d="M4455 6697 c-79 -32 -137 -82 -168 -142 -37 -75 -43 -201 -14 -299 15 -51 96 -139 155 -168 41 -20 62 -23 157 -23 100 0 115 2 160 27 61 32 110 79 138 132 29 57 36 222 13 294 -22 64 -80 130 -142 162 -42 22 -64 25 -159 27 -68 2 -121 -2 -140 -10z"></path></g></g><g id="l2vNBHQIkTvmyi1uhoilHA" fill="rgb(137,88,55)" style="transform: none;"><g><path id="pFpV0DzDr" d="M3860 8469 c-258 -68 -660 -341 -832 -565 -81 -105 -100 -150 -96 -219 4 -68 29 -126 155 -365 l81 -155 47 -3 c45 -3 48 -1 133 75 356 321 690 532 1150 728 37 16 42 22 42 49 0 34 -12 55 -140 231 -48 66 -102 144 -120 173 -18 30 -44 58 -57 63 -46 17 -281 10 -363 -12z"></path><path id="p5zqce9om" d="M4500 7841 c-125 -50 -380 -178 -505 -254 -199 -119 -451 -310 -618 -469 -85 -81 -87 -84 -87 -128 0 -36 14 -70 63 -165 l63 -120 52 -3 c52 -3 52 -3 150 78 325 272 671 499 1040 682 199 99 202 101 202 132 0 36 -32 90 -121 208 -58 76 -61 78 -102 78 -25 0 -80 -16 -137 -39z"></path><path id="p19bg1wyoT" d="M5090 100 c0 -18 7 -20 58 -20 71 0 102 8 102 26 0 11 -19 14 -80 14 -73 0 -80 -2 -80 -20z"></path></g></g><g id="l3jZRaHScN9yUmpkisWBNSF" fill="rgb(5,75,69)" style="transform: none;"><g><path id="pgMKN0Y51" d="M6885 7274 c-247 -41 -525 -163 -707 -310 -162 -131 -207 -245 -195 -494 13 -249 66 -360 308 -650 85 -103 272 -381 362 -541 126 -223 351 -674 500 -999 24 -53 57 -124 192 -407 35 -73 97 -193 139 -267 136 -240 188 -287 330 -293 64 -3 88 0 116 14 51 27 62 55 55 144 -8 119 -127 688 -225 1079 -105 421 -120 472 -200 700 -210 593 -257 787 -267 1081 -6 181 4 291 53 542 24 124 34 206 34 271 0 107 -7 118 -80 135 -63 15 -319 12 -415 -5z"></path><path id="pO90dOhOh" d="M3595 5182 c-176 -53 -450 -241 -620 -425 -91 -99 -195 -251 -232 -338 -32 -77 -45 -250 -21 -282 9 -13 60 -28 166 -52 300 -67 487 -132 687 -241 240 -131 321 -198 685 -567 379 -384 588 -570 1030 -917 432 -340 527 -400 633 -400 101 0 142 56 135 184 -10 167 -81 289 -409 706 -300 381 -659 851 -773 1010 -197 277 -288 431 -460 779 -61 124 -129 252 -150 283 -57 87 -175 192 -265 236 -75 36 -78 37 -211 39 -106 2 -148 -1 -195 -15z"></path></g></g><g id="l10sWHuVreezjAVmw0MG6Fp" fill="rgb(0,0,0)" style="transform: none;"><g><path id="p17nDY2XHG" d="M4785 10169 c-342 -28 -672 -87 -998 -180 -1934 -550 -3401 -2225 -3666 -4184 -33 -245 -44 -415 -44 -680 0 -909 244 -1782 719 -2571 218 -363 483 -694 815 -1019 397 -389 817 -686 1314 -930 593 -291 1159 -449 1815 -505 159 -14 627 -14 790 0 863 74 1620 334 2350 808 650 422 1242 1051 1640 1742 486 844 723 1842 660 2782 -67 989 -399 1884 -1002 2693 -296 397 -657 761 -1035 1042 -723 536 -1538 868 -2398 977 -278 35 -699 46 -960 25z m711 -189 c615 -49 1175 -203 1739 -480 894 -438 1634 -1133 2130 -2000 434 -758 654 -1617 632 -2470 -7 -258 -16 -374 -48 -585 -118 -803 -439 -1564 -931 -2212 -201 -266 -517 -603 -749 -800 -648 -551 -1438 -932 -2234 -1078 -349 -64 -424 -70 -885 -69 -455 0 -541 6 -855 60 -594 102 -1186 330 -1718 663 -837 523 -1510 1298 -1906 2194 -494 1115 -540 2384 -130 3528 152 426 413 909 688 1274 271 361 668 756 1024 1019 725 536 1575 867 2427 945 63 6 131 13 150 14 85 9 549 6 666 -3z"></path><path id="p1BOVnewzm" d="M4870 9293 c-212 -20 -275 -28 -403 -49 -1619 -274 -2952 -1512 -3356 -3119 -80 -320 -110 -551 -118 -905 -8 -365 18 -638 93 -973 362 -1616 1645 -2869 3269 -3191 488 -97 1084 -97 1570 0 367 73 766 214 1100 388 196 102 293 162 480 294 458 324 824 714 1140 1217 86 136 256 472 315 620 300 761 378 1536 234 2325 -148 808 -557 1582 -1147 2172 -699 698 -1565 1114 -2521 1213 -133 13 -546 19 -656 8z m-677 -842 c14 -6 40 -35 60 -68 20 -32 78 -116 130 -187 52 -71 101 -141 110 -156 l16 -27 -42 -18 c-459 -195 -793 -407 -1148 -727 -48 -43 -94 -78 -102 -78 -23 0 -225 384 -249 473 -11 42 -10 49 15 97 109 210 402 453 738 614 129 62 221 85 346 85 56 1 113 -3 126 -8z m2515 -466 c180 -48 351 -138 453 -238 32 -31 59 -61 59 -66 0 -5 -37 -12 -82 -15 -182 -16 -404 -67 -605 -138 -240 -85 -612 -288 -1177 -642 -149 -93 -277 -171 -286 -173 -8 -2 -98 21 -199 51 -207 62 -314 81 -416 71 -110 -10 -130 -19 -174 -83 -103 -152 -134 -257 -187 -629 -4 -29 -20 -42 -151 -128 -364 -239 -650 -480 -951 -799 -188 -199 -411 -483 -524 -667 -27 -42 -50 -69 -60 -69 -37 0 -76 143 -89 320 -10 141 4 384 25 434 20 49 155 222 290 373 482 539 1117 1045 1951 1551 231 141 426 247 700 382 490 242 899 396 1280 483 37 9 50 7 143 -18z m-1983 -236 c42 -56 82 -114 90 -129 l14 -28 -202 -100 c-368 -183 -714 -410 -1040 -682 -68 -57 -104 -80 -119 -78 -17 2 -37 32 -85 123 -34 66 -63 127 -63 135 0 20 147 159 290 274 231 186 409 300 670 431 152 76 333 154 358 155 6 0 46 -46 87 -101z m2545 -500 c25 -6 53 -17 62 -26 28 -25 23 -117 -16 -320 -50 -257 -59 -357 -53 -572 8 -322 51 -498 267 -1111 80 -227 95 -279 196 -685 82 -326 188 -814 220 -1012 17 -110 10 -137 -46 -166 -78 -41 -196 0 -270 94 -52 65 -175 284 -255 452 -135 283 -168 354 -192 407 -149 325 -374 776 -500 999 -90 160 -277 438 -362 541 -122 146 -192 242 -228 313 -88 176 -107 433 -42 583 86 202 491 435 864 498 97 17 293 19 355 5z m-1681 -594 c70 -287 186 -639 301 -911 86 -203 311 -645 454 -894 118 -205 443 -729 604 -975 452 -691 882 -1396 882 -1446 0 -22 -64 -125 -116 -185 -43 -51 -224 -172 -454 -304 -41 -24 -109 -65 -151 -92 l-76 -48 -139 0 -139 0 -21 33 c-136 208 -292 455 -434 687 -774 1266 -1153 1838 -1544 2325 -224 279 -522 603 -742 805 -68 63 -124 120 -124 125 1 14 145 110 214 141 53 24 69 26 185 27 155 0 273 -26 387 -84 232 -119 326 -230 740 -872 281 -437 715 -1089 899 -1352 93 -132 212 -302 264 -377 52 -76 101 -138 109 -138 10 0 9 7 -6 33 -24 41 -161 276 -332 572 -73 127 -154 266 -180 310 -61 103 -356 616 -517 900 -258 454 -289 510 -522 939 l-92 169 50 176 c27 97 61 221 76 276 15 55 33 110 41 123 21 33 295 208 330 211 6 1 30 -78 53 -174z m-865 -5 c106 -54 162 -157 154 -284 -8 -113 -58 -189 -163 -244 -42 -23 -62 -27 -130 -26 -97 0 -137 16 -204 79 -79 74 -108 162 -89 265 21 112 78 180 193 227 51 21 182 12 239 -17z m-753 -1523 c90 -43 207 -147 265 -235 21 -31 89 -159 150 -283 172 -348 263 -502 460 -779 114 -159 473 -629 773 -1010 106 -135 227 -297 270 -360 153 -228 182 -404 75 -455 -84 -40 -189 25 -688 419 -424 336 -612 505 -986 883 -364 369 -445 436 -685 567 -200 109 -387 174 -687 241 -106 24 -157 39 -166 52 -21 28 -10 145 22 222 100 245 411 551 718 707 117 60 177 74 298 71 98 -2 110 -5 181 -40z"></path></g></g></svg>
