<svg xmlns="http://www.w3.org/2000/svg" viewBox="0 0 513 342"><path fill="#41662e" d="M0 0h513v342H0z"/><path fill="#fff" d="M256.5 0H513v342H256.5z"/><g fill="#d80027"><path d="m341.5 105.3-29.4 40.4-47.5-15.4 29.4 40.4-29.4 40.4 47.5-15.4 29.4 40.4v-50l47.5-15.5-47.5-15.4z"/><path d="M309.9 276.7c-58.5 0-106-47.5-106-106s47.5-106 106-106c18.3 0 35.4 4.6 50.4 12.7-23.5-23-55.7-37.2-91.2-37.2-72 0-130.4 58.4-130.4 130.4S197.1 301 269.1 301c35.5 0 67.7-14.2 91.2-37.2-14.9 8.2-32.1 12.9-50.4 12.9"/></g></svg>